<?xml version="1.0" encoding="utf-8"?>
<!-- Generator: Adobe Illustrator 16.0.3, SVG Export Plug-In . SVG Version: 6.00 Build 0)  -->
<!DOCTYPE svg PUBLIC "-//W3C//DTD SVG 1.1//EN" "http://www.w3.org/Graphics/SVG/1.1/DTD/svg11.dtd">
<svg version="1.1" id="Layer_1" xmlns="http://www.w3.org/2000/svg" xmlns:xlink="http://www.w3.org/1999/xlink" x="0px" y="0px"
	 width="500px" height="400px" viewBox="0 0 500 400" enable-background="new 0 0 500 400" xml:space="preserve">
<g>
	<defs>
		<rect id="SVGID_1_" y="19.333" width="494.667" height="356.667"/>
	</defs>
	<clipPath id="SVGID_2_">
		<use xlink:href="#SVGID_1_"  overflow="visible"/>
	</clipPath>
	<path clip-path="url(#SVGID_2_)" stroke="#000000" stroke-width="0.25" stroke-miterlimit="10" d="M346.525,303.387
		c0-30.442,24.682-55.115,55.134-55.115c30.45,0,55.133,24.673,55.133,55.115c0,30.438-24.683,55.111-55.133,55.111
		C371.207,358.498,346.525,333.824,346.525,303.387z"/>
	<path clip-path="url(#SVGID_2_)" fill="#E6E7E8" stroke="#000000" stroke-width="0.25" stroke-miterlimit="10" d="M363.957,302.918
		c0-21.443,17.444-38.83,38.956-38.83c21.504,0,38.948,17.387,38.948,38.83c0,21.453-17.444,38.839-38.948,38.839
		C381.401,341.757,363.957,324.371,363.957,302.918z"/>
	
		<ellipse clip-path="url(#SVGID_2_)" stroke="#000000" stroke-width="0.25" stroke-miterlimit="10" cx="79.788" cy="307.339" rx="55.113" ry="53.953"/>
	<path clip-path="url(#SVGID_2_)" fill="#E6E7E8" stroke="#000000" stroke-width="0.25" stroke-miterlimit="10" d="M39.56,307.227
		c0-21.512,17.855-38.953,39.88-38.953c22.027,0,39.882,17.441,39.882,38.953c0,21.507-17.854,38.948-39.882,38.948
		C57.415,346.175,39.56,328.733,39.56,307.227z"/>
	<path clip-path="url(#SVGID_2_)" fill="#E6E7E8" stroke="#000000" stroke-miterlimit="10" d="M182.341,93.919l8.546-15
		c0,0-2.791-1.221-0.175-6.802c3.619-7.718,7.674-9.244,7.674-9.244l4.535,8.197c0,0,0.523,14.65-4.186,15.522
		s-5.059-7.674-5.059-7.674l-9.592,16.569L182.341,93.919z"/>
	<path clip-path="url(#SVGID_2_)" fill="#D1D3D4" stroke="#000000" stroke-miterlimit="10" d="M200.508,68.455
		c0,0-3.658,21.163-0.667,17.5c2.989-3.663,3.39-8.72,3.588-11.685C203.629,71.305,200.508,68.455,200.508,68.455z"/>
	<path clip-path="url(#SVGID_2_)" fill="#414042" stroke="#E6E7E8" stroke-width="0.25" stroke-miterlimit="10" d="M79.905,273.157
		c-19.201,0-34.765,15.307-34.765,34.184c0,18.878,15.563,34.185,34.765,34.185c19.198,0,34.765-15.307,34.765-34.185
		C114.67,288.464,99.104,273.157,79.905,273.157z M100.717,282.458c0,0,8.489,4.886,10.465,17.907l-22.21,4.417l-1.624-2.324
		L100.717,282.458z M51.302,318.618c-7.325-10.582-0.231-23.951-0.231-23.951l19.766,9.998l-0.58,3.14L51.302,318.618z
		 M59.791,331.176l15.348-13.953l2.791,0.93l-8.489,18.372C69.44,336.524,63.628,336.29,59.791,331.176z M72.231,337.337
		l6.278-18.836l2.21-0.231l1.744,19.999C76.186,339.664,72.231,337.337,72.231,337.337z M79.205,297.108l-4.535,1.047
		l-11.739-18.021c0,0,12.906-8.258,19.997-4.652L79.205,297.108z M97.344,333.503l-10.345-18.954l24.414-1.163
		C109.783,326.523,97.344,333.503,97.344,333.503z"/>
	<path opacity="0.9" clip-path="url(#SVGID_2_)" fill="#BCBEC0" stroke="#000000" stroke-miterlimit="10" d="M53.976,307.224
		c0-14.317,11.555-25.93,25.813-25.93s25.813,11.612,25.813,25.93c0,14.318-11.555,25.93-25.813,25.93
		S53.976,321.542,53.976,307.224z"/>
	<path clip-path="url(#SVGID_2_)" fill="#D1D3D4" stroke="#000000" stroke-miterlimit="10" d="M92.114,307.832
		c0,6.794-5.467,12.298-12.209,12.298s-12.209-5.504-12.209-12.298c0-6.789,5.467-12.293,12.209-12.293
		S92.114,301.043,92.114,307.832z"/>
	<polygon clip-path="url(#SVGID_2_)" fill="#D1D3D4" stroke="#000000" stroke-miterlimit="10" points="104.439,253.389 
		77.93,304.316 81.184,308.968 85.138,308.736 120.485,255.481 	"/>
	<path clip-path="url(#SVGID_2_)" fill="#414042" stroke="#E6E7E8" stroke-width="0.25" stroke-miterlimit="10" d="M402.902,269.435
		c-18.937,0-34.29,15.305-34.29,34.182c0,18.882,15.354,34.187,34.29,34.187c18.929,0,34.285-15.305,34.285-34.187
		C437.188,284.739,421.831,269.435,402.902,269.435z M411.653,273.269c4.363,0.229,9.765,4.136,9.765,4.136l-1.952,3.926
		l-8.125,16.5l-3-2.75L411.653,273.269z M386.803,328.231c-12.247-3.953-13.206-20.468-13.206-20.468l21.773-4.069l1.446,2.846
		L386.803,328.231z M398.725,332.685l0.804-17.042l3.813-0.375l5.849,16.72C403.025,334.778,398.725,332.685,398.725,332.685z
		 M411.77,330.474l-7.366-17.206l3-1.25l13.438,12.942C418.43,329.668,411.77,330.474,411.77,330.474z M413.591,308.58l0.803-9.648
		l16.673-4.41c0,0,3.678,11.253-1.033,18.377L413.591,308.58z"/>
	<path clip-path="url(#SVGID_2_)" fill="#414042" stroke="#000000" stroke-width="0.25" stroke-miterlimit="10" d="M51.185,236.643
		c0,0,1.396-13.952,13.49-19.533c12.088-5.582,30.695-4.652,32.554,4.186L51.185,236.643z"/>
	<path clip-path="url(#SVGID_2_)" fill="#FFFFFF" stroke="#000000" stroke-miterlimit="10" d="M177.688,85.488
		c0,0-20.929-4.186-31.625,10.233c-10.696,14.418-6.047,28.371-1.396,28.371c4.652,0,17.209,1.396,16.743,5.581l-1.046,2.616
		l26.858,13.604l10.64-20.929c0,0,20.58-13.429,0.522-21.976c0,0-8.546-5.581-12.383-8.372S177.688,85.488,177.688,85.488z"/>
	<path clip-path="url(#SVGID_2_)" fill="#939598" stroke="#000000" stroke-miterlimit="10" d="M143.447,123.568
		c0,0,3.488-8.371,8.197-17.092c4.709-8.72,7.977-17.759,8.372-19.708c0.824-4.063-19.359,8.023-20.406,22.848
		C138.563,124.441,143.447,123.568,143.447,123.568z"/>
	<path opacity="0.9" clip-path="url(#SVGID_2_)" fill="#BCBEC0" stroke="#000000" stroke-miterlimit="10" d="M378.607,302.572
		c0-14.062,10.982-25.464,24.529-25.464c13.555,0,24.537,11.402,24.537,25.464s-10.982,25.464-24.537,25.464
		C389.59,328.036,378.607,316.634,378.607,302.572z"/>
	<polygon clip-path="url(#SVGID_2_)" fill="#EF4136" stroke="#000000" stroke-width="0.25" stroke-miterlimit="10" points="
		86.216,288.455 94.466,294.644 95.216,293.519 86.966,286.955 	"/>
	<polygon clip-path="url(#SVGID_2_)" fill="#EF4136" stroke="#000000" stroke-width="0.25" stroke-miterlimit="10" points="
		87.591,285.955 95.986,292.352 96.736,291.227 88.341,284.455 	"/>
	<polygon clip-path="url(#SVGID_2_)" fill="#EF4136" stroke="#000000" stroke-width="0.25" stroke-miterlimit="10" points="
		88.841,283.519 97.518,289.854 98.319,288.747 89.507,282.102 	"/>
	<polygon clip-path="url(#SVGID_2_)" fill="#EF4136" stroke="#000000" stroke-width="0.25" stroke-miterlimit="10" points="
		90.153,280.861 99.185,287.424 100.153,286.143 91.028,279.361 	"/>
	<polygon clip-path="url(#SVGID_2_)" fill="#EF4136" stroke="#000000" stroke-width="0.25" stroke-miterlimit="10" points="
		91.581,278.125 101.028,284.799 101.935,283.33 92.464,276.58 	"/>
	<polygon clip-path="url(#SVGID_2_)" fill="#EF4136" stroke="#000000" stroke-width="0.25" stroke-miterlimit="10" points="
		92.926,275.773 102.786,282.169 103.621,280.85 93.76,274.066 	"/>
	<path clip-path="url(#SVGID_2_)" fill="#414042" stroke="#A7A9AC" stroke-width="0.25" stroke-miterlimit="10" d="M329.674,270.469
		l68.553,24.153c0,0,25.819-26.511,3.563-40.943c-22.258-14.434-64.103,9.426-64.103,9.426L329.674,270.469z"/>
	<path clip-path="url(#SVGID_2_)" fill="#D1D3D4" stroke="#000000" stroke-miterlimit="10" d="M297.682,308.968
		c0,0,19.303,13.487,39.068,10.465l18.138-0.929l16.277,2.324l0.933-1.627l5.581,0.231c0,0,25.112-1.163,31.856-3.488
		c6.745-2.324,12.792-11.859,3.954-20.231l-12.091-7.208c0,0-8.838-2.559-26.279-6.047c-17.44-3.488-41.16-10.931-41.16-10.931
		l-24.417,2.093l-7.674,13.023L297.682,308.968z"/>
	<polygon clip-path="url(#SVGID_2_)" fill="#EF4136" stroke="#000000" stroke-width="0.25" stroke-miterlimit="10" points="
		94.341,272.955 104.216,279.705 105.156,278.325 95.122,271.326 	"/>
	
		<ellipse clip-path="url(#SVGID_2_)" fill="#A7A9AC" stroke="#000000" stroke-width="0.25" stroke-miterlimit="10" cx="329.776" cy="288.094" rx="17.092" ry="16.103"/>
	<polygon clip-path="url(#SVGID_2_)" fill="#EF4136" stroke="#000000" stroke-width="0.25" stroke-miterlimit="10" points="
		95.626,270.515 105.997,277.063 107.049,275.575 96.516,268.706 	"/>
	<polygon clip-path="url(#SVGID_2_)" fill="#EF4136" stroke="#000000" stroke-width="0.25" stroke-miterlimit="10" points="
		97.032,267.705 107.569,274.772 108.528,273.393 97.935,265.893 	"/>
	<polygon clip-path="url(#SVGID_2_)" fill="#EF4136" stroke="#000000" stroke-width="0.25" stroke-miterlimit="10" points="
		98.499,264.764 109.565,271.854 110.528,270.519 99.475,263.031 	"/>
	<polygon clip-path="url(#SVGID_2_)" fill="#EF4136" stroke="#000000" stroke-width="0.25" stroke-miterlimit="10" points="
		99.945,262.081 111.445,269.019 112.347,267.642 100.841,260.311 	"/>
	<path clip-path="url(#SVGID_2_)" fill="#414042" stroke="#000000" stroke-width="0.25" stroke-miterlimit="10" d="M303.614,299.081
		l15-1.744c0,0,12.325,3.025,17.789,0.117c5.464-2.907,7.557-14.652,0.581-18.023c-6.977-3.371-20.695-6.394-20.695-6.394
		l-9.535,7.439l-5.813,13.255L303.614,299.081z"/>
	<polygon clip-path="url(#SVGID_2_)" stroke="#000000" stroke-width="0.25" stroke-miterlimit="10" points="185.306,98.279 
		183.387,101.593 192.107,100.547 191.061,98.279 	"/>
	<path clip-path="url(#SVGID_2_)" fill="#FFFFFF" stroke="#000000" stroke-miterlimit="10" d="M186.7,99.326l0.698-7.674
		l8.197-19.359c0,0-3.837-7.5,3.14-19.011c6.976-11.511,8.72-6.802,9.243,2.616c0.523,9.418,1.396,30.173-8.197,17.964l-1.918-0.872
		l-8.372,19.185l-0.175,6.627L186.7,99.326z"/>
	<path clip-path="url(#SVGID_2_)" stroke="#000000" stroke-width="0.25" stroke-miterlimit="10" d="M180.945,111.535l0.174,4.709
		l12.209-0.35c0,0,4.36,6.628,9.418,0.697c5.058-5.93-1.046-11.685-5.406-10.289c-4.36,1.395-5.058,5.058-5.058,5.058
		L180.945,111.535z"/>
	<path clip-path="url(#SVGID_2_)" fill="#A7A9AC" stroke="#000000" stroke-width="0.25" stroke-miterlimit="10" d="M185.829,111.883
		l-7.675,4.709c0,0,0.35,2.965,2.616,2.442l6.977-4.534L185.829,111.883z"/>
	<path clip-path="url(#SVGID_2_)" fill="#414042" stroke="#D1D3D4" stroke-width="0.25" stroke-miterlimit="10" d="M199.084,109.441
		c0,0-7.325,3.662,0.523,6.977l14.824,0.523l-0.523-3.838l-5.058-2.965L199.084,109.441z"/>
	<path clip-path="url(#SVGID_2_)" fill="#E6E7E8" stroke="#000000" stroke-miterlimit="10" d="M210.943,109.441
		c0,0-5.755,0-5.232,5.582c0,0,0.698,3.313,4.012,3.662h3.837c0,0,6.977-0.697,1.569-7.5L210.943,109.441z"/>
	<path clip-path="url(#SVGID_2_)" fill="#D1D3D4" stroke="#000000" stroke-width="0.5" stroke-miterlimit="10" d="M217.223,113.977
		c0.697,2.79-1.96,4.709-3.837,4.709c-1.878,0-3.314-2.453-3.314-4.186c0-1.734,1.872-3.663,3.75-3.663
		S216.803,112.295,217.223,113.977z"/>
	<path clip-path="url(#SVGID_2_)" fill="#FFFFFF" stroke="#000000" stroke-miterlimit="10" d="M35.837,256.643
		c0,0,1.682,2.147,13.004,2.313c14.032,0.204,38.854-1.484,46.061-0.454c13.026,1.861,27.908,8.838,39.07,29.767l18.603,0.93
		l-28.835-75.345l-14.416,4.187C109.323,218.039,49.841,207.455,35.837,256.643z"/>
	
		<circle clip-path="url(#SVGID_2_)" fill="#414042" stroke="#000000" stroke-width="0.25" stroke-miterlimit="10" cx="214.083" cy="114.848" r="1.569"/>
	<path clip-path="url(#SVGID_2_)" fill="#FFFFFF" stroke="#000000" stroke-miterlimit="10" d="M160.365,132.289l-2.093-4.186
		l-8.896-2.094c0,0-29.823,34.708-31.045,38.021l-13.255,25.987l-7.499,12.383c0,0-2.966,8.546,4.011,11.337
		s12.383,8.546,15.349,14.301c2.965,5.756,29.998,55.288,29.998,55.288s10.115,20.58,19.185,25.289s11.86,6.803,44.649,6.104
		c32.788-0.697,81.1,2.093,81.1,2.093s4.535,0.35,8.721-10.29l8.022-11.162c0,0,3.314-4.709-2.616-4.709h-3.139l7.499-9.941
		c0,0,0.872-3.488,8.372-4.36c7.499-0.872,43.602-6.976,43.602-6.976L445,256.817c0,0,16.569,23.37,22.499,24.417
		s8.721,1.744,8.721,1.744l-22.848-43.254l-19.534-28.08c0,0-12.208-17.615-33.661-24.416c-21.452-6.803-55.984-5.756-55.984-5.756
		l-79.356,16.743l-20.58,13.604l1.918,5.58l-0.522,6.453c0,0,8.196,12.732,5.406,25.987c-2.791,13.255-16.046,19.883-20.755,21.278
		c-4.709,1.395-34.533,3.662-37.672,3.662c-3.14,0-15.522-6.104-18.139-13.43s-6.279-16.395-6.279-16.395s4.884-11.859,4.012-19.533
		s-1.744-33.313,0.872-39.068c2.616-5.755,1.744-12.557,1.744-12.557s7.15-23.895,12.383-27.906L160.365,132.289z"/>
	<path clip-path="url(#SVGID_2_)" fill="#939598" stroke="#000000" stroke-width="0.25" stroke-miterlimit="10" d="M127.228,176.998
		c1.125-1.913,3.72-5.35,8.952-6.279c5.231-0.929,5.698-0.577,3.256,3.025c-2.441,3.603-13.486,23.485-13.486,23.485
		s-0.817,1.86-7.211,2.559c-6.393,0.698-7.325-1.393-4.186-5.464S124.401,181.799,127.228,176.998z"/>
	<path clip-path="url(#SVGID_2_)" stroke="#000000" stroke-width="0.25" stroke-miterlimit="10" d="M144.554,191.182l12.092-0.113
		l1.744-8.258c0,0,0.929-3.139-2.791-3.139s-5.35-0.813-7.791,4.303S144.554,191.182,144.554,191.182z"/>
	<polygon clip-path="url(#SVGID_2_)" stroke="#000000" stroke-width="0.25" stroke-miterlimit="10" points="143.856,192.813 
		156.179,192.813 154.901,204.088 139.087,204.088 	"/>
	<path clip-path="url(#SVGID_2_)" stroke="#000000" stroke-width="0.25" stroke-miterlimit="10" d="M139.204,206.182h15.814v10.813
		h-15.814C139.204,216.994,137.343,209.203,139.204,206.182z"/>
	<path clip-path="url(#SVGID_2_)" stroke="#000000" stroke-width="0.25" stroke-miterlimit="10" d="M139.204,218.973h16.743
		c0,0,0.621,6.535,1.744,7.906c1.047,1.277-2.324,4.188-7.208,6.744C145.601,236.18,140.368,224.322,139.204,218.973z"/>
	<path clip-path="url(#SVGID_2_)" stroke="#000000" stroke-width="0.25" stroke-miterlimit="10" d="M177.923,269.552
		c0,0-2.327-3.954,0.93-2.21c3.256,1.744,8.837,6.971,13.778,7.439c4.94,0.469,29.706-2.207,33.661-3.137
		c3.954-0.929,11.394-3.257,17.323-9.069c0,0,4.186,1.161,5.001,3.371c0.814,2.21-3.954,7.211-11.978,9.304
		c-5.485,1.431-18.253,3.254-35.462,2.674c0,0-6.974,0.466-12.789-0.698C182.572,276.063,177.923,269.552,177.923,269.552z"/>
	<path clip-path="url(#SVGID_2_)" fill="#6D6E71" stroke="#000000" stroke-width="0.25" stroke-miterlimit="10" d="M259.08,278.155
		l28.486-0.231c0,0,5.464,1.741,0.349,5.813l-28.486,6.164C259.429,289.9,252.222,287.456,259.08,278.155z"/>
	<path clip-path="url(#SVGID_2_)" fill="#939598" stroke="#000000" stroke-width="0.25" stroke-miterlimit="10" d="M262.451,304.199
		c0-2.15,2.703-3.895,4.535-3.895c1.831,0,4.303,1.744,4.303,3.895c0,2.152-1.278,4.42-5.115,4.303
		C264.343,308.445,262.451,306.352,262.451,304.199z"/>
	<polygon clip-path="url(#SVGID_2_)" fill="#F1F2F2" stroke="#000000" stroke-width="0.25" stroke-miterlimit="10" points="
		402.341,296.623 402.341,300.956 411.008,301.956 	"/>
	<polygon clip-path="url(#SVGID_2_)" fill="#F1F2F2" stroke="#000000" stroke-width="0.25" stroke-miterlimit="10" points="
		400.341,308.289 401.674,305.289 410.008,305.956 	"/>
	
		<circle clip-path="url(#SVGID_2_)" fill="#414042" stroke="#000000" stroke-width="0.25" stroke-miterlimit="10" cx="299.02" cy="288.68" r="1.338"/>
	<path clip-path="url(#SVGID_2_)" stroke="#000000" stroke-width="0.25" stroke-miterlimit="10" d="M325.928,265.366
		c0.041,0.591-0.207,1.106-0.556,1.131l-17.795,1.289c-0.352,0.027-0.676-0.447-0.72-1.047l0,0
		c-0.041-0.603,0.207-1.109,0.559-1.137l17.795-1.288C325.561,264.289,325.885,264.756,325.928,265.366L325.928,265.366z"/>
	<path clip-path="url(#SVGID_2_)" stroke="#000000" stroke-width="0.25" stroke-miterlimit="10" d="M331.757,270.228
		c-0.043-0.542-0.528-0.951-1.082-0.904l-14.252,1.142c-0.554,0.041-0.968,0.521-0.927,1.065l0,0
		c0.044,0.542,0.531,0.951,1.082,0.907l14.253-1.142C331.384,271.252,331.798,270.772,331.757,270.228L331.757,270.228z"/>
	<path clip-path="url(#SVGID_2_)" fill="#BCBEC0" stroke="#000000" stroke-width="0.25" stroke-miterlimit="10" d="M424.188,226.299
		c0,0-2.676-2.674,0.93-3.022c3.604-0.349,7.557-0.466,11.394,3.72s6.396,7.325,6.396,7.325s3.72,3.022-2.21,3.022
		s-4.998,1.046-9.999-4.535L424.188,226.299z"/>
	<path clip-path="url(#SVGID_2_)" fill="#BE1E2D" stroke="#000000" stroke-miterlimit="10" d="M430.813,213.51
		c0,0-0.365-6.958,5-3.605c5.581,3.488,18.604,16.975,18.604,16.975s5.112-1.51,8.486,4.651c0,0,2.213,3.485-3.254,3.371
		l0.114,1.164l-7.439,3.605C452.325,239.671,432.442,214.09,430.813,213.51z"/>
	<path clip-path="url(#SVGID_2_)" fill="none" stroke="#000000" stroke-miterlimit="10" d="M246.174,259.607
		c0,0,7.325,1.221,12.384,0.872c5.058-0.349,16.394-0.872,20.231-1.744c3.837-0.872,17.964-2.267,21.801-2.441
		s28.429-3.14,37.149-4.534c8.72-1.396,30.695-3.838,34.881-4.36c4.187-0.523,51.103-5.232,51.103-5.232l12.731-0.872l15.871-2.791"
		/>
	<path clip-path="url(#SVGID_2_)" fill="#414042" stroke="#000000" stroke-width="0.25" stroke-miterlimit="10" d="M445,256.817
		l5.232-1.396l20.231,26.336c0,0-2.093,0-6.278-2.616C459.999,276.525,445,256.817,445,256.817z"/>
	<polygon clip-path="url(#SVGID_2_)" fill="#F1F2F2" stroke="#000000" stroke-width="0.25" stroke-miterlimit="10" points="
		354.891,288.036 368.028,294.896 370.588,290.593 	"/>
	<polygon clip-path="url(#SVGID_2_)" fill="#F1F2F2" stroke="#000000" stroke-width="0.25" stroke-miterlimit="10" points="
		350.239,296.871 368.146,298.267 367.217,302.687 	"/>
	<path clip-path="url(#SVGID_2_)" fill="none" stroke="#000000" stroke-miterlimit="10" d="M278.091,259.084
		c0,0,9.508,9.879,12.732,13.256c3.662,3.837,6.278,5.755,4.883,17.092"/>
	
		<ellipse clip-path="url(#SVGID_2_)" fill="#A7A9AC" stroke="#000000" stroke-miterlimit="10" cx="385.584" cy="300.543" rx="19.534" ry="20.409"/>
	
		<ellipse clip-path="url(#SVGID_2_)" fill="#BCBEC0" stroke="#000000" stroke-miterlimit="10" cx="387.211" cy="299.584" rx="11.86" ry="12.962"/>
	<path clip-path="url(#SVGID_2_)" stroke="#000000" stroke-width="0.25" stroke-miterlimit="10" d="M156.991,267.808l9.535,15.348
		c0,0,9.301,12.326,25.347,12.558l64.183-3.024l-0.231-1.627l-63.717,3.024c0,0-11.628-0.234-18.604-6.744
		c-6.977-6.511-13.721-17.21-13.721-17.21L156.991,267.808z"/>
	<path clip-path="url(#SVGID_2_)" fill="#D1D3D4" stroke="#000000" stroke-width="0.75" stroke-miterlimit="10" d="M294.426,296.411
		l-85.81,4.651c0,0-34.416,5.112-48.368-19.769c-13.953-24.88-28.372-57.669-28.372-57.669s-9.069-20.002,10.931-45.35
		c11.576-14.672,16.122-31.338,15.002-40.809c-0.814-6.892-5.624-8.047-8.022-11.279l8.721,1.744c0,0,1.204,0.684,2.207,12.558
		c0.932,11.045-2.557,16.975-3.488,18.487c-0.733,1.188-8.606,14.184-8.606,14.184s-10.928,16.744-12.789,21.627
		c-1.86,4.884-7.442,13.023-2.559,26.511c4.884,13.486,26.511,55.348,26.511,55.348s7.207,24.183,48.137,22.556l89.995-5.115
		L294.426,296.411z"/>
	
		<line clip-path="url(#SVGID_2_)" fill="none" stroke="#000000" stroke-miterlimit="10" x1="256.056" y1="292.688" x2="296.519" y2="290.132"/>
	<path clip-path="url(#SVGID_2_)" fill="none" stroke="#000000" stroke-width="0.25" stroke-miterlimit="10" d="M174.783,177.578
		c0,0-5.231,0.927-7.325-0.234c-2.093-1.16-8.72,39.068-1.743,47.788c0,0,4.648,0.933,6.51-0.114c0,0-1.161-26.974-0.929-28.254
		c0.231-1.281,0.697-8.486,1.976-10.814C174.549,183.623,174.783,177.578,174.783,177.578z"/>
	<polygon clip-path="url(#SVGID_2_)" stroke="#000000" stroke-width="0.25" stroke-miterlimit="10" points="179.201,161.416 
		181.207,162.2 177.195,174.147 175.189,173.449 	"/>
	<path clip-path="url(#SVGID_2_)" stroke="#000000" stroke-width="0.25" stroke-miterlimit="10" d="M163.504,139.004l7.238,11.424
		c0,0,1.744,2.791-1.396,12.471c-3.139,9.68-1.046,10.726-1.046,10.726l6.889-0.175l1.57-13.43l0.872-6.976
		c0,0,0.61-2.268-1.919-5.146C173.184,145.021,163.504,139.004,163.504,139.004z"/>
	
		<line clip-path="url(#SVGID_2_)" fill="none" stroke="#000000" stroke-width="0.75" stroke-miterlimit="10" x1="175.25" y1="139.903" x2="184.551" y2="123.975"/>
	<path clip-path="url(#SVGID_2_)" fill="#A7A9AC" stroke="#000000" stroke-width="0.25" stroke-miterlimit="10" d="M204.259,46.886
		c0,0,1.275,1.224,1.685,2.85c0.408,1.627,1.221,13.31,1.221,15.114s-1.104,9.827-1.104,9.827l-0.872,2.556l1.277-0.755
		c0,0,1.516-3.491,1.63-7.617c0.114-4.126,0.638-19.997-1.861-21.858C204.733,45.883,204.259,46.886,204.259,46.886z"/>
	
		<line clip-path="url(#SVGID_2_)" fill="none" stroke="#000000" stroke-width="0.25" stroke-miterlimit="10" x1="311.986" y1="301.641" x2="353.845" y2="312.686"/>
	
		<line clip-path="url(#SVGID_2_)" fill="none" stroke="#000000" stroke-width="0.25" stroke-miterlimit="10" x1="311.638" y1="302.687" x2="353.264" y2="314.197"/>
	
		<line clip-path="url(#SVGID_2_)" fill="none" stroke="#000000" stroke-width="0.25" stroke-miterlimit="10" x1="311.057" y1="303.848" x2="352.684" y2="315.358"/>
	
		<line clip-path="url(#SVGID_2_)" fill="none" stroke="#000000" stroke-width="0.25" stroke-miterlimit="10" x1="310.708" y1="305.129" x2="352.101" y2="316.522"/>
	
		<line clip-path="url(#SVGID_2_)" fill="none" stroke="#000000" stroke-width="0.25" stroke-miterlimit="10" x1="310.359" y1="306.406" x2="351.285" y2="317.686"/>
	<g clip-path="url(#SVGID_2_)">
		<g>
			<polygon fill="#C49A6C" stroke="#000000" stroke-width="0.01" stroke-miterlimit="10" points="389.952,242.925 382.867,243.633 
				382.15,236.501 389.235,235.787 			"/>
			<polygon fill="#A7A9AC" stroke="#000000" stroke-width="0.01" stroke-miterlimit="10" points="384.546,243.467 383.892,243.529 
				383.175,236.395 383.829,236.332 			"/>
			
				<rect x="382.552" y="240.013" transform="matrix(0.995 -0.0999 0.0999 0.995 -22.0745 39.7758)" fill="#BCBEC0" stroke="#000000" stroke-width="0.01" stroke-miterlimit="10" width="7.195" height="0.605"/>
			
				<rect x="385.072" y="236.675" transform="matrix(0.995 -0.0994 0.0994 0.995 -21.7287 39.6296)" fill="#FFFFFF" stroke="#000000" stroke-width="0.01" stroke-miterlimit="10" width="3.566" height="2.415"/>
		</g>
		<g>
			<path fill="#FFFFFF" stroke="#BCBEC0" stroke-width="0.1" stroke-miterlimit="10" d="M389.468,241.733
				c-0.193,0.24-0.895,0.997-1.184,1.02c-0.087,0.008-0.155-0.055-0.163-0.142c-0.014-0.175,0.221-0.521,0.33-0.657
				c0.174-0.231,0.346-0.349,0.615-0.444l0.665-0.836l-0.926,0.152c-0.044,0.011-0.303,0.032-0.325-0.055
				c-0.038-0.172-0.026-0.324,0.129-0.444c0.18-0.139,0.583-0.305,0.814-0.368l0.94-0.264c0.183-0.292,0.613-1.193,0.588-1.502
				c-0.011-0.122-0.104-0.108-0.207-0.098c-0.014,0-0.046-0.022-0.515,0.093c-0.709,0.18-1.409,0.419-2.047,0.763l0.014,0.011
				l0.324-0.035c0.044-0.003,0.117-0.014,0.123,0.046c0.005,0.076-0.128,0.109-0.18,0.123l-0.703,0.286
				c-0.412,0.166-0.475,0.096-0.485-0.017c-0.014-0.18,0.289-0.834,0.4-0.994c0.216-0.327,0.548-0.423,0.905-0.534
				c1.6-0.513,2.068-0.572,2.434-0.603c0.226-0.02,0.646-0.027,0.673,0.278c0.038,0.46-0.556,1.741-0.804,2.177l0.422,0.033
				l-0.215,0.422c-0.041,0.085-0.074,0.169-0.15,0.213c-0.131,0.076-0.359,0.12-0.501,0.161L389.468,241.733z"/>
			<path fill="#FFFFFF" stroke="#BCBEC0" stroke-width="0.1" stroke-miterlimit="10" d="M391.862,240.112
				c-0.19,0.359-0.438,0.545-0.684,0.834l-0.046-0.272c0.149-0.145,0.267-0.312,0.373-0.488c-0.134-0.003-0.175-0.049-0.186-0.183
				c-0.038-0.447,0.562-0.948,0.709-0.962c0.063-0.006,0.117,0.041,0.122,0.099c0.003,0.063-0.011,0.117-0.029,0.177
				c0.58-0.131,0.915-0.234,0.983-0.166c0.106,0.111,0.158,0.21,0.18,0.318c0.017,0.193-0.095,0.297-0.229,0.428
				c-0.169,0.172-0.447,0.502-0.426,0.752c0.009,0.102,0.115,0.164,0.208,0.158c0.267-0.024,0.626-0.46,0.817-0.632l0.063,0.227
				c-0.213,0.286-0.872,1.038-1.227,1.067c-0.262,0.022-0.444-0.204-0.463-0.441c-0.038-0.428,0.259-0.782,0.482-1.106l-0.011-0.008
				L391.862,240.112z"/>
			<path fill="#FFFFFF" stroke="#BCBEC0" stroke-width="0.1" stroke-miterlimit="10" d="M394.697,240.807
				c-0.109,0.104-0.479,0.464-0.624,0.475c-0.175,0.017-0.572-0.368-0.61-0.689c-0.091-0.776,1.463-1.712,2.186-1.793
				c0.286-0.03,0.425,0.19,0.431,0.264c0.008,0.074-0.15,0.15-0.208,0.175c0.126,0.041,0.194,0.104,0.205,0.242
				c0.016,0.199-0.491,0.682-0.464,0.976c0.009,0.106,0.104,0.142,0.205,0.134c0.264-0.024,0.591-0.37,0.842-0.575l0.07,0.227
				c-0.242,0.33-1.021,1.065-1.327,1.09c-0.204,0.02-0.313-0.122-0.326-0.303c-0.02-0.201,0.104-0.545,0.171-0.719l-0.014-0.012
				L394.697,240.807z M393.929,240.709c0.011,0.032,0.046,0.142,0.136,0.114c0.123-0.035,0.319-0.032,1.447-1.387l-0.011-0.009
				C394.054,240.006,393.904,240.403,393.929,240.709z"/>
			<path fill="#FFFFFF" stroke="#BCBEC0" stroke-width="0.1" stroke-miterlimit="10" d="M397.354,239.829
				c-0.13,0.111-0.234,0.215-0.221,0.39c0.014,0.144,0.181,0.324,0.502,0.297c0.474-0.038,0.981-0.523,1.319-0.831l0.098,0.234
				c-0.349,0.436-0.995,1.114-1.589,1.163c-0.479,0.041-0.749-0.39-0.787-0.848c-0.044-0.525,0.128-0.735,0.507-1.073
				c0.264-0.237,0.834-0.624,1.183-0.654c0.193-0.017,0.289,0.073,0.305,0.262c0.027,0.346-0.422,0.866-0.591,0.883
				c-0.145,0.011-0.221-0.142-0.234-0.259L397.354,239.829z"/>
			<path fill="#FFFFFF" stroke="#BCBEC0" stroke-width="0.1" stroke-miterlimit="10" d="M400.957,238.087
				c-0.246,0.616-0.275,0.851-0.965,0.867c-0.188,0.291-0.502,0.834-0.469,1.21c0.011,0.136,0.06,0.212,0.204,0.201
				c0.199-0.016,0.409-0.224,1.02-0.741l0.052,0.272c-0.338,0.368-0.954,1.093-1.485,1.137c-0.242,0.021-0.406-0.134-0.428-0.385
				c-0.02-0.207,0.043-0.449,0.108-0.638L398.98,240l-0.297,0.284l-0.087-0.232c0.349-0.318,0.665-0.665,0.864-1.079
				c-0.382,0.033-0.268-0.002-0.592,0.074l0.06-0.117c0.292-0.575,0.33-0.682,0.998-0.761c0.166-0.272,0.275-0.578,0.641-0.607
				c0.081-0.006,0.198,0.003,0.207,0.101c0.011,0.114-0.153,0.335-0.207,0.428L400.957,238.087z"/>
			<path fill="#FFFFFF" stroke="#BCBEC0" stroke-width="0.1" stroke-miterlimit="10" d="M402.529,239.758
				c-0.254,0.368-0.755,0.973-1.227,1.014c-0.371,0.03-0.575-0.379-0.603-0.697c-0.063-0.761,0.654-1.567,1.03-1.598
				c0.104-0.011,0.275,0.012,0.289,0.15c0.024,0.311-0.545,0.918-0.793,1.123c-0.027,0.259,0.076,0.387,0.365,0.362
				c0.329-0.027,0.627-0.385,0.861-0.586L402.529,239.758z M401.782,238.073c-0.021-0.253,0.259-0.504,0.504-0.525
				c0.112-0.009,0.213,0.065,0.221,0.177c0.022,0.248-0.183,0.575-0.452,0.597C401.905,238.335,401.796,238.224,401.782,238.073z"/>
			<path fill="#FFFFFF" stroke="#BCBEC0" stroke-width="0.1" stroke-miterlimit="10" d="M405.044,239.42
				c-0.25,0.379-0.512,0.553-0.967,0.591c-0.24,0.289-0.529,0.516-0.922,0.548c-0.324,0.027-0.65-0.272-0.725-0.836
				c-0.052-0.466,0.152-0.799,0.479-1.099c0.313-0.303,0.75-0.507,1.129-0.559c0.139-0.017,0.346,0.027,0.359,0.196
				c0.008,0.096-0.06,0.136-0.128,0.18c0.19,0.035,0.239,0.164,0.256,0.352c0.021,0.272-0.084,0.502-0.18,0.755
				c0.278,0.027,0.434-0.224,0.613-0.384L405.044,239.42z M403.117,239.289c-0.125,0.147-0.226,0.4-0.209,0.594
				c0.016,0.181,0.142,0.227,0.294,0.213c0.207-0.017,0.33-0.147,0.461-0.289c-0.052-0.098-0.088-0.174-0.099-0.28
				c-0.027-0.324,0.234-0.744,0.207-0.752C403.57,238.916,403.286,239.09,403.117,239.289z"/>
			<path fill="#FFFFFF" stroke="#BCBEC0" stroke-width="0.1" stroke-miterlimit="10" d="M407.87,238.88l0.071,0.271
				c-0.303,0.321-0.883,1.145-1.338,1.183c-0.237,0.019-0.365-0.172-0.382-0.385c-0.033-0.373,0.27-0.812,0.444-1.117l-0.014-0.014
				c-0.341,0.3-0.63,0.654-0.881,1.038c-0.084,0.129-0.288,0.45-0.457,0.464c-0.275,0.024-0.376-0.362-0.398-0.575
				c-0.055-0.428,0.283-1.09,0.621-1.428c0.074-0.074,0.129-0.085,0.234-0.093c0.377-0.021,0.354,0.068,0.357,0.106
				c0.02,0.245-0.714,0.939-0.703,1.09c0.006,0.038,0.038,0.065,0.076,0.063c0.044-0.005,0.096-0.063,0.12-0.098
				c0.441-0.679,1.526-1.543,1.709-1.56c0.024-0.002,0.065,0.027,0.105,0.112c0.047,0.09,0.096,0.199,0.126,0.33
				c0.019,0.242-0.709,0.779-0.673,1.212c0.005,0.055,0.063,0.106,0.122,0.102c0.15-0.012,0.406-0.254,0.51-0.357L407.87,238.88z"/>
			<path fill="#FFFFFF" stroke="#BCBEC0" stroke-width="0.1" stroke-miterlimit="10" d="M408.914,239.61
				c-0.109,0.102-0.482,0.461-0.624,0.475c-0.175,0.014-0.572-0.368-0.61-0.692c-0.093-0.776,1.463-1.711,2.183-1.79
				c0.286-0.033,0.425,0.188,0.434,0.264c0.005,0.074-0.153,0.15-0.207,0.172c0.122,0.044,0.19,0.106,0.204,0.243
				c0.017,0.198-0.49,0.681-0.466,0.976c0.008,0.105,0.106,0.142,0.204,0.133c0.265-0.021,0.594-0.37,0.845-0.575l0.071,0.227
				c-0.243,0.33-1.025,1.065-1.327,1.093c-0.207,0.017-0.313-0.125-0.33-0.305c-0.017-0.199,0.104-0.546,0.172-0.72l-0.011-0.011
				L408.914,239.61z M408.146,239.51c0.011,0.033,0.044,0.142,0.134,0.114c0.125-0.035,0.321-0.032,1.449-1.384l-0.014-0.012
				C408.269,238.807,408.118,239.207,408.146,239.51z"/>
			<path fill="#FFFFFF" stroke="#BCBEC0" stroke-width="0.1" stroke-miterlimit="10" d="M412.885,238.771
				c-0.311,0.384-0.845,1.065-1.379,1.109c-0.458,0.038-0.595-0.396-0.627-0.767c-0.055-0.653,0.169-1.381,0.531-1.913
				c0.49-0.725,1.033-1.356,1.234-1.373c0.106-0.011,0.145,0.139,0.145,0.221c0.006,0.594-0.109,1.155-1.354,2.583
				c-0.046,0.109-0.049,0.286-0.008,0.431c0.07,0.14,0.166,0.259,0.335,0.243c0.346-0.027,0.79-0.466,1.02-0.714L412.885,238.771z
				 M411.524,238.044c0.409-0.447,0.744-1.079,0.826-1.444c-0.295,0.174-0.603,0.766-0.84,1.436L411.524,238.044z"/>
		</g>
	</g>
	
		<line clip-path="url(#SVGID_2_)" fill="none" stroke="#000000" stroke-width="0.25" stroke-miterlimit="10" x1="114.341" y1="171.955" x2="117.341" y2="173.955"/>
	
		<line clip-path="url(#SVGID_2_)" fill="none" stroke="#000000" stroke-width="0.25" stroke-miterlimit="10" x1="115.007" y1="170.621" x2="118.007" y2="172.621"/>
	
		<line clip-path="url(#SVGID_2_)" fill="none" stroke="#000000" stroke-width="0.25" stroke-miterlimit="10" x1="115.841" y1="169.121" x2="118.841" y2="171.121"/>
	
		<line clip-path="url(#SVGID_2_)" fill="none" stroke="#000000" stroke-width="0.25" stroke-miterlimit="10" x1="116.341" y1="168.121" x2="119.341" y2="170.121"/>
	
		<line clip-path="url(#SVGID_2_)" fill="none" stroke="#000000" stroke-width="0.25" stroke-miterlimit="10" x1="113.174" y1="173.622" x2="116.174" y2="175.622"/>
	
		<line clip-path="url(#SVGID_2_)" fill="none" stroke="#000000" stroke-width="0.25" stroke-miterlimit="10" x1="112.174" y1="175.955" x2="115.174" y2="177.955"/>
	
		<line clip-path="url(#SVGID_2_)" fill="none" stroke="#000000" stroke-width="0.25" stroke-miterlimit="10" x1="111.174" y1="178.455" x2="114.174" y2="180.455"/>
	
		<line clip-path="url(#SVGID_2_)" fill="none" stroke="#000000" stroke-width="0.25" stroke-miterlimit="10" x1="110.174" y1="180.122" x2="113.174" y2="182.122"/>
	
		<line clip-path="url(#SVGID_2_)" fill="#939598" stroke="#000000" stroke-width="0.25" stroke-miterlimit="10" x1="115.091" y1="197.705" x2="131.841" y2="173.205"/>
	
		<line clip-path="url(#SVGID_2_)" fill="#939598" stroke="#000000" stroke-width="0.25" stroke-miterlimit="10" x1="116.091" y1="197.705" x2="132.841" y2="173.205"/>
	
		<line clip-path="url(#SVGID_2_)" fill="#939598" stroke="#000000" stroke-width="0.25" stroke-miterlimit="10" x1="117.028" y1="197.768" x2="133.778" y2="173.268"/>
	
		<line clip-path="url(#SVGID_2_)" fill="#939598" stroke="#000000" stroke-width="0.25" stroke-miterlimit="10" x1="117.841" y1="197.768" x2="134.591" y2="173.268"/>
	
		<line clip-path="url(#SVGID_2_)" fill="#939598" stroke="#000000" stroke-width="0.25" stroke-miterlimit="10" x1="118.528" y1="197.705" x2="135.278" y2="173.205"/>
	
		<line clip-path="url(#SVGID_2_)" fill="#939598" stroke="#000000" stroke-width="0.25" stroke-miterlimit="10" x1="119.528" y1="197.705" x2="136.278" y2="173.205"/>
	
		<line clip-path="url(#SVGID_2_)" fill="#939598" stroke="#000000" stroke-width="0.25" stroke-miterlimit="10" x1="120.466" y1="197.768" x2="137.216" y2="173.268"/>
	
		<line clip-path="url(#SVGID_2_)" fill="#939598" stroke="#000000" stroke-width="0.25" stroke-miterlimit="10" x1="121.278" y1="197.768" x2="138.028" y2="173.268"/>
	
		<line clip-path="url(#SVGID_2_)" fill="#939598" stroke="#000000" stroke-width="0.25" stroke-miterlimit="10" x1="121.903" y1="197.893" x2="138.653" y2="173.393"/>
	
		<line clip-path="url(#SVGID_2_)" fill="#939598" stroke="#000000" stroke-width="0.25" stroke-miterlimit="10" x1="259.841" y1="280.205" x2="286.841" y2="279.205"/>
	
		<line clip-path="url(#SVGID_2_)" fill="#939598" stroke="#000000" stroke-width="0.25" stroke-miterlimit="10" x1="259.883" y1="281.246" x2="286.841" y2="279.705"/>
	
		<line clip-path="url(#SVGID_2_)" fill="#939598" stroke="#000000" stroke-width="0.25" stroke-miterlimit="10" x1="259.841" y1="281.996" x2="286.841" y2="280.08"/>
	
		<line clip-path="url(#SVGID_2_)" fill="#939598" stroke="#000000" stroke-width="0.25" stroke-miterlimit="10" x1="259.924" y1="282.705" x2="286.841" y2="280.58"/>
	
		<line clip-path="url(#SVGID_2_)" fill="#939598" stroke="#000000" stroke-width="0.25" stroke-miterlimit="10" x1="259.84" y1="283.579" x2="286.841" y2="280.955"/>
	
		<line clip-path="url(#SVGID_2_)" fill="#939598" stroke="#000000" stroke-width="0.25" stroke-miterlimit="10" x1="259.799" y1="284.163" x2="286.841" y2="281.455"/>
	
		<line clip-path="url(#SVGID_2_)" fill="#939598" stroke="#000000" stroke-width="0.25" stroke-miterlimit="10" x1="259.924" y1="285.038" x2="286.841" y2="281.83"/>
	
		<line clip-path="url(#SVGID_2_)" fill="#939598" stroke="#000000" stroke-width="0.25" stroke-miterlimit="10" x1="259.924" y1="285.746" x2="286.841" y2="282.33"/>
	
		<line clip-path="url(#SVGID_2_)" fill="#939598" stroke="#000000" stroke-width="0.25" stroke-miterlimit="10" x1="259.966" y1="286.538" x2="286.841" y2="282.705"/>
	
		<line clip-path="url(#SVGID_2_)" fill="#939598" stroke="#000000" stroke-width="0.25" stroke-miterlimit="10" x1="259.924" y1="287.538" x2="286.841" y2="283.205"/>
	
		<ellipse clip-path="url(#SVGID_2_)" fill="#E6E7E8" stroke="#000000" stroke-miterlimit="10" cx="79.322" cy="308.273" rx="7.001" ry="6.51"/>
	<path clip-path="url(#SVGID_2_)" stroke="#414042" stroke-miterlimit="10" d="M294.892,200.832l-48.835,15.348
		c0,0-11.625,5.113-14.882-7.908c-3.257-13.021,0.466-21.395,13.953-30.695c13.486-9.301,13.023-11.16,26.51-10.23
		c13.487,0.93,31.162,5.111,57.672-0.932c26.511-6.045,7.903-12.09,43.717-7.44c0,0,34.419-2.79,35.814,5.115
		c1.395,7.905,0,26.511-10.233,26.511c-10.232,0-31.625-6.045-46.044-3.721S294.892,200.832,294.892,200.832z"/>
	<path clip-path="url(#SVGID_2_)" fill="none" stroke="#FFFFFF" stroke-miterlimit="10" d="M253.848,170.542
		c0,0,26.979,7.908,58.139,3.257c31.159-4.652,44.183-8.372,44.183-8.372l26.977-2.324l24.183-1.861"/>
	<path clip-path="url(#SVGID_2_)" fill="#FFFFFF" stroke="#000000" stroke-miterlimit="10" d="M294.66,291.527l-17.319,24.595
		l14.528,0.691c0,0,4.164,0.042,9.472-10.775c4.416-9,15.583-15.75,1.517-15.386L294.66,291.527z"/>
	<path clip-path="url(#SVGID_2_)" stroke="#000000" stroke-width="0.25" stroke-miterlimit="10" d="M290.356,312.456
		c0,0.644-0.624,1.164-1.395,1.164c-0.771,0-1.396-0.521-1.396-1.164c0-0.64,0.624-1.16,1.396-1.16
		C289.732,311.296,290.356,311.816,290.356,312.456z"/>
	<path clip-path="url(#SVGID_2_)" fill="#BCBEC0" stroke="#000000" stroke-width="0.25" stroke-miterlimit="10" d="M324.195,305.243
		c0,0-1.859,8.603,2.559,6.627c4.417-1.976,4.186-5.347,4.186-5.347l2.441-7.442l1.977-4.068c0,0-1.396-7.442-7.675-1.861
		l-1.512,6.628L324.195,305.243z"/>
	<path clip-path="url(#SVGID_2_)" stroke="#000000" stroke-width="0.25" stroke-miterlimit="10" d="M327.591,296.038l6.208,2.042
		l1.559-3.067c0,0-0.892-3.183-2.017-3.35c0,0-1.667-0.917-2.667-0.542c-1.051,0.394-1.916,1.209-1.916,1.209l-1.075,0.821
		l-0.634,2.845L327.591,296.038z"/>
	
		<line clip-path="url(#SVGID_2_)" stroke="#A7A9AC" stroke-width="0.25" stroke-miterlimit="10" x1="378.341" y1="291.956" x2="398.674" y2="298.289"/>
	
		<line clip-path="url(#SVGID_2_)" stroke="#A7A9AC" stroke-width="0.25" stroke-miterlimit="10" x1="376.674" y1="303.956" x2="399.071" y2="299.584"/>
	
		<line clip-path="url(#SVGID_2_)" stroke="#A7A9AC" stroke-width="0.25" stroke-miterlimit="10" x1="393.341" y1="310.623" x2="377.007" y2="305.956"/>
	<path clip-path="url(#SVGID_2_)" fill="#58595B" stroke="#000000" stroke-width="0.25" stroke-miterlimit="10" d="M143.591,123.788
		l7.644-16.113l5.5-11.25l2.333-5.5l0.917-3.667c0,0,0.44-1.054-0.727-1.137s-0.94,0.387-0.94,0.387l-15.333,37.166"/>
	
		<line clip-path="url(#SVGID_2_)" fill="#58595B" stroke="#000000" stroke-width="0.25" stroke-miterlimit="10" x1="425.008" y1="224.289" x2="435.174" y2="235.956"/>
	
		<line clip-path="url(#SVGID_2_)" fill="#58595B" stroke="#000000" stroke-width="0.25" stroke-miterlimit="10" x1="426.008" y1="224.289" x2="436.174" y2="235.956"/>
	
		<line clip-path="url(#SVGID_2_)" fill="#58595B" stroke="#000000" stroke-width="0.25" stroke-miterlimit="10" x1="427.008" y1="224.289" x2="437.174" y2="235.956"/>
	
		<line clip-path="url(#SVGID_2_)" fill="#58595B" stroke="#000000" stroke-width="0.25" stroke-miterlimit="10" x1="428.008" y1="224.289" x2="438.174" y2="235.956"/>
	
		<line clip-path="url(#SVGID_2_)" fill="#58595B" stroke="#000000" stroke-width="0.25" stroke-miterlimit="10" x1="428.8" y1="224.247" x2="438.966" y2="235.914"/>
	
		<line clip-path="url(#SVGID_2_)" fill="#58595B" stroke="#000000" stroke-width="0.25" stroke-miterlimit="10" x1="429.8" y1="224.247" x2="439.966" y2="235.914"/>
	
		<line clip-path="url(#SVGID_2_)" fill="#58595B" stroke="#000000" stroke-width="0.25" stroke-miterlimit="10" x1="430.633" y1="224.206" x2="440.799" y2="235.873"/>
	
		<line clip-path="url(#SVGID_2_)" fill="#58595B" stroke="#000000" stroke-width="0.25" stroke-miterlimit="10" x1="431.633" y1="224.206" x2="441.799" y2="235.873"/>
	
		<line clip-path="url(#SVGID_2_)" fill="none" stroke="#000000" stroke-width="0.5" stroke-miterlimit="10" x1="454.418" y1="226.879" x2="459.65" y2="234.901"/>
	
		<line clip-path="url(#SVGID_2_)" fill="#A7A9AC" stroke="#000000" stroke-width="0.25" stroke-miterlimit="10" x1="179.528" y1="118.893" x2="186.966" y2="113.643"/>
	
		<line clip-path="url(#SVGID_2_)" fill="#D1D3D4" stroke="#000000" stroke-width="0.25" stroke-miterlimit="10" x1="207.966" y1="110.205" x2="211.716" y2="111.705"/>
	
		<line clip-path="url(#SVGID_2_)" fill="#D1D3D4" stroke="#000000" stroke-width="0.25" stroke-miterlimit="10" x1="206.091" y1="112.33" x2="210.091" y2="113.455"/>
	
		<line clip-path="url(#SVGID_2_)" fill="#D1D3D4" stroke="#000000" stroke-width="0.25" stroke-miterlimit="10" x1="210.091" y1="115.33" x2="205.711" y2="115.023"/>
	
		<line clip-path="url(#SVGID_2_)" fill="#D1D3D4" stroke="#000000" stroke-width="0.25" stroke-miterlimit="10" x1="210.591" y1="116.83" x2="206.716" y2="117.205"/>
	
		<line clip-path="url(#SVGID_2_)" fill="#D1D3D4" stroke="#000000" stroke-width="0.25" stroke-miterlimit="10" x1="211.341" y1="117.955" x2="208.716" y2="118.58"/>
</g>
</svg>
