<?xml version="1.0" encoding="utf-8"?>
<!-- Generator: Adobe Illustrator 16.0.3, SVG Export Plug-In . SVG Version: 6.00 Build 0)  -->
<!DOCTYPE svg PUBLIC "-//W3C//DTD SVG 1.1//EN" "http://www.w3.org/Graphics/SVG/1.1/DTD/svg11.dtd">
<svg version="1.1" id="Layer_1" xmlns="http://www.w3.org/2000/svg" xmlns:xlink="http://www.w3.org/1999/xlink" x="0px" y="0px"
	 width="128px" height="128px" viewBox="0 0 128 128" enable-background="new 0 0 128 128" xml:space="preserve">
<g>
	<defs>
		<rect id="SVGID_1_" x="11.333" width="104" height="128"/>
	</defs>
	<clipPath id="SVGID_2_">
		<use xlink:href="#SVGID_1_"  overflow="visible"/>
	</clipPath>
	<path clip-path="url(#SVGID_2_)" fill="#414042" stroke="#000000" stroke-width="0.5" stroke-miterlimit="10" d="M75.663,123.371
		c3.159-1.08,3.159-2.452,3.284-6.732c0,0,2.451-1.87,3.698-5.485s2.659-9.35,2.659-16.415s-1.746-12.094-1.746-12.094h1.705
		c0,0,0.623-1.662-0.084-2.743l-2.285-0.124c0,0-0.041-2.785-2.908-3.574l-0.085-33.412c0,0,0.831-4.364,1.206-4.904l6.607,2.202
		l1.953-1.787l8.395,3.74c0,0,1.664-0.581,1.123-2.784l-8.729-3.616v-2.369h1.996l4.611-2.618c0,0,1.871,2.867,7.855,1.87
		c5.984-0.998,2.73-5.24-0.137-5.615c-2.867-0.374-7.363,0.16-7.842,2.124L85.098,30.78l-1.996-1.122v-1.995
		c0,0-4.113-5.486-5.982-6.109v-2.369c0,0,0.996-3.117-5.112-3.241c0,0,0.747-9.974-2.244-11.47
		c-2.993-1.496-9.725-0.748-10.972,0.623c-1.247,1.372-3.117,11.221-2.868,15.459c0,0-5.485,3.491-7.48,6.982v1.87l-1.496,0.249
		l-5.735-0.997c0,0-1.746-3.491-7.106-2.245c-5.361,1.247-4.281,5.112-1.746,5.777c2.535,0.665,7.356-0.291,7.356-0.291
		s3.823,1.496,4.737,1.62c0.914,0.125,2.328-0.041,2.328-0.041s-0.417,1.829,0.208,2.577l-9.974,4.073c0,0-0.499,1.994,0.956,2.909
		l9.268-3.866l0.623,40.104c0,0-0.249,2.369-1.579,5.361c-1.33,2.992-1.621,8.894-1.455,13.797
		c0.166,4.904,0.582,10.764,3.865,15.335c0,0,1.496,3.865,2.743,4.239c1.246,0.374,3.656,0.914,4.529,0.374
		c0,0,0.666,5.527,2.452,5.776C60.204,124.41,72.504,124.451,75.663,123.371z M96.691,29.533v0.811c0,0-2.992,1.807-5.111,1.496
		c-2.119-0.312-2.119-0.873-2.119-0.873L96.691,29.533z M40.339,31.466c2.051-0.671,1.185-2.119,1.185-2.119l4.987,0.998v1.371
		c0,0-1.123,0.499-2.306,0.561C43.02,32.339,40.339,31.466,40.339,31.466z"/>
	<polygon clip-path="url(#SVGID_2_)" stroke="#000000" stroke-width="0.25" stroke-miterlimit="10" points="60,45.833 
		59.251,69.087 65.834,69.5 66.334,43.667 	"/>
	<polygon clip-path="url(#SVGID_2_)" fill="#808285" stroke="#6D6E71" stroke-width="0.25" stroke-miterlimit="10" points="
		62.959,44.944 59.251,69.087 73.914,69.436 70.814,44.711 	"/>
	<path clip-path="url(#SVGID_2_)" fill="#FFFFFF" stroke="#000000" stroke-width="0.25" stroke-miterlimit="10" d="M50.947,38.602
		c0,0-0.818,3.464-0.096,5.1c0.722,1.636-0.048,2.838,5.917,2.982s17.656,0.145,20.207-0.577c2.55-0.722,2.838-3.56,3.031-4.619
		c0.191-1.059,1.105-3.945,1.105-3.945l-0.288-1.443L63.456,34.85L53.16,36.197L50.947,38.602z"/>
	<path clip-path="url(#SVGID_2_)" fill="#FFFFFF" stroke="#000000" stroke-miterlimit="10" d="M58.153,9.399
		c0,0,0.722-4.282,3.031-4.956c2.309-0.673,9.718-2.165,11.113,1.973C73.692,10.554,75,18.833,75,18.833L63.445,19.31l-5.966,1.636
		c0,0-0.15,0.57-0.556-0.389C56.517,19.598,58.153,9.399,58.153,9.399z"/>
	<path clip-path="url(#SVGID_2_)" fill="#FFFFFF" stroke="#000000" stroke-miterlimit="10" d="M46.521,29.557l0.048,5.437
		l16.887-3.319l22.66,2.983l4.342-1.383l-0.18-1.729l-0.816-0.577l-4.549-0.208l-1.811-1.102v-1.995c0,0-4.299-5.179-5.646-5.804
		c-1.347-0.625-13.422-2.694-13.422-2.694l-2.502-0.722c0,0-4.625,1.58-5.608,2.113c-0.983,0.533-7.48,6.982-7.48,6.982l0.05,1.682
		L46.521,29.557z"/>
	<path clip-path="url(#SVGID_2_)" fill="#FFFFFF" stroke="#000000" stroke-width="0.5" stroke-miterlimit="10" d="M46.989,36.058
		l-9.974,4.073c0,0-0.506,1.847,0.956,2.909l10.378-4.326l1.155,1.668l6.287-1.924v-1.412c0,0,1.989-1.186,6.094-0.753
		c4.106,0.433,4.372,1.843,7.286,1.908c2.914,0.065,4.004-1.218,5.158-1.475c1.154-0.257,5.196-0.45,6.672,0.127l0.107,1.033
		l6.607,2.202l1.953-1.787l8.395,3.74c0,0,1.859-1.084,1.123-2.784l-8.729-3.616l-0.18-4.098l-5.18-0.765
		c0,0-7.525,0.568-7.818-6.178c-0.293-6.747,1.192-7.757-5.272-8.658c-6.466-0.901-10.443,0.19-10.507,2.692
		c-0.064,2.501,1.988,10.444-6.864,11.38l-8.125,1.699C46.511,31.715,46.206,35.52,46.989,36.058z"/>
	<path clip-path="url(#SVGID_2_)" fill="#6D6E71" stroke="#000000" stroke-width="0.5" stroke-miterlimit="10" d="M63.552,26.911
		c0,0,0.129-3.72,3.593-3.72c3.465,0,6.543,0,6.543,0s2.053-0.128,1.795,3.72c-0.255,3.849-1.132,10.391-5.953,10.648
		C64.707,37.816,63.552,26.911,63.552,26.911z"/>
	<linearGradient id="SVGID_3_" gradientUnits="userSpaceOnUse" x1="64.3223" y1="25.6982" x2="69.5303" y2="25.6982">
		<stop  offset="0" style="stop-color:#2484C6"/>
		<stop  offset="1" style="stop-color:#2484C6;stop-opacity:0"/>
	</linearGradient>
	<path clip-path="url(#SVGID_2_)" fill="url(#SVGID_3_)" stroke="#000000" stroke-width="0.5" stroke-miterlimit="10" d="
		M64.322,26.382c0,0,0.385-2.838,3.512-2.55l1.695,0.241c0,0,0.133,3.416-3.332,3.512C66.197,27.585,64.661,27.564,64.322,26.382z"
		/>
	<linearGradient id="SVGID_4_" gradientUnits="userSpaceOnUse" x1="65.3213" y1="30.0166" x2="74.9971" y2="30.0166">
		<stop  offset="0" style="stop-color:#FFFFFF"/>
		<stop  offset="1" style="stop-color:#000000"/>
	</linearGradient>
	<path clip-path="url(#SVGID_2_)" fill="url(#SVGID_4_)" stroke="#000000" stroke-width="0.5" stroke-miterlimit="10" d="
		M66.926,29.461c0,0,3.506-2.405,5.237-2.935s3.224-0.481,2.743,2.213c-0.482,2.694-4.523,5.34-7.361,5.004
		c-2.838-0.337-2.262-1.732-1.973-2.454C65.861,30.568,66.926,29.461,66.926,29.461z"/>
	<path clip-path="url(#SVGID_2_)" stroke="#000000" stroke-width="0.5" stroke-miterlimit="10" d="M68.508,34.994h2.693
		c0,0-0.24,1.299-1.347,1.299S68.508,34.994,68.508,34.994z"/>
	<path clip-path="url(#SVGID_2_)" fill="#FFFFFF" stroke="#000000" stroke-width="0.5" stroke-miterlimit="10" d="M33.676,26.525
		c0,0-0.939,4.187,0,5.868l1.442,0.029c0,0-0.529-5.896,0.818-6.161L33.676,26.525z"/>
	<polygon clip-path="url(#SVGID_2_)" fill="#FFFFFF" stroke="#000000" stroke-width="0.5" stroke-miterlimit="10" points="
		36.802,29.342 36.802,30.017 40.122,30.377 39.929,29.859 	"/>
	<path clip-path="url(#SVGID_2_)" fill="#FFFFFF" stroke="#000000" stroke-miterlimit="10" d="M47.771,80.025l1.251-2.79
		c0,0,4.907-2.213,11.546-2.213s12.316-0.771,12.316-0.771l1.539,1.54c0,0,3.225-0.24,5.87,0.529s2.601,3.456,2.601,3.456
		l1.488,5.877c0,0,2.213,12.269-0.047,19.581c-2.262,7.313-1.779,6.164-1.779,6.164s-1.156,3.314-4.188,3.747
		c-3.031,0.434-9.236,2.405-9.236,2.405l-11.595,1.443l-1.732-0.528l-4.233-1.348c0,0-1.251,0.481-2.165-1.299
		s-1.01-2.357-1.01-2.357s-2.165-4.09-2.502-6.063c-0.337-1.972-1.491-11.354-1.059-15.539c0.433-4.186,1.396-6.832,1.876-8.372
		C47.194,81.95,47.771,80.025,47.771,80.025z"/>
	<polygon clip-path="url(#SVGID_2_)" fill="#FFFFFF" stroke="#000000" stroke-width="0.5" stroke-miterlimit="10" points="
		98.287,30.017 98.287,30.712 101.799,30.017 101.799,29.605 	"/>
	<path clip-path="url(#SVGID_2_)" fill="#FFFFFF" stroke="#000000" stroke-width="0.5" stroke-miterlimit="10" d="M102.666,26.804
		c0,0,0.914,1.411,0.914,3.213s-0.244,2.693-0.244,2.693l1.885-0.24c0,0,0.697-5.462-0.438-5.559S102.666,26.804,102.666,26.804z"/>
	<path clip-path="url(#SVGID_2_)" fill="#ED1C24" stroke="#000000" stroke-width="0.5" stroke-miterlimit="10" d="M49.311,113.559
		c0,0,0.854,4.018,1.888,4.343c1.035,0.326,3.529,1.026,4.765,0.483l-0.303-3.383C55.662,115.002,50.225,114.377,49.311,113.559z"/>
	<path clip-path="url(#SVGID_2_)" fill="#ED1C24" stroke="#000000" stroke-width="0.5" stroke-miterlimit="10" d="M78.178,113.318
		v3.608c0,0,3.098-1.2,4.379-5.527C82.557,111.399,81.545,112.837,78.178,113.318z"/>
	<path clip-path="url(#SVGID_2_)" stroke="#FFFFFF" stroke-width="0.5" stroke-miterlimit="10" d="M55.964,77.717
		c0,0,3.354-12.316,5.567-14.626c2.213-2.31,7.891-1.925,10.969,0c0,0,4.426,10.296,5.1,14.626
		c0.674,4.329,2.84,12.412,2.768,19.918c-0.073,7.505-1.132,17.544-1.449,20.696c-0.316,3.152,0.762,5.518-4.169,6.045
		c-4.929,0.526-15.033,2.265-17.492-0.499c-2.461-2.765-3.231-28.648-3.135-30.861S55.964,77.717,55.964,77.717z"/>
	<polygon clip-path="url(#SVGID_2_)" fill="#58595B" stroke="#000000" stroke-width="0.5" stroke-miterlimit="10" points="
		51.043,95.902 51.043,98.308 54.892,98.308 54.892,96.191 	"/>
	
		<ellipse clip-path="url(#SVGID_2_)" fill="#E6E7E8" stroke="#000000" stroke-width="0.5" stroke-miterlimit="10" cx="52.967" cy="97.105" rx="0.738" ry="0.77"/>
	<polygon clip-path="url(#SVGID_2_)" stroke="#000000" stroke-width="0.5" stroke-miterlimit="10" points="82.895,79.777 
		83.559,82.645 85.264,82.645 85.439,80.521 85.18,79.901 	"/>
	
		<rect x="48.349" y="105.524" clip-path="url(#SVGID_2_)" fill="#939598" stroke="#000000" stroke-width="0.5" stroke-miterlimit="10" width="6.928" height="0.866"/>
	<polygon clip-path="url(#SVGID_2_)" fill="#A7A9AC" stroke="#000000" stroke-width="0.5" stroke-miterlimit="10" points="
		48.349,87.146 48.349,88.108 54.892,88.108 55.277,87.146 	"/>
	<path clip-path="url(#SVGID_2_)" stroke="#000000" stroke-width="0.25" stroke-miterlimit="10" d="M47.146,36.148l1.203,2.566
		L37.97,43.041c0,0-1.609-0.803-0.956-2.909L47.146,36.148z"/>
	<path clip-path="url(#SVGID_2_)" fill="none" stroke="#000000" stroke-width="0.25" stroke-miterlimit="10" d="M53.448,19.069"/>
	<path clip-path="url(#SVGID_2_)" stroke="#000000" stroke-width="0.25" stroke-miterlimit="10" d="M90.457,35.643l-0.789,2.66
		l8.234,3.764c0,0,2.18-0.997,1.283-2.808L90.457,35.643z"/>
	<path clip-path="url(#SVGID_2_)" stroke="#000000" stroke-width="0.25" stroke-miterlimit="10" d="M56.383,31.145l-9.286-1.443
		l-2.213-0.385l-0.289,0.722l11.643,1.972c0,0,0.866,1.492,1.203-0.096C57.778,30.327,56.383,31.145,56.383,31.145z"/>
	<path clip-path="url(#SVGID_2_)" stroke="#000000" stroke-width="0.25" stroke-miterlimit="10" d="M82.267,31.289l6.157-1.01
		l1.541,0.529l-7.506,1.347c0,0-0.192,1.684-1.443,0.145S82.267,31.289,82.267,31.289z"/>
	<polygon clip-path="url(#SVGID_2_)" stroke="#000000" stroke-width="0.25" stroke-miterlimit="10" points="48.349,38.714 
		55.469,36.101 55.806,38.266 49.696,40.526 	"/>
	<polygon clip-path="url(#SVGID_2_)" stroke="#000000" stroke-width="0.25" stroke-miterlimit="10" points="81.016,36.678 
		82.604,36.629 82.939,35.956 89.436,38.41 87.715,40.089 81.256,37.929 	"/>
	<path clip-path="url(#SVGID_2_)" fill="none" stroke="#A7A9AC" stroke-width="0.5" stroke-miterlimit="10" d="M60.583,102.708
		c0,0,2.25,20.083,1.583,22.125"/>
	<path clip-path="url(#SVGID_2_)" fill="none" stroke="#A7A9AC" stroke-width="0.5" stroke-miterlimit="10" d="M73.292,101.667
		c0,0-0.625,19.951,1.042,22.667"/>
	<path clip-path="url(#SVGID_2_)" fill="none" stroke="#D1D3D4" stroke-width="0.5" stroke-miterlimit="10" d="M59.833,66.5
		c0,0,2.167,23.333,0.833,27"/>
	<path clip-path="url(#SVGID_2_)" fill="none" stroke="#D1D3D4" stroke-width="0.5" stroke-miterlimit="10" d="M73.667,67
		c0,0-2.666,21.667-1.333,25.167"/>
</g>
</svg>
