<?xml version="1.0" encoding="utf-8"?>
<!-- Generator: Adobe Illustrator 16.0.3, SVG Export Plug-In . SVG Version: 6.00 Build 0)  -->
<!DOCTYPE svg PUBLIC "-//W3C//DTD SVG 1.1//EN" "http://www.w3.org/Graphics/SVG/1.1/DTD/svg11.dtd">
<svg version="1.1" id="Layer_1" xmlns="http://www.w3.org/2000/svg" xmlns:xlink="http://www.w3.org/1999/xlink" x="0px" y="0px"
	 width="500px" height="400px" viewBox="0 0 500 400" enable-background="new 0 0 500 400" xml:space="preserve">
<g>
	<defs>
		<rect id="SVGID_1_" y="83" width="497.5" height="227.5"/>
	</defs>
	<clipPath id="SVGID_2_">
		<use xlink:href="#SVGID_1_"  overflow="visible"/>
	</clipPath>
	<path clip-path="url(#SVGID_2_)" fill="#414042" stroke="#414042" stroke-width="0.25" stroke-miterlimit="10" d="M141.091,251.955
		c0,0-1-27.25-9.75-35.25s-16-14.25-35.25-14s-36,9.75-40.25,23.25s-3.75,26.75-3.75,26.75l1.386,0.924l-5.136,0.326l5,5.75
		l-0.25,2.25l11-4.25v-2.385l10-35.99l43-1.375l14.75,33.5l4.5-2.5l-0.25,3.25L141.091,251.955z"/>
	<path clip-path="url(#SVGID_2_)" fill="#414042" stroke="#000000" stroke-width="0.25" stroke-miterlimit="10" d="M344.841,250.955
		l17-0.5l6.75-29.75l25.25-8.5l23.25,26.25l7,1.25v7.25l2.25,1l7-8.75l-11-26l-21.25-11.5c0,0-18.75-4.75-32.25,3.5s-21,25-21,25
		l-2.25,15L344.841,250.955z"/>
	<path clip-path="url(#SVGID_2_)" fill="#2E3192" stroke="#000000" stroke-miterlimit="10" d="M422.841,156.955
		c0,0,14.625,5,15.625,5.625s8,3.875,12.625,3.625s11.75,0.25,11.75,0.25l7.5-0.063c0,0,0.5-2.438-1.625-5.563
		s-35.5-4.5-38.625-4.875s-3.125,1-3.125,1H422.841z"/>
	<path clip-path="url(#SVGID_2_)" fill="#FFFFFF" stroke="#000000" stroke-miterlimit="10" d="M355.403,129.143
		c0,0-1.438,3.375,2.313,4.438s67.5,24.063,67.5,24.063s8.375,0.438,5.5-1.125s-3.563-1.688-3.563-1.688L355.403,129.143z"/>
	<path clip-path="url(#SVGID_2_)" fill="#FFFFFF" stroke="#000000" stroke-miterlimit="10" d="M137.258,165.122
		c0,0-8,6.418-7.25,7.334s2.584,2.916,9.834,0.333s30-15.833,30-15.833l18.583-10.083l19.667-9.917l1.667-1.417l-5.084-2.75
		L137.258,165.122z"/>
	<path clip-path="url(#SVGID_2_)" fill="#00AEEF" stroke="#000000" stroke-miterlimit="10" d="M469.841,165.83l4.5,10.5l1.875,10.25
		l3.125,6.5l6.625,13.125c0,0,1.625,28.875-12.875,32.75s-46.375,9.625-46.375,9.625s0.75-11.125,0.375-13.625s-1-10.25-8.375-19.75
		s-17.75-13.25-31.875-12.875s-28.5,8.75-32.25,18.375s-6.625,9.625-6.75,28.625v4.875l-66.625-0.125l-96,2l-47.25,1.125
		c0,0,0.5-10.5,0.125-12.875s-1.125-15.875-11.25-27.125s-24.125-15.5-41.125-12s-27.75,18.375-29.625,32.375s1.5,19.125,1.5,19.125
		s-17-1-20.875-1.875s-19.875-5.125-20.5-14s-1-22.5,1.25-28.625s5.625-10.25,5.625-10.25l-0.375-2.25l3.25-6.875
		c0,0,3.625-7.75,18.5-11.375s39.75-8.25,39.75-8.25l43.875-6.25l-1.5,4.375l2.75,0.875c0,0,5.875,2,14.125-2.125
		s56-30.625,60.375-32.5s17.125-5.875,29.5-8.125s24.125-2.5,26.25-2.5s48.75-0.5,51.25-0.5s25.375,0,45.625,6.625
		s72.875,25.375,72.875,25.375l17.625,6.5L469.841,165.83z"/>
	<path clip-path="url(#SVGID_2_)" fill="#FFFFFF" stroke="#000000" stroke-miterlimit="10" d="M173.341,162.456
		c0,0,12.166-9,17.833-11.667s20.999-10.666,29.833-13.333s14.5-3.667,25-4.667s24.667-0.833,24.667-0.833s35.667,0.167,48.167,2
		s23,4.167,48.833,22.167l11.333,9.5l-107.666,4.499l-24.5,1l-72.667,4L173.341,162.456z"/>
	<polygon clip-path="url(#SVGID_2_)" points="339.592,138.955 339.092,167.413 341.342,167.205 341.342,139.788 	"/>
	<path clip-path="url(#SVGID_2_)" fill="#0087CD" stroke="#000000" stroke-miterlimit="10" d="M253.841,186.122
		c0,2.555-2.07,3.333-4.625,3.333h-2.75c-2.555,0-4.375-0.361-4.375-2.916v-2.917c0-2.555,1.82-3.417,4.375-3.417h2.75
		c2.555,0,4.625,1.112,4.625,3.667V186.122z"/>
	<path clip-path="url(#SVGID_2_)" fill="#0087CD" stroke="#000000" stroke-miterlimit="10" d="M369.341,180.122
		c0,2.555-2.07,3.333-4.625,3.333h-2.75c-2.555,0-4.625-0.499-4.709-2.749l0.084-2.917c0-2.555,2.07-3.584,4.625-3.584h2.75
		c2.555,0,4.625,1.112,4.625,3.667V180.122z"/>
	<path clip-path="url(#SVGID_2_)" fill="#2E3192" stroke="#000000" stroke-miterlimit="10" d="M424.591,180.08
		c0,4.487-0.097,8.125-4.584,8.125h-11.666c-4.487,0-4.25-3.638-4.25-8.125l0,0c0-4.487-0.404-8.125,4.083-8.125h11.583
		C424.244,171.955,424.591,175.593,424.591,180.08L424.591,180.08z"/>
	<path clip-path="url(#SVGID_2_)" fill="#FFFFFF" stroke="#000000" stroke-miterlimit="10" d="M475.452,188.955
		c0,0-12.462-0.125-20.556-0.083c0,0-12.234-13.875-8.295-13.875l25.323,0.001c3.939,0,4.088,2.582,4.85,5.457
		C477.216,182.123,477.414,188.997,475.452,188.955z"/>
	<path clip-path="url(#SVGID_2_)" fill="#7BB7E4" stroke="#000000" stroke-miterlimit="10" d="M374.403,179.705l-19.75,0.625
		c-0.651,0-3.188-0.661-3.188-1.313c0-0.875,3.092-1.688,3.875-1.688l20.125-0.75c0.783,0,1.405,0.832,1.125,1.563
		C376.351,178.771,375.187,179.705,374.403,179.705z"/>
	<path clip-path="url(#SVGID_2_)" fill="#BE1E2D" stroke="#000000" stroke-miterlimit="10" d="M475.49,188.913
		c0,0-12.462-0.084-20.555-0.042l-6.17-7.625c0,0,4.069-0.083,4.928-0.083l21.517-0.333c0.32,0.041,1.804-0.25,1.883,1.458
		C477.174,184.017,477.453,188.955,475.49,188.913z"/>
	<path clip-path="url(#SVGID_2_)" fill="#7BB7E4" stroke="#000000" stroke-miterlimit="10" d="M258.778,185.83l-19.75,0.625
		c-0.651,0-3.188-0.661-3.188-1.313c0-0.875,3.592-1.875,4.375-1.875l19.313-0.75c0.783,0,1.718,1.02,1.438,1.75
		C260.726,184.896,259.562,185.83,258.778,185.83z"/>
	<ellipse clip-path="url(#SVGID_2_)" stroke="#000000" stroke-miterlimit="10" cx="253.872" cy="184.174" rx="1.469" ry="1.094"/>
	<path clip-path="url(#SVGID_2_)" fill="#1C75BC" stroke="#000000" stroke-miterlimit="10" d="M15.935,234.268
		c0,0,5.906-0.219,7.438,0.5s4.563,2.469,5.344,5.156s2.063,6.969-3.594,4.813s-8.938-4.5-8.938-4.5L15.935,234.268z"/>
	<path clip-path="url(#SVGID_2_)" fill="#414042" stroke="#000000" stroke-miterlimit="10" d="M25.997,236.518l-2.75,7.5
		c0,0,4.656,2.375,5.75,0.719S28.81,238.518,25.997,236.518z"/>
	<path clip-path="url(#SVGID_2_)" fill="#2E3192" stroke="#000000" stroke-miterlimit="10" d="M204.466,132.955l5.293,2.584
		l18.333-4.75l18.416-2.667l28.167-0.916l38.167,0.5l18.666,1.166l19,3.25l6.646,1.208l-1.625-4.125c0,0-12.103-2.417-24.437-3.833
		s-45.917-1.749-53.417-1.916s-41.167,2.332-51,3.666S204.466,132.955,204.466,132.955z"/>
	<path clip-path="url(#SVGID_2_)" fill="#FFFFFF" stroke="#000000" stroke-miterlimit="10" d="M22.778,210.205
		c0,0,4.438-10.438,10.813-12.313s16.563-2.875,16.563-2.875l7.563-0.063l-12.375,11c0,0-15.625,1.75-18.75,3.125
		S22.778,210.205,22.778,210.205z"/>
	<path clip-path="url(#SVGID_2_)" fill="#F7941E" stroke="#000000" stroke-miterlimit="10" d="M62.528,194.83l-6.75,0.188
		l-13.188,11.125c0,0,4.125,0.125,7.563-0.375s12-8.75,12-8.75S64.028,194.768,62.528,194.83z"/>
	<path clip-path="url(#SVGID_2_)" fill="none" stroke="#000000" stroke-miterlimit="10" d="M149.674,176.789l-5.166,3.833
		c0,0-8.333,18.5-1.5,47.167l4.666,20.833l118.667-2.833l62-2.667c0,0,9.666,1,15.666-13.333s15.001-23.333,20.834-26.833
		s20.166-12,20.333-25.167s-5.5-17.334-27.5-30.5s-28.167-14.666-39.667-15.5c-15.078-1.094-38.623-1.785-46.833-1.833
		c-14.55-0.085-38.333,0.666-57.833,8.333s-32.167,16.167-32.167,16.167L149.674,176.789z"/>
	<polygon clip-path="url(#SVGID_2_)" stroke="#000000" stroke-miterlimit="10" points="155.007,175.456 165.007,167.622 
		171.341,173.289 175.841,173.789 176.425,175.123 	"/>
	<path clip-path="url(#SVGID_2_)" fill="#2E3192" stroke="#000000" stroke-miterlimit="10" d="M130.591,172.58
		c0,0-14.375,6.375-17,9.125c0,0-44.875,4-55.75,7.625s-10.25,5.625-10.25,5.625l-15.125,3.25c0,0,0.5-1.875-0.875-3.875
		s-3.75-3.5-3.25-4.625s6.5-5.25,9.375-6.25s31.625-7.625,31.625-7.625l46-7.25l8.584-1.124l0.416,1.249l4.5,2.5L130.591,172.58z"/>
	<path clip-path="url(#SVGID_2_)" fill="#FFFFFF" stroke="#000000" stroke-miterlimit="10" d="M22.716,199.705l4.25-1.875l-0.5-6.25
		C26.466,191.58,22.841,196.33,22.716,199.705z"/>
	<path clip-path="url(#SVGID_2_)" fill="none" stroke="#000000" stroke-miterlimit="10" d="M266.341,245.789l-0.25-2.334
		c-0.875-4.75-1.25-14.5-1.75-18.25s-1.25-12-1.25-17.75s0.75-17.5,0.75-19.5l1.916-17.249"/>
	<polyline clip-path="url(#SVGID_2_)" fill="none" stroke="#000000" stroke-miterlimit="10" points="51.216,205.705 55.216,208.955 
		71.716,209.33 	"/>
	
		<line clip-path="url(#SVGID_2_)" fill="none" stroke="#000000" stroke-miterlimit="10" x1="138.257" y1="248.788" x2="148.174" y2="248.538"/>
	
		<line clip-path="url(#SVGID_2_)" fill="none" stroke="#000000" stroke-miterlimit="10" x1="340.424" y1="235.788" x2="348.674" y2="236.122"/>
	<path clip-path="url(#SVGID_2_)" fill="none" stroke="#000000" stroke-miterlimit="10" d="M416.258,206.538
		c0,0,31.414-2.271,37.166-2.75c3-0.25,15.334,0.251,6.584-8.916l-4.749-6"/>
	<polyline clip-path="url(#SVGID_2_)" fill="none" stroke="#000000" stroke-miterlimit="10" points="142.841,170.455 
		143.174,171.372 150.174,176.205 	"/>
	<polyline clip-path="url(#SVGID_2_)" fill="none" stroke="#000000" stroke-miterlimit="10" points="113.591,181.705 
		145.674,179.872 265.674,173.205 318.424,170.872 	"/>
	
		<line clip-path="url(#SVGID_2_)" fill="none" stroke="#000000" stroke-miterlimit="10" x1="386.841" y1="168.622" x2="449.591" y2="166.538"/>
	<polygon clip-path="url(#SVGID_2_)" points="264.925,132.205 256.967,170.872 274.342,170.205 277.133,131.747 265.217,131.705 	
		"/>
	<path clip-path="url(#SVGID_2_)" fill="none" stroke="#000000" stroke-miterlimit="10" d="M270.674,131.956"/>
	
		<line clip-path="url(#SVGID_2_)" fill="none" stroke="#FFFFFF" stroke-miterlimit="10" x1="270.674" y1="131.622" x2="265.757" y2="170.539"/>
	<g clip-path="url(#SVGID_2_)">
		<g>
			
				<rect x="120.846" y="184.35" transform="matrix(0.9998 -0.0185 0.0185 0.9998 -3.4319 2.3086)" fill="#C49A6C" stroke="#000000" stroke-width="0.01" stroke-miterlimit="10" width="4.166" height="4.195"/>
			<polygon fill="#A7A9AC" stroke="#000000" stroke-width="0.01" stroke-miterlimit="10" points="121.873,188.566 121.488,188.57 
				121.409,184.375 121.794,184.371 			"/>
			
				<rect x="120.852" y="186.626" transform="matrix(0.9998 -0.019 0.019 0.9998 -3.5295 2.3716)" fill="#BCBEC0" stroke="#000000" stroke-width="0.01" stroke-miterlimit="10" width="4.212" height="0.355"/>
			
				<rect x="122.441" y="184.712" transform="matrix(0.9998 -0.0183 0.0183 0.9998 -3.3643 2.2851)" fill="#FFFFFF" stroke="#000000" stroke-width="0.01" stroke-miterlimit="10" width="2.086" height="1.412"/>
		</g>
		<g>
			<path fill="#27AAE1" stroke="#BCBEC0" stroke-width="0.1" stroke-miterlimit="10" d="M124.825,187.788
				c-0.124,0.131-0.567,0.54-0.737,0.539c-0.052,0-0.089-0.04-0.089-0.091c0-0.102,0.153-0.293,0.224-0.367
				c0.112-0.128,0.219-0.187,0.379-0.23l0.429-0.455l-0.549,0.044c-0.025,0.005-0.177,0.005-0.187-0.047
				c-0.013-0.103,0.001-0.19,0.097-0.254c0.112-0.072,0.354-0.15,0.493-0.177l0.561-0.108c0.121-0.161,0.414-0.667,0.414-0.849
				c-0.001-0.07-0.055-0.067-0.116-0.066c-0.008,0-0.025-0.016-0.305,0.03c-0.421,0.071-0.841,0.177-1.229,0.347l0.008,0.008
				l0.19-0.005c0.025,0.001,0.068-0.003,0.069,0.032c0,0.044-0.08,0.059-0.111,0.063l-0.423,0.134
				c-0.248,0.077-0.281,0.032-0.283-0.033c0.002-0.105,0.209-0.473,0.282-0.561c0.141-0.181,0.338-0.22,0.553-0.269
				c0.958-0.224,1.233-0.235,1.448-0.236c0.132-0.001,0.377,0.014,0.379,0.194c0,0.27-0.406,0.989-0.572,1.231l0.244,0.04
				l-0.145,0.236c-0.029,0.047-0.052,0.094-0.098,0.116c-0.079,0.038-0.216,0.053-0.301,0.069L124.825,187.788z"/>
			<path fill="#27AAE1" stroke="#BCBEC0" stroke-width="0.1" stroke-miterlimit="10" d="M126.3,186.955
				c-0.128,0.201-0.282,0.298-0.439,0.455l-0.013-0.161c0.093-0.077,0.17-0.169,0.24-0.268c-0.078-0.008-0.099-0.036-0.099-0.114
				c-0.002-0.264,0.371-0.527,0.459-0.528c0.036,0,0.066,0.03,0.066,0.064c-0.001,0.036-0.013,0.066-0.025,0.102
				c0.344-0.05,0.544-0.094,0.581-0.051c0.058,0.069,0.082,0.13,0.089,0.195c0.002,0.112-0.068,0.168-0.152,0.237
				c-0.106,0.093-0.284,0.271-0.283,0.419c-0.001,0.06,0.059,0.102,0.113,0.102c0.155-0.002,0.387-0.239,0.506-0.33l0.025,0.136
				c-0.137,0.156-0.557,0.564-0.766,0.565c-0.153-0.001-0.249-0.142-0.249-0.281c-0.001-0.251,0.188-0.442,0.333-0.621l-0.004-0.005
				L126.3,186.955z"/>
			<path fill="#27AAE1" stroke="#BCBEC0" stroke-width="0.1" stroke-miterlimit="10" d="M127.92,187.495
				c-0.067,0.056-0.302,0.249-0.387,0.248c-0.103,0.001-0.315-0.241-0.323-0.432c-0.016-0.457,0.935-0.928,1.361-0.942
				c0.168-0.004,0.238,0.132,0.238,0.175c0.001,0.044-0.096,0.081-0.13,0.093c0.071,0.029,0.108,0.068,0.107,0.15
				c0,0.116-0.319,0.375-0.317,0.547c0,0.062,0.055,0.088,0.115,0.088c0.153-0.003,0.361-0.188,0.518-0.296l0.03,0.135
				c-0.157,0.182-0.647,0.574-0.826,0.572c-0.119,0.003-0.178-0.084-0.177-0.19c-0.001-0.118,0.088-0.313,0.135-0.412l-0.008-0.006
				L127.92,187.495z M127.476,187.402c0.006,0.02,0.021,0.084,0.074,0.073c0.074-0.015,0.188-0.004,0.91-0.74l-0.005-0.005
				C127.583,186.998,127.478,187.222,127.476,187.402z"/>
			<path fill="#27AAE1" stroke="#BCBEC0" stroke-width="0.1" stroke-miterlimit="10" d="M129.517,187.052
				c-0.081,0.059-0.147,0.113-0.148,0.217c0.002,0.084,0.091,0.197,0.279,0.197c0.277,0,0.598-0.26,0.809-0.423l0.046,0.142
				c-0.224,0.238-0.633,0.603-0.981,0.604c-0.282,0.001-0.418-0.263-0.419-0.531c-0.001-0.311,0.11-0.425,0.348-0.604
				c0.163-0.125,0.515-0.324,0.72-0.326c0.113,0.001,0.165,0.057,0.165,0.168c0,0.203-0.287,0.486-0.386,0.486
				c-0.085,0-0.121-0.092-0.125-0.16L129.517,187.052z"/>
			<path fill="#27AAE1" stroke="#BCBEC0" stroke-width="0.1" stroke-miterlimit="10" d="M131.701,186.207
				c-0.174,0.347-0.201,0.483-0.604,0.459c-0.125,0.161-0.334,0.463-0.331,0.683c-0.001,0.08,0.023,0.128,0.108,0.129
				c0.117,0,0.25-0.111,0.631-0.384l0.017,0.161c-0.214,0.198-0.608,0.592-0.92,0.592c-0.143,0.001-0.231-0.097-0.232-0.245
				c-0.001-0.121,0.048-0.259,0.094-0.366l-0.008-0.006l-0.186,0.15l-0.04-0.14c0.219-0.169,0.419-0.355,0.556-0.589
				c-0.225,0.002-0.156-0.013-0.35,0.016l0.041-0.065c0.197-0.322,0.226-0.381,0.618-0.396c0.109-0.152,0.189-0.325,0.402-0.325
				c0.048,0.001,0.116,0.012,0.116,0.068c0,0.067-0.105,0.188-0.141,0.24L131.701,186.207z"/>
			<path fill="#27AAE1" stroke="#BCBEC0" stroke-width="0.1" stroke-miterlimit="10" d="M132.538,187.256
				c-0.164,0.203-0.486,0.531-0.764,0.533c-0.217,0-0.317-0.249-0.317-0.436c-0.001-0.447,0.456-0.884,0.677-0.884
				c0.061-0.001,0.159,0.02,0.161,0.103c0,0.183-0.362,0.51-0.517,0.617c-0.027,0.149,0.027,0.229,0.197,0.229
				c0.192-0.002,0.384-0.195,0.529-0.301L132.538,187.256z M132.183,186.236c-0.001-0.147,0.176-0.28,0.319-0.281
				c0.065,0,0.12,0.048,0.12,0.113c0,0.146-0.134,0.327-0.292,0.326C132.243,186.396,132.183,186.326,132.183,186.236z"/>
			<path fill="#27AAE1" stroke="#BCBEC0" stroke-width="0.1" stroke-miterlimit="10" d="M134.021,187.178
				c-0.164,0.209-0.324,0.298-0.592,0.299c-0.154,0.157-0.334,0.276-0.564,0.275c-0.19,0.001-0.365-0.189-0.383-0.521
				c-0.008-0.274,0.128-0.459,0.333-0.618c0.196-0.161,0.462-0.261,0.685-0.273c0.081-0.002,0.199,0.033,0.199,0.131
				c0,0.059-0.04,0.078-0.082,0.101c0.108,0.03,0.132,0.107,0.133,0.218c-0.001,0.159-0.073,0.288-0.142,0.431
				c0.161,0.029,0.264-0.108,0.376-0.195L134.021,187.178z M132.903,187.01c-0.079,0.08-0.15,0.224-0.15,0.337
				c0.002,0.106,0.073,0.138,0.162,0.138c0.121,0.001,0.199-0.07,0.283-0.147c-0.025-0.059-0.043-0.105-0.045-0.167
				c-0.001-0.19,0.172-0.423,0.156-0.429C133.186,186.814,133.012,186.902,132.903,187.01z"/>
			<path fill="#27AAE1" stroke="#BCBEC0" stroke-width="0.1" stroke-miterlimit="10" d="M135.694,186.996l0.029,0.162
				c-0.191,0.173-0.569,0.626-0.836,0.626c-0.14,0-0.205-0.117-0.204-0.243c-0.001-0.219,0.194-0.46,0.312-0.63l-0.007-0.009
				c-0.214,0.158-0.399,0.353-0.563,0.564c-0.056,0.071-0.188,0.248-0.288,0.248c-0.162,0.001-0.202-0.229-0.205-0.354
				c-0.012-0.253,0.217-0.623,0.43-0.803c0.047-0.041,0.079-0.045,0.141-0.044c0.221,0.005,0.204,0.057,0.204,0.078
				c0,0.144-0.46,0.515-0.463,0.603c0.002,0.022,0.02,0.04,0.043,0.04c0.025-0.001,0.058-0.031,0.074-0.05
				c0.29-0.375,0.964-0.829,1.07-0.83c0.015,0.001,0.037,0.02,0.057,0.071c0.023,0.056,0.047,0.121,0.058,0.198
				c0,0.142-0.45,0.422-0.45,0.675c0.001,0.032,0.031,0.064,0.067,0.064c0.087,0.001,0.248-0.128,0.313-0.184L135.694,186.996z"/>
			<path fill="#27AAE1" stroke="#BCBEC0" stroke-width="0.1" stroke-miterlimit="10" d="M136.27,187.473
				c-0.068,0.054-0.304,0.246-0.386,0.247c-0.103-0.001-0.316-0.241-0.324-0.433c-0.017-0.457,0.935-0.929,1.358-0.94
				c0.169-0.006,0.24,0.129,0.24,0.174c0,0.044-0.096,0.081-0.129,0.091c0.07,0.031,0.105,0.07,0.108,0.15
				c0,0.118-0.318,0.374-0.318,0.547c0,0.063,0.056,0.089,0.113,0.088c0.154,0,0.363-0.188,0.52-0.296l0.031,0.137
				c-0.158,0.181-0.649,0.571-0.826,0.574c-0.122-0.001-0.177-0.088-0.179-0.193c0-0.117,0.087-0.314,0.136-0.413l-0.007-0.006
				L136.27,187.473z M135.826,187.377c0.005,0.02,0.019,0.085,0.073,0.074c0.074-0.015,0.188-0.005,0.91-0.739l-0.008-0.008
				C135.931,186.973,135.824,187.199,135.826,187.377z"/>
			<path fill="#27AAE1" stroke="#BCBEC0" stroke-width="0.1" stroke-miterlimit="10" d="M138.626,187.172
				c-0.199,0.209-0.543,0.582-0.856,0.581c-0.271,0.001-0.328-0.259-0.33-0.478c-0.001-0.383,0.165-0.796,0.401-1.09
				c0.32-0.399,0.667-0.742,0.785-0.743c0.062,0,0.077,0.089,0.073,0.137c-0.025,0.347-0.119,0.668-0.912,1.441
				c-0.032,0.062-0.042,0.165-0.026,0.251c0.035,0.085,0.086,0.159,0.184,0.158c0.204,0,0.484-0.234,0.63-0.368L138.626,187.172z
				 M137.866,186.682c0.261-0.241,0.486-0.594,0.551-0.802c-0.181,0.087-0.387,0.417-0.558,0.798L137.866,186.682z"/>
		</g>
	</g>
	<path clip-path="url(#SVGID_2_)" stroke="#000000" stroke-miterlimit="10" d="M123.925,167.456c0,0-4.25,3-1,3.583
		s5.708,1.666,8.041,1.416c0,0,1.833-4.209,6.375-7.375L123.925,167.456z"/>
	<path clip-path="url(#SVGID_2_)" fill="#00AEEF" stroke="#000000" stroke-miterlimit="10" d="M177.175,161.039
		c3.209,0.455,2.25,6.25,2.25,9.25c0,4.174-1,4.5-7.166,4.5c-8.75,0-9.334-1.333-9.167-5
		C163.432,162.323,173.819,160.563,177.175,161.039z"/>
	<path clip-path="url(#SVGID_2_)" fill="#2E3192" stroke="#000000" stroke-miterlimit="10" d="M176.092,160.872
		c0,0,2.083,1,2.083,2.417s0.417,8.333-0.333,9.75s-1.083,1.583-1.083,1.583s2-0.166,2.333-1.916s0.736-6.708,0.417-8.917
		c-0.112-0.778-0.667-2.167-1.667-2.667S176.092,160.872,176.092,160.872z"/>
	<g clip-path="url(#SVGID_2_)">
		<ellipse stroke="#000000" stroke-miterlimit="10" cx="96.967" cy="245.312" rx="37.068" ry="35.154"/>
		<g>
			<ellipse fill="#D1D3D4" stroke="#000000" stroke-miterlimit="10" cx="96.967" cy="245.906" rx="25.859" ry="25.277"/>
			<ellipse fill="#BCBEC0" stroke="#000000" stroke-miterlimit="10" cx="96.967" cy="245.556" rx="23.297" ry="22.596"/>
			<circle fill="#58595B" cx="97.315" cy="245.439" r="20.385"/>
			<path fill="#BCBEC0" d="M96.907,223.365c-12.352,0-22.362,10.015-22.362,22.364c0,12.352,10.011,22.365,22.362,22.365
				s22.367-10.014,22.367-22.365C119.274,233.38,109.259,223.365,96.907,223.365z M117.816,240.665l-11.997,0.815l-1.166-1.632
				l7.921-9.901L117.816,240.665z M110.012,228.201l-9.201,8.619l-1.631-0.35l-0.233-12.464L110.012,228.201z M95.335,223.774
				l-0.232,12.812l-1.398,0.234l-8.969-9.32L95.335,223.774z M82.057,229.715l8.385,9.552l-1.745,1.746l-12.931-1.863
				L82.057,229.715z M75.65,243.459l12.929,1.863l1.397,1.632l-11.881,6.989C76.813,252.195,75.65,243.459,75.65,243.459z
				 M78.911,257.32l10.6-7.688l2.331,3.727l-4.312,10.95C87.53,264.31,78.796,258.833,78.911,257.32z M90.793,265.709l5.476-10.485
				l1.979-0.466l4.425,11.183C102.673,265.94,91.842,267.339,90.793,265.709z M105.587,265.126l-3.379-12.464l1.631-1.98
				l11.183,7.34L105.587,265.126z M105.587,247.652l0.581-0.931l12.348-2.912c0,0-1.166,9.9-2.214,11.064L105.587,247.652z"/>
			<ellipse fill="#BCBEC0" stroke="#000000" stroke-miterlimit="10" cx="97.2" cy="245.789" rx="10.485" ry="10.252"/>
			<ellipse fill="#939598" stroke="#414042" stroke-miterlimit="10" cx="97.112" cy="245.439" rx="3.231" ry="3.145"/>
			<ellipse fill="#939598" stroke="#414042" stroke-miterlimit="10" cx="91.084" cy="242.295" rx="1.66" ry="1.834"/>
			<ellipse fill="#939598" stroke="#414042" stroke-miterlimit="10" cx="90.807" cy="248.737" rx="1.66" ry="1.835"/>
			<ellipse fill="#939598" stroke="#414042" stroke-miterlimit="10" cx="102.791" cy="242.12" rx="1.659" ry="1.835"/>
			<ellipse fill="#939598" stroke="#414042" stroke-miterlimit="10" cx="97.08" cy="238.802" rx="1.659" ry="1.835"/>
			<path fill="#939598" stroke="#414042" stroke-miterlimit="10" d="M98.858,252.43c0,1.012-0.741,1.834-1.66,1.834
				c-0.916,0-1.657-0.822-1.657-1.834c0-1.016,0.741-1.836,1.657-1.836C98.117,250.594,98.858,251.414,98.858,252.43z"/>
			<ellipse fill="#939598" stroke="#414042" stroke-miterlimit="10" cx="103.267" cy="248.477" rx="1.658" ry="1.833"/>
		</g>
	</g>
	<g clip-path="url(#SVGID_2_)">
		<ellipse stroke="#000000" stroke-miterlimit="10" cx="387.333" cy="242.333" rx="35.628" ry="34.654"/>
		<g>
			<ellipse fill="#D1D3D4" stroke="#000000" stroke-miterlimit="10" cx="387.332" cy="242.272" rx="25.91" ry="25.327"/>
			<ellipse fill="#BCBEC0" stroke="#000000" stroke-miterlimit="10" cx="387.332" cy="241.921" rx="23.343" ry="22.641"/>
			<circle fill="#58595B" cx="387.681" cy="241.805" r="20.425"/>
			<path fill="#BCBEC0" d="M387.273,219.686c-12.377,0-22.407,10.035-22.407,22.409c0,12.376,10.03,22.409,22.407,22.409
				c12.375,0,22.409-10.033,22.409-22.409C409.683,229.721,399.648,219.686,387.273,219.686z M408.224,237.02l-12.021,0.817
				l-1.168-1.636l7.937-9.92L408.224,237.02z M400.403,224.531l-9.22,8.637l-1.634-0.351l-0.234-12.488L400.403,224.531z
				 M385.696,220.097l-0.232,12.837l-1.4,0.234l-8.986-9.338L385.696,220.097z M372.392,226.048l8.403,9.571l-1.75,1.75
				l-12.956-1.868L372.392,226.048z M365.973,239.819l12.954,1.867l1.402,1.636l-11.905,7.002
				C367.14,248.573,365.973,239.819,365.973,239.819z M369.24,253.71l10.621-7.704l2.335,3.734l-4.32,10.971
				C377.876,260.711,369.124,255.225,369.24,253.71z M381.146,262.113l5.486-10.506l1.982-0.467l4.436,11.205
				C393.05,262.346,382.196,263.747,381.146,262.113z M395.968,261.528l-3.385-12.487l1.635-1.984l11.204,7.354L395.968,261.528z
				 M395.968,244.021l0.583-0.933l12.372-2.916c0,0-1.167,9.92-2.218,11.086L395.968,244.021z"/>
			<ellipse fill="#BCBEC0" stroke="#000000" stroke-miterlimit="10" cx="387.564" cy="242.154" rx="10.505" ry="10.271"/>
			<ellipse fill="#939598" stroke="#414042" stroke-miterlimit="10" cx="387.477" cy="241.805" rx="3.239" ry="3.15"/>
			<ellipse fill="#939598" stroke="#414042" stroke-miterlimit="10" cx="381.437" cy="238.653" rx="1.664" ry="1.838"/>
			<ellipse fill="#939598" stroke="#414042" stroke-miterlimit="10" cx="381.159" cy="245.108" rx="1.664" ry="1.839"/>
			<ellipse fill="#939598" stroke="#414042" stroke-miterlimit="10" cx="393.167" cy="238.478" rx="1.662" ry="1.839"/>
			<ellipse fill="#939598" stroke="#414042" stroke-miterlimit="10" cx="387.446" cy="235.153" rx="1.663" ry="1.838"/>
			<path fill="#939598" stroke="#414042" stroke-miterlimit="10" d="M389.228,248.809c0,1.014-0.743,1.836-1.662,1.836
				s-1.663-0.822-1.663-1.836c0-1.018,0.744-1.84,1.663-1.84S389.228,247.791,389.228,248.809z"/>
			<ellipse fill="#939598" stroke="#414042" stroke-miterlimit="10" cx="393.644" cy="244.848" rx="1.663" ry="1.837"/>
		</g>
	</g>
	<path clip-path="url(#SVGID_2_)" fill="none" stroke="#000000" stroke-miterlimit="10" d="M31.174,200.788c0,0,10.5-2.999,17-2.833
		"/>
	<path clip-path="url(#SVGID_2_)" fill="none" stroke="#000000" stroke-miterlimit="10" d="M28.174,203.788
		c0,0,11.117-2.999,18-2.833"/>
	<path clip-path="url(#SVGID_2_)" fill="none" stroke="#000000" stroke-miterlimit="10" d="M25.841,206.621
		c0,0,11.117-2.999,18-2.833"/>
	
		<line clip-path="url(#SVGID_2_)" fill="none" stroke="#000000" stroke-miterlimit="10" x1="24.341" y1="195.621" x2="25.341" y2="196.455"/>
	
		<line clip-path="url(#SVGID_2_)" fill="none" stroke="#000000" stroke-miterlimit="10" x1="25.174" y1="194.455" x2="26.174" y2="194.788"/>
</g>
</svg>
