<?xml version="1.0" encoding="utf-8"?>
<!-- Generator: Adobe Illustrator 16.0.3, SVG Export Plug-In . SVG Version: 6.00 Build 0)  -->
<!DOCTYPE svg PUBLIC "-//W3C//DTD SVG 1.1//EN" "http://www.w3.org/Graphics/SVG/1.1/DTD/svg11.dtd">
<svg version="1.1" id="Layer_1" xmlns="http://www.w3.org/2000/svg" xmlns:xlink="http://www.w3.org/1999/xlink" x="0px" y="0px"
	 width="128px" height="128px" viewBox="0 0 128 128" enable-background="new 0 0 128 128" xml:space="preserve">
<g>
	<defs>
		<rect id="SVGID_1_" x="19.333" width="93.333" height="128"/>
	</defs>
	<clipPath id="SVGID_2_">
		<use xlink:href="#SVGID_1_"  overflow="visible"/>
	</clipPath>
	<path clip-path="url(#SVGID_2_)" fill="#00AEEF" stroke="#000000" stroke-miterlimit="10" d="M85.539,63.848
		c0,18.305-0.203,34.26-0.203,43.577c0,7.373-1.475,8.746-3.61,11.11c-2.378,2.633-14.216,4.487-18,4.271
		c-8.379-0.479-14.949-1.297-18.306-4.425c-1.079-1.005-1.049-3.178-1.525-5.033c-1.196-4.658-1.386-14.844-1.831-21.28
		c-0.449-6.497-0.305-20.442-0.305-27.764c0-10.054-0.185-17.063-0.356-24.61c-0.133-5.878-1.127-12.158-0.559-17.034
		c0.311-2.664,0.365-5.771,1.678-8.593c0.528-1.134,6.553-5.141,7.322-5.492c5.187-2.365,10.309-4.268,13.881-4.145
		c4.06,0.14,8.625,1.045,13.373,3.789c1.841,1.063,4.823,2.977,6.153,4.373c1.488,1.563,2.117,3.087,2.542,5.848
		c0.446,2.898,0.416,8.553,0.203,12.102C85.504,38.77,85.539,54.672,85.539,63.848z"/>
	<path clip-path="url(#SVGID_2_)" fill="#2E3192" stroke="#000000" stroke-miterlimit="10" d="M43.59,34.482
		c0,0,0.743-19.179,3.966-22.958c4.423-5.187,10.907-6.789,15.788-7.17c4.88-0.381,9.216,1.814,10.857,2.492
		c1.995,0.826,6.762,5.288,8.517,15.28c1.418,8.077,1.144,12.355,1.144,12.355h-1.982c0,0-11.212-6.788-22.653-4.652
		C47.785,31.965,43.59,34.482,43.59,34.482z"/>
	<path clip-path="url(#SVGID_2_)" stroke="#000000" stroke-miterlimit="10" d="M47.479,53.932l-3.966-19.373
		c0,0,5.784-6.325,20.441-6.178c15.254,0.152,19.945,5.835,19.945,5.835L81.039,50.5l-1.449,5.872l-2.669-3.203L47.479,53.932z"/>
	<polygon clip-path="url(#SVGID_2_)" fill="#FFFFFF" stroke="#000000" stroke-width="0.25" stroke-miterlimit="10" points="
		62.734,4.573 61.971,5.281 65.098,5.281 64.412,4.573 	"/>
	<path clip-path="url(#SVGID_2_)" stroke="#000000" stroke-miterlimit="10" d="M42.707,38.441c0,0,0.979,2.497,1.72,5.581
		c0.968,4.025,1.845,9.214,2.123,11.882c0.494,4.725,1.033,15.628,1.121,17.229c0.089,1.602,0.2,16.397-1.67,21.293
		c-1.87,4.896-2.499,2.384-2.499,2.384l-0.5-5.641l-0.165-11.821l-0.021-13.043l-0.058-17.695L42.707,38.441z"/>
	<path clip-path="url(#SVGID_2_)" stroke="#000000" stroke-miterlimit="10" d="M84.167,39.211c0,0-0.615,2.777-1.297,5.873
		c-0.434,1.967-0.818,4.163-0.991,5.873c-0.534,5.263-1.145,20.899-1.145,20.899s-0.009,4.367,0.077,9.229
		c0.115,6.607,0.548,14.322,2.744,15.025c0.401,0.129,1.373,0.534,1.373,0.534l-0.151-6.56l-0.306-23.11l0.229-22.272L84.167,39.211
		z"/>
	<path clip-path="url(#SVGID_2_)" fill="#2E3192" stroke="#000000" stroke-miterlimit="10" d="M47.022,50.957
		c0,0,1.747,17.55,1.856,22.704c0.104,4.924-0.941,21.458-0.941,21.458s19.78,1.449,32.797-0.687c0,0-1.132-16.399-1.068-21.356
		c0.069-5.242,1.373-22.576,1.373-22.576S61.403,45.096,47.022,50.957z"/>
	<path clip-path="url(#SVGID_2_)" fill="#FFFFFF" stroke="#000000" stroke-miterlimit="10" d="M45.115,35.321l2.288,13.271
		l11.822-1.373l1.376-1.682l6.022,0.081l1.22,1.677L80.2,48.898l2.136-12.966c0,0-6.06-4.577-18.992-4.577
		C50.413,31.355,45.115,35.321,45.115,35.321z"/>
	<path clip-path="url(#SVGID_2_)" fill="#FFFFFF" stroke="#000000" stroke-miterlimit="10" d="M43.473,44.983l-0.29,20.761
		l2.899,0.748C46.082,66.492,46.517,51.461,43.473,44.983z"/>
	<path clip-path="url(#SVGID_2_)" fill="#FFFFFF" stroke="#000000" stroke-miterlimit="10" d="M43.361,70.178l3.279,0.687
		c0,0,0.305,23.187-2.593,25.552L43.361,70.178z"/>
	<polygon clip-path="url(#SVGID_2_)" points="55.919,32.309 51.426,32.003 50.922,32.202 49.493,32.194 49.579,32.748 
		50.736,32.688 51.22,32.929 55.783,32.908 66.805,33.554 77.165,34.447 77.297,33.958 66.935,33.064 	"/>
	<path clip-path="url(#SVGID_2_)" stroke="#FFFFFF" stroke-width="0.25" stroke-miterlimit="10" d="M41.563,65.359l0.181,1.634
		l0.727,0.137l-0.045-9.168l-0.59-0.317l-0.227,1.453C41.609,59.097,38.977,61.729,41.563,65.359z M40.928,61.865
		c0.045-1.225,0.726-1.452,0.726-1.452l-0.045,3.722C41.609,64.134,40.883,63.09,40.928,61.865z"/>
	<path clip-path="url(#SVGID_2_)" stroke="#FFFFFF" stroke-width="0.25" stroke-miterlimit="10" d="M85.88,59.37l-0.227-1.453
		l-0.591,0.317l-0.045,9.167l0.726-0.137l0.182-1.634C88.512,62.002,85.88,59.37,85.88,59.37z M85.88,64.407l-0.046-3.722
		c0,0,0.682,0.228,0.726,1.453C86.606,63.363,85.88,64.407,85.88,64.407z"/>
	<path clip-path="url(#SVGID_2_)" stroke="#FFFFFF" stroke-width="0.25" stroke-miterlimit="10" d="M41.882,94.174l0.167,1.508
		l0.67,0.126l-0.042-8.46l-0.544-0.293l-0.209,1.341C41.924,88.396,39.495,90.825,41.882,94.174z M41.296,90.95
		c0.042-1.131,0.67-1.341,0.67-1.341l-0.042,3.435C41.924,93.044,41.254,92.08,41.296,90.95z"/>
	<path clip-path="url(#SVGID_2_)" stroke="#FFFFFF" stroke-width="0.25" stroke-miterlimit="10" d="M85.59,87.627l-0.204-1.309
		l-0.531,0.286l-0.041,8.256l0.654-0.123l0.163-1.471C87.961,89.997,85.59,87.627,85.59,87.627z M85.59,92.163l-0.041-3.352
		c0,0,0.614,0.205,0.654,1.309C86.244,91.223,85.59,92.163,85.59,92.163z"/>
	<path clip-path="url(#SVGID_2_)" fill="#2E3192" stroke="#000000" stroke-miterlimit="10" d="M43.081,41.322l-5.631,2.313
		c0,0-1.081,0.229-0.674,2.161l6.305-1.626V41.322z"/>
	<path clip-path="url(#SVGID_2_)" fill="#FFFFFF" stroke="#000000" stroke-miterlimit="10" d="M49.615,8.702
		c0,0-2.669,1.373-4.195,2.517c-1.525,1.144-3.394,3.242-3.546,4.729l-0.153,1.792c0,0,2.021-3.318,3.166-4.233
		C46.03,12.592,49.539,9.999,49.615,8.702z"/>
	<path clip-path="url(#SVGID_2_)" fill="#FFFFFF" stroke="#000000" stroke-miterlimit="10" d="M76.896,8.271
		c0,0,3.534,2.033,5.06,3.177s3.255,3.179,3.178,5.162l0.331,1.665c0,0-1.831-3.623-2.976-4.538
		C81.345,12.821,76.845,10.101,76.896,8.271z"/>
	<path clip-path="url(#SVGID_2_)" fill="#FFFFFF" stroke="#000000" stroke-miterlimit="10" d="M84.091,46.915l0.076,18.382
		l-2.136,1.297C82.031,66.594,81.046,53.393,84.091,46.915z"/>
	<path clip-path="url(#SVGID_2_)" fill="#FFFFFF" stroke="#000000" stroke-miterlimit="10" d="M84.091,69.644l-2.212,0.534
		c0,0-1.067,22.959,2.212,25.17V69.644z"/>
	<path clip-path="url(#SVGID_2_)" fill="#262262" stroke="#00AEEF" stroke-width="0.5" stroke-miterlimit="10" d="M64.692,90.898
		c0,0.843-0.28,1.17-0.814,1.17c-0.533,0-0.813-0.327-0.813-1.17c0-0.842,0.229-1.881,0.763-1.881
		C64.361,89.018,64.692,90.057,64.692,90.898z"/>
	<path clip-path="url(#SVGID_2_)" fill="#2E3192" stroke="#000000" stroke-miterlimit="10" d="M48.217,108.696
		c0,0-1.78,7.22-1.424,9.966c0.134,1.029,9.407,4.322,17.289,4.171c6.662-0.129,10.092-1.157,13.271-2.34
		c2.186-0.814,5.44-2.645,5.236-4.018c-0.273-1.85-1.575-5.949-2.39-8.287l-13.729,2.491l-16.017,0.609L48.217,108.696z"/>
	<path clip-path="url(#SVGID_2_)" fill="#2E3192" stroke="#000000" stroke-miterlimit="10" d="M84.438,40.736l5.702,2.136
		c0,0,1.086,0.195,0.74,2.139l-6.354-1.429L84.438,40.736z"/>
	<path clip-path="url(#SVGID_2_)" fill="#BE1E2D" stroke="#000000" stroke-width="0.25" stroke-miterlimit="10" d="M44.098,114.137
		l1.881,4.119l2.848,2.338c0,0-2.492-0.559-3.712-1.83C44.084,117.69,44.098,114.137,44.098,114.137z"/>
	<path clip-path="url(#SVGID_2_)" fill="#BE1E2D" stroke="#000000" stroke-width="0.25" stroke-miterlimit="10" d="M84.98,113.526
		l-1.983,3.661l-3.407,2.848c0,0,3.097-0.664,4.221-2.491C85.03,115.561,84.98,113.526,84.98,113.526z"/>
	<path clip-path="url(#SVGID_2_)" fill="#F1F2F2" stroke="#000000" stroke-miterlimit="10" d="M48.463,109.286l-0.552-14.218
		c0,0,12.511,0.763,16.322,0.763c3.662,0,16.476-1.067,16.476-1.067l-0.78,14.142c0,0-2.443,3.047-15.245,3.713
		C59.807,112.872,48.813,112.975,48.463,109.286z"/>
	
		<line clip-path="url(#SVGID_2_)" fill="none" stroke="#000000" stroke-miterlimit="10" x1="47.785" y1="95.043" x2="42.598" y2="99.543"/>
	
		<line clip-path="url(#SVGID_2_)" fill="none" stroke="#000000" stroke-miterlimit="10" x1="80.71" y1="94.764" x2="85.234" y2="99.543"/>
</g>
</svg>
