<?xml version="1.0" encoding="utf-8"?>
<!-- Generator: Adobe Illustrator 16.0.3, SVG Export Plug-In . SVG Version: 6.00 Build 0)  -->
<!DOCTYPE svg PUBLIC "-//W3C//DTD SVG 1.1//EN" "http://www.w3.org/Graphics/SVG/1.1/DTD/svg11.dtd">
<svg version="1.1" id="Layer_1" xmlns="http://www.w3.org/2000/svg" xmlns:xlink="http://www.w3.org/1999/xlink" x="0px" y="0px"
	 width="500px" height="400px" viewBox="0 0 500 400" enable-background="new 0 0 500 400" xml:space="preserve">
<g>
	<defs>
		<rect id="SVGID_1_" y="35.667" width="497.667" height="300"/>
	</defs>
	<clipPath id="SVGID_2_">
		<use xlink:href="#SVGID_1_"  overflow="visible"/>
	</clipPath>
	<path clip-path="url(#SVGID_2_)" fill="#414042" stroke="#414042" stroke-miterlimit="10" d="M39.425,282.706l12.498,0.301
		l15.001-45.302h59l19.667,47.563l18.168,0.438c0,0-10.668-74.666-63.001-73C100.758,212.706,40.425,206.039,39.425,282.706z"/>
	<path clip-path="url(#SVGID_2_)" stroke="#000000" stroke-miterlimit="10" d="M417.841,73.705c0,0,3.25-5,7.25-4.75
		s-4.75,7.75-4.75,7.75L417.841,73.705z"/>
	<polygon clip-path="url(#SVGID_2_)" fill="#414042" stroke="#414042" stroke-miterlimit="10" points="350.091,282.371 
		371.758,283.706 376.591,240.538 444.424,235.871 462.757,269.538 468.092,269.039 472.425,254.706 459.758,215.039 
		417.425,203.039 381.092,209.372 362.425,236.372 355.425,247.372 	"/>
	<ellipse clip-path="url(#SVGID_2_)" stroke="#000000" stroke-miterlimit="10" cx="99.091" cy="271.705" rx="51.667" ry="49"/>
	<ellipse clip-path="url(#SVGID_2_)" stroke="#000000" stroke-miterlimit="10" cx="414.424" cy="267.705" rx="50.667" ry="49"/>
	
		<ellipse clip-path="url(#SVGID_2_)" fill="#D1D3D4" stroke="#000000" stroke-miterlimit="10" cx="97.758" cy="271.873" rx="37" ry="36.167"/>
	
		<ellipse clip-path="url(#SVGID_2_)" fill="#BCBEC0" stroke="#000000" stroke-miterlimit="10" cx="97.758" cy="271.372" rx="33.333" ry="32.333"/>
	<circle clip-path="url(#SVGID_2_)" fill="#58595B" stroke="#414042" stroke-miterlimit="10" cx="98.258" cy="271.205" r="29.167"/>
	<path clip-path="url(#SVGID_2_)" fill="#ED1C24" stroke="#000000" stroke-miterlimit="10" d="M35.258,287.664l6-0.667
		c0,0-0.251-34.668,14.083-48.417c14.052-13.479,26.584-21.583,48.25-19.25s39.668,17,45.001,34.667s8,32.334,8,32.334
		l204.124-3.376c0,0-0.25-20.5-0.125-31.125c0.124-10.525,16.11-26.945,28.375-32.75c18.75-8.875,38.315-6.883,56.125,2.25
		c7.543,3.868,15.175,11.439,18.5,19.5c5.271,12.777,4.5,27,4.5,27s5.833-4.5,6.167-11.833s0-58.333-16-69.333
		c0,0,1.333-41.334-7-58s-28.666-50.666-33.666-57.333l5.333-8.333c0,0-11.667-2.333-38-4s-76-6.333-114-1
		s-41.001,0.332-79.667,27.666s-89,67.667-89,67.667l-13.333,1.333c0,0-47,31.666-50,51l-0.333,5.667c0,0,3,10-4.667,18
		c0,0-6.333,14.999-3.333,35.333S35.258,287.664,35.258,287.664z"/>
	<path clip-path="url(#SVGID_2_)" fill="#E6E7E8" stroke="#000000" stroke-miterlimit="10" d="M79.092,176.039
		c0,0,7.666-8.666,4.333-8.333s-11.334,2.999-15.667,5.666s-21.666,14-24.666,23.667c0,0,9,4.667,22-5.333L79.092,176.039z"/>
	<path clip-path="url(#SVGID_2_)" fill="#FFFFFF" stroke="#000000" stroke-miterlimit="10" d="M100.341,155.955
		c0,0,84.75-71.75,114.75-85l4.75,2.75l-100.75,79.5L100.341,155.955z"/>
	<path clip-path="url(#SVGID_2_)" fill="#F7941E" stroke="#000000" stroke-miterlimit="10" d="M63.841,192.122
		c0,0,2.834-18.5,20.167-24C84.008,168.122,87.841,182.789,63.841,192.122z"/>
	<path clip-path="url(#SVGID_2_)" fill="#FFFFFF" stroke="#000000" stroke-miterlimit="10" d="M172.841,150.205l143.5-19.25h16.75
		l37.75-11.25l2-3.75l-16.75-42c0,0-2.25-7-52-7.5s-101,11.25-118.5,34.5s-19.75,26.25-19.75,26.25L172.841,150.205z"/>
	<path clip-path="url(#SVGID_2_)" fill="#FFFFFF" stroke="#000000" stroke-miterlimit="10" d="M412.341,71.705l8.5,1.25
		c0,0,32.75,49.75,33,58l-22.5-0.25l-20.75-53.75L412.341,71.705z"/>
	<polygon clip-path="url(#SVGID_2_)" fill="#A7A9AC" stroke="#000000" stroke-miterlimit="10" points="316.591,65.955 
		314.591,132.455 322.091,131.955 323.591,65.205 	"/>
	<polygon clip-path="url(#SVGID_2_)" fill="#414042" stroke="#000000" stroke-miterlimit="10" points="175.425,150.372 
		314.591,132.455 331.841,132.621 333.091,130.955 322.174,130.788 314.508,130.788 175.092,148.955 	"/>
	<path clip-path="url(#SVGID_2_)" stroke="#000000" stroke-miterlimit="10" d="M31.092,267.706l12,0.333l-1.334,19.333l-6,0.667
		C35.758,288.039,31.092,273.373,31.092,267.706z"/>
	<path clip-path="url(#SVGID_2_)" stroke="#000000" stroke-miterlimit="10" d="M153.758,268.706l16.667-2.667
		c0,0,5.667,10.333,14.667,8l98.666-9c0,0,22,0.999,34.667-10.667l42.041-1.542l0.125,30.125l-206.5,3.75L153.758,268.706z"/>
	<path clip-path="url(#SVGID_2_)" stroke="#000000" stroke-miterlimit="10" d="M466.466,246.83l8.25-1l0.583,13.084
		c0,0-0.833,8.167-7.5,11.167L466.466,246.83z"/>
	<path clip-path="url(#SVGID_2_)" fill="#BCBEC0" stroke="#000000" stroke-miterlimit="10" d="M151.628,208.507
		c0,0-8.683,0.404-9.306,3.504c-0.624,3.101,7.229,4.143,10.828,3.36L151.628,208.507z"/>
	<polygon clip-path="url(#SVGID_2_)" fill="#414042" stroke="#000000" stroke-miterlimit="10" points="128.092,156.372 
		152.759,153.039 175.425,150.372 175.759,112.372 	"/>
	<path clip-path="url(#SVGID_2_)" stroke="#414042" stroke-miterlimit="10" d="M214.092,71.372l8,4l8.333-3.666l55-8l54-2l33.334,5
		l18.333,27.333l22,37l4.667,1.667l1.666-0.667l23-1.333c0,0-12.154-27.062-21.246-41.808c-1.869-3.032-5.278-13.503-3.713-15.068
		c3-3,6.875-10.375,6.875-10.375s-31.875-4.25-67-7.375c-21.012-1.87-101.582-0.375-122.582,6.959S214.092,71.372,214.092,71.372z"
		/>
	<path clip-path="url(#SVGID_2_)" fill="#A7A9AC" stroke="#000000" stroke-miterlimit="10" d="M168.092,266.372l110.666-17
		c0,0,19.667,0,37.667-22.333s58.666-71,52.333-103s-12.666-55.667-44.333-55s-70-3-103,15s-88.667,68.333-88.667,68.333l-19.333,1
		c0,0,79.333-65.333,92-72.333s22.334-13.999,44.667-17.333s101.999-6.999,123.333-1.333c0,0,40.582,44.25,46.249,69.583
		c0,0-6.581,1.751-11.915,8.417s-73.334,95.333-73.334,95.333s-20.482,24.983-24,27c-5.084,2.915-13.466,6.673-18.333,7.666
		c-29.527,6.022-120.334,7-120.334,7L168.092,266.372z"/>
	<path clip-path="url(#SVGID_2_)" fill="#414042" stroke="#000000" stroke-miterlimit="10" d="M90.425,155.039l-10.333,7.334
		c0,0,37.667-3,50-6.667l7.667-8.333l-24.334,5.999L90.425,155.039z"/>
	<path clip-path="url(#SVGID_2_)" stroke="#414042" stroke-miterlimit="10" d="M370.091,118.455c0,0-19.75,2.75-29.75,6.5
		s-15.248,13.093-5.75,17.5c8.423,3.908,29.25,9,37.5,3.75S370.091,118.455,370.091,118.455z"/>
	<path clip-path="url(#SVGID_2_)" fill="#A7A9AC" stroke="#000000" stroke-miterlimit="10" d="M175.341,123.872
		c4.5,1.333,6.499,10.665,6.25,15.083c-0.25,4.439,0.834,10.751-10.166,10.084s-12.666-6.001-10.333-16.667
		S172.016,122.887,175.341,123.872z"/>
	<path clip-path="url(#SVGID_2_)" fill="#58595B" stroke="#414042" stroke-miterlimit="10" d="M347.258,124.955
		c-5.25,1-16.5,6.25-12.5,10.5s8,4.25,15,4s21.75-6.5,14.25-12.5S347.258,124.955,347.258,124.955z"/>
	<path clip-path="url(#SVGID_2_)" fill="#6D6E71" stroke="#000000" stroke-miterlimit="10" d="M178.341,124.455
		c-1.276-0.747-5.999-1.167-5.999-1.167s3.379,1.232,5.416,4.084c3.548,4.967,3.834,16,1.25,17.833
		c-1.21,0.858-3.916,3.75-3.916,3.75s4.249,1.5,7.499-3.25S182.883,127.112,178.341,124.455z"/>
	<path clip-path="url(#SVGID_2_)" fill="#6D6E71" stroke="#939598" stroke-miterlimit="10" d="M334.591,134.205c0,0,23.75-6.75,28-4
		s-2,4.75-2,4.75s-16.5-4-22.25,2.5C338.341,137.455,336.341,137.705,334.591,134.205z"/>
	
		<ellipse clip-path="url(#SVGID_2_)" fill="#F1F2F2" stroke="#BCBEC0" stroke-miterlimit="10" cx="353.466" cy="142.455" rx="2.125" ry="2"/>
	<path clip-path="url(#SVGID_2_)" fill="#BE1E2D" stroke="#BE1E2D" stroke-miterlimit="10" d="M154.591,207.705v4.75
		c0,0,173-37.75,182-42L154.591,207.705z"/>
	<path clip-path="url(#SVGID_2_)" stroke="#414042" stroke-miterlimit="10" d="M404.341,158.955l-26.5,33l15.75-6.75l17.5-19
		c0,0,8.25-8.75-0.75-7.75L404.341,158.955z"/>
	<path clip-path="url(#SVGID_2_)" fill="#BE1E2D" stroke="#000000" stroke-miterlimit="10" d="M433.341,141.705
		c0,0-4.375,4.625-0.25,8.75l12.5,4c0,0-3.5-15.25,5.75-15.75C451.341,138.705,449.091,130.955,433.341,141.705z"/>
	<path clip-path="url(#SVGID_2_)" fill="#BE1E2D" stroke="#000000" stroke-miterlimit="10" d="M439.841,145.705
		c0-4.764,3.134-8.625,7-8.625s7.25,2.375,7,8.625c-0.19,4.76,0.5,9-7,8.625C442.979,154.137,439.841,150.469,439.841,145.705z"/>
	<path clip-path="url(#SVGID_2_)" fill="#BE1E2D" stroke="#000000" stroke-miterlimit="10" d="M433.669,166.132
		c0,0-4.366,2.724-0.328,8.073l14.75,6.25c0,0-3.754-17.419,7-18C455.091,162.455,451.98,153.635,433.669,166.132z"/>
	<path clip-path="url(#SVGID_2_)" fill="#BE1E2D" stroke="#000000" stroke-miterlimit="10" d="M441.227,170.782
		c0-5.538,3.643-10.027,8.138-10.027s8.768,2.185,8.477,9.45c-0.221,5.534,0.243,11.041-8.477,10.604
		C444.875,180.585,441.227,176.32,441.227,170.782z"/>
	<path clip-path="url(#SVGID_2_)" fill="#BCBEC0" d="M97.675,239.621c-17.673,0-32,14.327-32,32s14.327,32,32,32s32-14.327,32-32
		S115.348,239.621,97.675,239.621z M127.591,264.372l-17.167,1.166l-1.667-2.333l11.334-14.167L127.591,264.372z M116.424,246.538
		l-13.167,12.334l-2.333-0.5l-0.333-17.834L116.424,246.538z M95.424,240.205l-0.333,18.333l-2,0.334l-12.834-13.334L95.424,240.205
		z M76.424,248.705l12,13.667l-2.5,2.5l-18.5-2.667L76.424,248.705z M67.257,268.372l18.5,2.666l2,2.334l-17,10
		C68.923,280.872,67.257,268.372,67.257,268.372z M71.924,288.205l15.167-11l3.333,5.333l-6.167,15.667
		C84.257,298.205,71.757,290.372,71.924,288.205z M88.924,300.205l7.833-15l2.834-0.667l6.333,16
		C105.924,300.538,90.424,302.538,88.924,300.205z M110.091,299.372l-4.834-17.834l2.334-2.833l16,10.5L110.091,299.372z
		 M110.091,274.372l0.833-1.334l17.667-4.166c0,0-1.667,14.166-3.167,15.833L110.091,274.372z"/>
	
		<line clip-path="url(#SVGID_2_)" fill="none" stroke="#000000" stroke-miterlimit="10" x1="152.759" y1="153.039" x2="157.591" y2="130.705"/>
	<path clip-path="url(#SVGID_2_)" fill="none" stroke="#000000" stroke-width="1.5" stroke-miterlimit="10" d="M170.425,266.039
		c0,0-18.334-42.334-19.834-73.334s1-38.5,1-38.5"/>
	
		<ellipse clip-path="url(#SVGID_2_)" fill="#BCBEC0" stroke="#000000" stroke-miterlimit="10" cx="98.091" cy="271.705" rx="15.001" ry="14.667"/>
	
		<ellipse clip-path="url(#SVGID_2_)" fill="#939598" stroke="#414042" stroke-miterlimit="10" cx="97.966" cy="271.205" rx="4.625" ry="4.5"/>
	
		<ellipse clip-path="url(#SVGID_2_)" fill="#939598" stroke="#414042" stroke-miterlimit="10" cx="89.341" cy="266.705" rx="2.375" ry="2.625"/>
	
		<ellipse clip-path="url(#SVGID_2_)" fill="#939598" stroke="#414042" stroke-miterlimit="10" cx="106.091" cy="266.455" rx="2.375" ry="2.625"/>
	
		<ellipse clip-path="url(#SVGID_2_)" fill="#939598" stroke="#414042" stroke-miterlimit="10" cx="98.091" cy="281.205" rx="2.375" ry="2.625"/>
	
		<ellipse clip-path="url(#SVGID_2_)" fill="#D1D3D4" stroke="#000000" stroke-miterlimit="10" cx="415.091" cy="266.873" rx="37" ry="36.167"/>
	
		<ellipse clip-path="url(#SVGID_2_)" fill="#BCBEC0" stroke="#000000" stroke-miterlimit="10" cx="415.091" cy="266.372" rx="33.333" ry="32.333"/>
	
		<circle clip-path="url(#SVGID_2_)" fill="#58595B" stroke="#414042" stroke-miterlimit="10" cx="415.591" cy="266.205" r="29.167"/>
	<path clip-path="url(#SVGID_2_)" fill="#BCBEC0" d="M415.008,234.621c-17.673,0-32,14.327-32,32s14.327,32,32,32s32-14.327,32-32
		S432.681,234.621,415.008,234.621z M444.924,259.372l-17.167,1.166l-1.667-2.333l11.334-14.167L444.924,259.372z M433.757,241.538
		l-13.167,12.334l-2.333-0.5l-0.333-17.834L433.757,241.538z M412.757,235.205l-0.333,18.333l-2,0.334l-12.834-13.334
		L412.757,235.205z M393.757,243.705l12,13.667l-2.5,2.5l-18.5-2.667L393.757,243.705z M384.59,263.372l18.5,2.666l2,2.334l-17,10
		C386.256,275.872,384.59,263.372,384.59,263.372z M389.257,283.205l15.167-11l3.333,5.333l-6.167,15.667
		C401.59,293.205,389.09,285.372,389.257,283.205z M406.257,295.205l7.833-15l2.834-0.667l6.333,16
		C423.257,295.538,407.757,297.538,406.257,295.205z M427.424,294.372l-4.834-17.834l2.334-2.833l16,10.5L427.424,294.372z
		 M427.424,269.372l0.833-1.334l17.667-4.166c0,0-1.667,14.166-3.167,15.833L427.424,269.372z"/>
	
		<ellipse clip-path="url(#SVGID_2_)" fill="#BCBEC0" stroke="#000000" stroke-miterlimit="10" cx="415.424" cy="266.705" rx="15.001" ry="14.667"/>
	
		<ellipse clip-path="url(#SVGID_2_)" fill="#939598" stroke="#414042" stroke-miterlimit="10" cx="415.299" cy="266.205" rx="4.625" ry="4.5"/>
	
		<ellipse clip-path="url(#SVGID_2_)" fill="#939598" stroke="#414042" stroke-miterlimit="10" cx="406.674" cy="261.705" rx="2.375" ry="2.625"/>
	
		<ellipse clip-path="url(#SVGID_2_)" fill="#939598" stroke="#414042" stroke-miterlimit="10" cx="423.424" cy="261.455" rx="2.375" ry="2.625"/>
	
		<ellipse clip-path="url(#SVGID_2_)" fill="#939598" stroke="#414042" stroke-miterlimit="10" cx="415.424" cy="276.205" rx="2.375" ry="2.625"/>
	
		<line clip-path="url(#SVGID_2_)" fill="none" stroke="#6D6E71" stroke-miterlimit="10" x1="399.841" y1="165.121" x2="411.341" y2="165.121"/>
	
		<line clip-path="url(#SVGID_2_)" fill="none" stroke="#6D6E71" stroke-miterlimit="10" x1="396.341" y1="170.621" x2="405.508" y2="170.621"/>
	
		<line clip-path="url(#SVGID_2_)" fill="none" stroke="#6D6E71" stroke-miterlimit="10" x1="392.841" y1="175.788" x2="400.841" y2="175.788"/>
	
		<line clip-path="url(#SVGID_2_)" fill="none" stroke="#6D6E71" stroke-miterlimit="10" x1="388.508" y1="180.955" x2="396.841" y2="180.955"/>
	<path clip-path="url(#SVGID_2_)" fill="none" stroke="#000000" stroke-miterlimit="10" d="M47.008,193.122
		c0,0,15.166-14.834,22.333-17.667"/>
	<path clip-path="url(#SVGID_2_)" fill="none" stroke="#000000" stroke-miterlimit="10" d="M48.508,194.788
		c0,0,12.999-12.667,18.666-15"/>
	<path clip-path="url(#SVGID_2_)" fill="none" stroke="#000000" stroke-miterlimit="10" d="M50.341,196.288
		c0,0,7.833-7.832,13.833-10.666"/>
</g>
</svg>
