<?xml version="1.0" encoding="utf-8"?>
<!-- Generator: Adobe Illustrator 16.0.3, SVG Export Plug-In . SVG Version: 6.00 Build 0)  -->
<!DOCTYPE svg PUBLIC "-//W3C//DTD SVG 1.1//EN" "http://www.w3.org/Graphics/SVG/1.1/DTD/svg11.dtd">
<svg version="1.1" id="Layer_1" xmlns="http://www.w3.org/2000/svg" xmlns:xlink="http://www.w3.org/1999/xlink" x="0px" y="0px"
	 width="128px" height="128px" viewBox="0 0 128 128" enable-background="new 0 0 128 128" xml:space="preserve">
<g>
	<defs>
		<rect id="SVGID_1_" x="15.5" width="98" height="128"/>
	</defs>
	<clipPath id="SVGID_2_">
		<use xlink:href="#SVGID_1_"  overflow="visible"/>
	</clipPath>
	<path clip-path="url(#SVGID_2_)" fill="#BE1E2D" stroke="#000000" stroke-miterlimit="10" d="M100.447,114.984
		c-0.118,5.44-7.467,6.472-12.055,6.229c0,0-4.935,4.046-26.051,4.45c-6.968,0.134-17.798-3.479-17.798-3.479
		c-4.103,0.242-12.945-1.295-12.378-7.362c0,0-1.052-8.737,0.162-20.55c1.216-11.84,0.162-30.744,0.566-37.458
		c0.489-8.116,0.485-33.333,0.485-33.333l0.809-8.819c0-5.01,6.092-7.928,10.437-7.928L90.497,7.22
		c4.345,0,8.009,3.155,8.413,11.327c0.241,4.853,0.228,13.247,0.324,17.879c0.162,7.847,0.695,25.951,0.647,33.575
		C99.8,82.703,100.69,103.9,100.447,114.984z"/>
	<polygon clip-path="url(#SVGID_2_)" fill="#E6E7E8" stroke="#000000" stroke-miterlimit="10" points="38.071,13.53 35.481,16.767 
		34.834,31.491 41.954,22.591 	"/>
	<polygon clip-path="url(#SVGID_2_)" fill="#E6E7E8" stroke="#000000" stroke-miterlimit="10" points="94.232,13.53 96.939,16.767 
		97.131,33.433 90.173,22.591 	"/>
	<path clip-path="url(#SVGID_2_)" fill="#E6E7E8" stroke="#000000" stroke-miterlimit="10" d="M37.262,23.724l0.485-11.246
		c0,0,3.884-6.311,19.013-7.524c0,0,13.43-1.375,26.132,1.376c12.702,2.75,11.376,6.958,12.08,11.488l0.379,6.877
		c0,0-11.002-8.333-31.391-7.12C63.96,17.575,54.252,15.229,37.262,23.724z"/>
	<path clip-path="url(#SVGID_2_)" fill="#939598" stroke="#000000" stroke-width="0.5" stroke-miterlimit="10" d="M50.53,7.382
		l0.122-0.445c0,0-7.726-0.122-11.691,4.005c-2.814,2.93-4.045,5.542-3.357,7.281c0.187,0.474,2.701-2.063,3.357-2.023
		c0.647,0.041,3.479-4.53,3.479-4.53l1.699-1.699L50.53,7.382z"/>
	<path clip-path="url(#SVGID_2_)" fill="#FFFFFF" stroke="#000000" stroke-miterlimit="10" d="M50.611,7.22
		c0,0-7.281,0.89-11.165,4.854c-3.884,3.964-5.502,8.09-1.457,5.339c4.045-2.751,4.045-6.31,10.275-8.171
		C48.265,9.243,50.125,9.162,50.611,7.22z"/>
	<path clip-path="url(#SVGID_2_)" fill="#F7941E" stroke="#000000" stroke-width="0.25" stroke-miterlimit="10" d="M38.071,13.53
		l-0.566,4.126c0,0-2.184,1.78-1.861-0.243C35.967,15.391,38.071,13.53,38.071,13.53z"/>
	<path clip-path="url(#SVGID_2_)" fill="#939598" stroke="#000000" stroke-width="0.5" stroke-miterlimit="10" d="M81.395,7.058
		L81.03,6.37c0,0,7.605,0.486,11.569,3.964c2.666,2.338,4.733,5.501,4.288,7.403c-0.194,0.832-3.088-1.786-3.802-2.144
		c-0.891-0.445-0.693-2.258-0.693-2.258l-4.521-3.703L81.395,7.058z"/>
	<path clip-path="url(#SVGID_2_)" fill="#FFFFFF" stroke="#000000" stroke-miterlimit="10" d="M81.217,6.734
		c0,0,7.545,0.935,11.569,5.102c4.023,4.167,5.7,8.504,1.508,5.613c-4.19-2.892-4.19-6.634-10.646-8.588
		C83.648,8.861,81.72,8.775,81.217,6.734z"/>
	<path clip-path="url(#SVGID_2_)" fill="#F7941E" stroke="#000000" stroke-width="0.25" stroke-miterlimit="10" d="M94.404,13.692
		l0.567,4.126c0,0,2.184,1.78,1.859-0.243C96.509,15.553,94.404,13.692,94.404,13.692z"/>
	<polygon clip-path="url(#SVGID_2_)" fill="#EF4136" stroke="#000000" stroke-width="0.25" stroke-miterlimit="10" points="
		65.497,4.575 64.688,5.577 68.005,5.577 67.277,4.575 	"/>
	<path clip-path="url(#SVGID_2_)" fill="#E6E7E8" stroke="#000000" stroke-miterlimit="10" d="M97.858,111.748
		c0,4.503-1.698,7.362-6.148,8.495c0,0-11.617,3.257-26.294,3.316c-19.821,0.081-28.433-3.423-29.287-5.421
		c-0.892-2.086-1.213-6.148-1.213-6.148h-0.647c0,0-1.051-6.473-1.213-8.657l0.729-16.827l0.323-41.585l0.89-15.291
		c0.162-3.775,2.993-9.142,5.906-10.437c5.299-2.355,10.36-5.093,24.514-5.501c16.828-0.485,28.164,6.135,30.42,10.032
		c1.78,3.075,1.244,5.292,1.619,10.275c1.213,16.181,1.831,51.923,1.941,67.15c0.018,2.549-0.972,10.437-0.972,10.437
		L97.858,111.748z"/>
	<path clip-path="url(#SVGID_2_)" fill="#939598" stroke="#000000" stroke-miterlimit="10" d="M34.916,111.91l5.259-8.334
		l2.751-2.346l45.792,1.051l2.428-0.323l1.617,1.214l5.421,8.414l-1.375,6.148l-1.457-0.647c0,0-28.073,11.327-56.471,0.81
		l-2.913,0.242L34.916,111.91z"/>
	<path clip-path="url(#SVGID_2_)" fill="#58595B" stroke="#000000" stroke-miterlimit="10" d="M40.66,56.733l1.294,54.53
		c0,0,28.154,4.53,49.028-0.647l0.809-55.177C91.791,55.438,62.503,48.805,40.66,56.733z"/>
	<path clip-path="url(#SVGID_2_)" fill="#FFFFFF" stroke="#000000" stroke-miterlimit="10" d="M37.423,26.637l3.884,26.537
		l19.417-2.265l0.971-3.883l9.223-0.162l0.971,3.721l19.256,2.104l3.721-25.728c0,0-7.119-7.767-27.992-7.767
		C46,19.193,37.423,26.637,37.423,26.637z"/>
	<path clip-path="url(#SVGID_2_)" fill="#FFFFFF" stroke="#000000" stroke-miterlimit="10" d="M94.38,87.315l4.045-2.267v12.945
		C98.425,97.994,93.409,98.155,94.38,87.315z"/>
	<path clip-path="url(#SVGID_2_)" fill="#FFFFFF" stroke="#000000" stroke-miterlimit="10" d="M94.219,84.726l3.721-1.779
		l-0.646-39.643h-0.647C96.646,43.303,91.145,73.399,94.219,84.726z"/>
	<path clip-path="url(#SVGID_2_)" fill="#FFFFFF" stroke="#000000" stroke-miterlimit="10" d="M35.481,42.979l-0.323,40.453
		l3.236,1.456C38.395,84.888,38.88,55.6,35.481,42.979z"/>
	<path clip-path="url(#SVGID_2_)" fill="#FFFFFF" stroke="#000000" stroke-miterlimit="10" d="M34.997,85.534l3.883,2.428
		c0,0,1.456,8.576-3.56,9.385L34.997,85.534z"/>
	<path clip-path="url(#SVGID_2_)" fill="#ED1C24" stroke="#000000" stroke-miterlimit="10" d="M56.84,118.382
		c0,0,9.546-4.449,17.88-0.161C74.721,118.221,57.568,121.354,56.84,118.382z"/>
	<path clip-path="url(#SVGID_2_)" fill="#FFFFFF" stroke="#000000" stroke-miterlimit="10" d="M36.21,118.139l2.832-3.479
		c0,0,0.494-0.831,2.993,0.566c2.751,1.537,10.922,3.074,14.482,3.397c3.56,0.324,21.764,0.647,33.333-3.316
		c3.274-1.123,3.453-1.771,4.53-1.295c1.011,0.447,2.508,3.641,2.508,3.641s-0.728,4.045-25.809,5.826
		C46,125.259,36.857,119.838,36.21,118.139z"/>
	<path clip-path="url(#SVGID_2_)" fill="#BE1E2D" stroke="#000000" stroke-width="0.5" stroke-miterlimit="10" d="M34.025,114.66
		l1.537,3.803l3.641,2.427c0,0-2.265-0.323-4.935-2.184L34.025,114.66z"/>
	<path clip-path="url(#SVGID_2_)" fill="#BE1E2D" stroke="#000000" stroke-width="0.5" stroke-miterlimit="10" d="M93.571,120.566
		c0,0,2.555-0.731,3.802-2.913c0.647-1.132,1.214-2.831,1.214-2.831l-0.081,3.479C98.506,118.301,96.24,120.728,93.571,120.566z"/>
	<path clip-path="url(#SVGID_2_)" fill="#6D6E71" stroke="#000000" stroke-miterlimit="10" d="M35.967,41.793
		c0,0-2.05-1.078-2.913-0.216c0,0,0.324,2.266-0.647,2.266c-0.971,0-7.012,2.049-7.012,2.049s-2.374,0.972-0.971-3.021
		c0,0,6.58-5.717,8.63-3.667l2.697,0.108L35.967,41.793z"/>
	<path clip-path="url(#SVGID_2_)" fill="#6D6E71" stroke="#000000" stroke-miterlimit="10" d="M96.593,41.794
		c0,0,2.02-1.134,2.905-0.294c0,0-0.262,2.272,0.709,2.247c0.97-0.026,7.064,1.858,7.064,1.858s2.398,0.906,0.889-3.046
		c0,0-6.734-5.537-8.727-3.432l-2.692,0.181L96.593,41.794z"/>
	<polygon clip-path="url(#SVGID_2_)" stroke="#000000" stroke-width="0.25" stroke-miterlimit="10" points="50.125,22.106 
		43.491,21.944 42.763,22.268 40.66,22.349 40.821,23.158 42.521,22.996 43.249,23.32 49.963,22.996 66.225,23.239 79.736,23.967 
		79.898,23.239 66.387,22.51 	"/>
	<polygon clip-path="url(#SVGID_2_)" stroke="#000000" stroke-width="0.25" stroke-miterlimit="10" points="89.202,22.268 
		91.063,22.672 91.387,23.32 89.363,23.563 88.23,22.672 79.736,21.863 55.061,21.863 55.223,20.973 79.655,20.973 88.313,21.621 	
		"/>
	<path clip-path="url(#SVGID_2_)" stroke="#000000" stroke-width="0.25" stroke-miterlimit="10" d="M43.896,17.818l1.456,0.971
		c0,0,6.472-2.67,14.806-3.155c2.993-0.174,5.097-0.162,5.097-0.162l-0.081,0.404h2.021v-0.404c0,0,3.668,0.017,4.37,0.061
		c10.618,0.655,15.371,3.337,15.371,3.337l1.456-0.809c0,0-6.067-4.538-22.168-4.45C51.42,13.692,43.896,17.818,43.896,17.818z"/>
	<path clip-path="url(#SVGID_2_)" stroke="#E6E7E8" stroke-width="0.25" stroke-miterlimit="10" d="M100.44,82.701l-0.416-2.668
		l-1.085,0.584l-0.083,16.837l1.334-0.249l0.333-3.001C105.275,87.536,100.44,82.701,100.44,82.701z M100.44,91.953l-0.083-6.835
		c0,0,1.249,0.416,1.333,2.668C101.774,90.035,100.44,91.953,100.44,91.953z"/>
	<path clip-path="url(#SVGID_2_)" stroke="#E6E7E8" stroke-width="0.25" stroke-miterlimit="10" d="M32.779,94.335l0.337,3.029
		l1.346,0.252l-0.084-16.994l-1.094-0.589l-0.42,2.692C32.863,82.726,27.983,87.605,32.779,94.335z M31.601,87.857
		c0.085-2.271,1.347-2.692,1.347-2.692l-0.084,6.899C32.863,92.064,31.517,90.129,31.601,87.857z"/>
	
		<line clip-path="url(#SVGID_2_)" fill="none" stroke="#000000" stroke-miterlimit="10" x1="41.954" y1="111.263" x2="40.013" y2="114.498"/>
	
		<line clip-path="url(#SVGID_2_)" fill="none" stroke="#000000" stroke-miterlimit="10" x1="90.982" y1="110.615" x2="93.166" y2="114.013"/>
	
		<line clip-path="url(#SVGID_2_)" fill="none" stroke="#000000" stroke-width="0.25" stroke-miterlimit="10" x1="97.616" y1="35.86" x2="99.234" y2="35.941"/>
	
		<line clip-path="url(#SVGID_2_)" fill="#A7A9AC" stroke="#000000" stroke-width="0.25" stroke-miterlimit="10" x1="34.673" y1="35.779" x2="33.297" y2="35.86"/>
	
		<line clip-path="url(#SVGID_2_)" fill="none" stroke="#000000" stroke-width="0.25" stroke-miterlimit="10" x1="33.783" y1="84.159" x2="32.893" y2="84.079"/>
	
		<line clip-path="url(#SVGID_2_)" fill="none" stroke="#000000" stroke-width="0.25" stroke-miterlimit="10" x1="99.234" y1="84.24" x2="100.044" y2="84.321"/>
	<path clip-path="url(#SVGID_2_)" fill="#FFFFFF" stroke="#000000" stroke-width="0.25" stroke-miterlimit="10" d="M38.435,14.339
		c0,0,4.369-5.057,9.385-6.108"/>
	<path clip-path="url(#SVGID_2_)" fill="#FFFFFF" stroke="#000000" stroke-width="0.25" stroke-miterlimit="10" d="M38.476,15.027
		c0,0,4.652-4.976,9.425-6.432"/>
	<path clip-path="url(#SVGID_2_)" fill="none" stroke="#000000" stroke-width="0.25" stroke-miterlimit="10" d="M38.597,15.917
		c0,0,4.976-5.744,9.345-6.958"/>
	<path clip-path="url(#SVGID_2_)" fill="none" stroke="#000000" stroke-width="0.25" stroke-miterlimit="10" d="M93.976,14.42
		c0,0-5.016-5.663-10.032-6.715"/>
	<path clip-path="url(#SVGID_2_)" fill="none" stroke="#000000" stroke-width="0.25" stroke-miterlimit="10" d="M93.935,15.108
		c0,0-5.177-5.583-9.95-7.039"/>
	<path clip-path="url(#SVGID_2_)" fill="none" stroke="#000000" stroke-width="0.25" stroke-miterlimit="10" d="M93.813,15.998
		c0,0-5.34-6.23-9.709-7.443"/>
	
		<line clip-path="url(#SVGID_2_)" fill="none" stroke="#FFFFFF" stroke-width="0.25" stroke-miterlimit="10" x1="46.161" y1="17.333" x2="46.485" y2="17.98"/>
	
		<line clip-path="url(#SVGID_2_)" fill="none" stroke="#FFFFFF" stroke-width="0.25" stroke-miterlimit="10" x1="46.721" y1="17.104" x2="47.031" y2="17.723"/>
	
		<line clip-path="url(#SVGID_2_)" fill="none" stroke="#FFFFFF" stroke-width="0.25" stroke-miterlimit="10" x1="47.32" y1="16.876" x2="47.591" y2="17.547"/>
	
		<line clip-path="url(#SVGID_2_)" fill="none" stroke="#FFFFFF" stroke-width="0.25" stroke-miterlimit="10" x1="47.847" y1="16.672" x2="48.089" y2="17.319"/>
	
		<line clip-path="url(#SVGID_2_)" fill="none" stroke="#FFFFFF" stroke-width="0.25" stroke-miterlimit="10" x1="48.404" y1="16.421" x2="48.657" y2="17.1"/>
	
		<line clip-path="url(#SVGID_2_)" fill="none" stroke="#FFFFFF" stroke-width="0.25" stroke-miterlimit="10" x1="48.985" y1="16.253" x2="49.227" y2="16.902"/>
	
		<line clip-path="url(#SVGID_2_)" fill="none" stroke="#FFFFFF" stroke-width="0.25" stroke-miterlimit="10" x1="49.605" y1="16.09" x2="49.803" y2="16.786"/>
	
		<line clip-path="url(#SVGID_2_)" fill="none" stroke="#FFFFFF" stroke-width="0.25" stroke-miterlimit="10" x1="50.15" y1="15.943" x2="50.323" y2="16.612"/>
	
		<line clip-path="url(#SVGID_2_)" fill="none" stroke="#FFFFFF" stroke-width="0.25" stroke-miterlimit="10" x1="50.753" y1="15.693" x2="50.949" y2="16.39"/>
	
		<line clip-path="url(#SVGID_2_)" fill="none" stroke="#FFFFFF" stroke-width="0.25" stroke-miterlimit="10" x1="51.346" y1="15.575" x2="51.534" y2="16.24"/>
	
		<line clip-path="url(#SVGID_2_)" fill="none" stroke="#FFFFFF" stroke-width="0.25" stroke-miterlimit="10" x1="51.978" y1="15.463" x2="52.118" y2="16.173"/>
	
		<line clip-path="url(#SVGID_2_)" fill="none" stroke="#FFFFFF" stroke-width="0.25" stroke-miterlimit="10" x1="52.533" y1="15.361" x2="52.65" y2="16.043"/>
	
		<line clip-path="url(#SVGID_2_)" fill="none" stroke="#FFFFFF" stroke-width="0.25" stroke-miterlimit="10" x1="53.128" y1="15.221" x2="53.249" y2="15.935"/>
	
		<line clip-path="url(#SVGID_2_)" fill="none" stroke="#FFFFFF" stroke-width="0.25" stroke-miterlimit="10" x1="53.73" y1="15.166" x2="53.846" y2="15.848"/>
	
		<line clip-path="url(#SVGID_2_)" fill="none" stroke="#FFFFFF" stroke-width="0.25" stroke-miterlimit="10" x1="54.37" y1="15.122" x2="54.434" y2="15.843"/>
	
		<line clip-path="url(#SVGID_2_)" fill="none" stroke="#FFFFFF" stroke-width="0.25" stroke-miterlimit="10" x1="54.934" y1="15.08" x2="54.977" y2="15.77"/>
	
		<line clip-path="url(#SVGID_2_)" fill="none" stroke="#FFFFFF" stroke-width="0.25" stroke-miterlimit="10" x1="55.611" y1="14.901" x2="55.79" y2="15.602"/>
	
		<line clip-path="url(#SVGID_2_)" fill="none" stroke="#FFFFFF" stroke-width="0.25" stroke-miterlimit="10" x1="56.206" y1="14.796" x2="56.378" y2="15.466"/>
	
		<line clip-path="url(#SVGID_2_)" fill="none" stroke="#FFFFFF" stroke-width="0.25" stroke-miterlimit="10" x1="56.84" y1="14.699" x2="56.963" y2="15.413"/>
	
		<line clip-path="url(#SVGID_2_)" fill="none" stroke="#FFFFFF" stroke-width="0.25" stroke-miterlimit="10" x1="57.397" y1="14.61" x2="57.499" y2="15.294"/>
	
		<line clip-path="url(#SVGID_2_)" fill="none" stroke="#FFFFFF" stroke-width="0.25" stroke-miterlimit="10" x1="57.996" y1="14.483" x2="58.1" y2="15.2"/>
	
		<line clip-path="url(#SVGID_2_)" fill="none" stroke="#FFFFFF" stroke-width="0.25" stroke-miterlimit="10" x1="58.599" y1="14.442" x2="58.698" y2="15.127"/>
	
		<line clip-path="url(#SVGID_2_)" fill="none" stroke="#FFFFFF" stroke-width="0.25" stroke-miterlimit="10" x1="59.24" y1="14.414" x2="59.286" y2="15.135"/>
	
		<line clip-path="url(#SVGID_2_)" fill="none" stroke="#FFFFFF" stroke-width="0.25" stroke-miterlimit="10" x1="59.803" y1="14.384" x2="59.831" y2="15.075"/>
	
		<line clip-path="url(#SVGID_2_)" fill="none" stroke="#FFFFFF" stroke-width="0.25" stroke-miterlimit="10" x1="60.445" y1="14.268" x2="60.49" y2="14.99"/>
	
		<line clip-path="url(#SVGID_2_)" fill="none" stroke="#FFFFFF" stroke-width="0.25" stroke-miterlimit="10" x1="61.05" y1="14.276" x2="61.093" y2="14.966"/>
	
		<line clip-path="url(#SVGID_2_)" fill="none" stroke="#FFFFFF" stroke-width="0.25" stroke-miterlimit="10" x1="61.691" y1="14.301" x2="61.677" y2="15.024"/>
	
		<line clip-path="url(#SVGID_2_)" fill="none" stroke="#FFFFFF" stroke-width="0.25" stroke-miterlimit="10" x1="62.255" y1="14.318" x2="62.225" y2="15.009"/>
	
		<line clip-path="url(#SVGID_2_)" fill="none" stroke="#FFFFFF" stroke-width="0.25" stroke-miterlimit="10" x1="62.866" y1="14.307" x2="62.833" y2="15.03"/>
	
		<line clip-path="url(#SVGID_2_)" fill="none" stroke="#FFFFFF" stroke-width="0.25" stroke-miterlimit="10" x1="63.438" y1="14.214" x2="63.494" y2="14.903"/>
	
		<line clip-path="url(#SVGID_2_)" fill="none" stroke="#FFFFFF" stroke-width="0.25" stroke-miterlimit="10" x1="64.079" y1="14.226" x2="64.08" y2="14.949"/>
	
		<line clip-path="url(#SVGID_2_)" fill="none" stroke="#FFFFFF" stroke-width="0.25" stroke-miterlimit="10" x1="64.643" y1="14.232" x2="64.626" y2="14.923"/>
	
		<line clip-path="url(#SVGID_2_)" fill="none" stroke="#FFFFFF" stroke-width="0.25" stroke-miterlimit="10" x1="65.19" y1="14.222" x2="65.209" y2="14.946"/>
	
		<line clip-path="url(#SVGID_2_)" fill="none" stroke="#FFFFFF" stroke-width="0.25" stroke-miterlimit="10" x1="65.771" y1="14.199" x2="65.81" y2="14.891"/>
	
		<line clip-path="url(#SVGID_2_)" fill="none" stroke="#FFFFFF" stroke-width="0.25" stroke-miterlimit="10" x1="66.394" y1="14.23" x2="66.449" y2="14.952"/>
	
		<line clip-path="url(#SVGID_2_)" fill="none" stroke="#FFFFFF" stroke-width="0.25" stroke-miterlimit="10" x1="67.038" y1="14.247" x2="67.139" y2="14.93"/>
	
		<line clip-path="url(#SVGID_2_)" fill="none" stroke="#FFFFFF" stroke-width="0.25" stroke-miterlimit="10" x1="67.636" y1="14.119" x2="67.74" y2="14.836"/>
	
		<line clip-path="url(#SVGID_2_)" fill="none" stroke="#FFFFFF" stroke-width="0.25" stroke-miterlimit="10" x1="68.239" y1="14.078" x2="68.339" y2="14.763"/>
	
		<line clip-path="url(#SVGID_2_)" fill="none" stroke="#FFFFFF" stroke-width="0.25" stroke-miterlimit="10" x1="68.881" y1="14.049" x2="68.927" y2="14.771"/>
	
		<line clip-path="url(#SVGID_2_)" fill="none" stroke="#FFFFFF" stroke-width="0.25" stroke-miterlimit="10" x1="69.444" y1="14.02" x2="69.472" y2="14.711"/>
	
		<line clip-path="url(#SVGID_2_)" fill="none" stroke="#FFFFFF" stroke-width="0.25" stroke-miterlimit="10" x1="70.085" y1="13.904" x2="70.131" y2="14.625"/>
	
		<line clip-path="url(#SVGID_2_)" fill="none" stroke="#FFFFFF" stroke-width="0.25" stroke-miterlimit="10" x1="70.69" y1="14.033" x2="70.733" y2="14.724"/>
	
		<line clip-path="url(#SVGID_2_)" fill="none" stroke="#FFFFFF" stroke-width="0.25" stroke-miterlimit="10" x1="71.331" y1="14.058" x2="71.319" y2="14.782"/>
	
		<line clip-path="url(#SVGID_2_)" fill="none" stroke="#FFFFFF" stroke-width="0.25" stroke-miterlimit="10" x1="71.896" y1="14.076" x2="71.866" y2="14.767"/>
	
		<line clip-path="url(#SVGID_2_)" fill="none" stroke="#FFFFFF" stroke-width="0.25" stroke-miterlimit="10" x1="72.507" y1="14.064" x2="72.475" y2="14.788"/>
	
		<line clip-path="url(#SVGID_2_)" fill="none" stroke="#FFFFFF" stroke-width="0.25" stroke-miterlimit="10" x1="73.107" y1="14.138" x2="73.077" y2="14.828"/>
	
		<line clip-path="url(#SVGID_2_)" fill="none" stroke="#FFFFFF" stroke-width="0.25" stroke-miterlimit="10" x1="73.741" y1="14.229" x2="73.652" y2="14.947"/>
	
		<line clip-path="url(#SVGID_2_)" fill="none" stroke="#FFFFFF" stroke-width="0.25" stroke-miterlimit="10" x1="74.301" y1="14.307" x2="74.198" y2="14.991"/>
	
		<line clip-path="url(#SVGID_2_)" fill="none" stroke="#FFFFFF" stroke-width="0.25" stroke-miterlimit="10" x1="74.771" y1="14.368" x2="74.757" y2="15.092"/>
	
		<line clip-path="url(#SVGID_2_)" fill="none" stroke="#FFFFFF" stroke-width="0.25" stroke-miterlimit="10" x1="75.335" y1="14.385" x2="75.305" y2="15.076"/>
	
		<line clip-path="url(#SVGID_2_)" fill="none" stroke="#FFFFFF" stroke-width="0.25" stroke-miterlimit="10" x1="75.945" y1="14.374" x2="75.913" y2="15.097"/>
	
		<line clip-path="url(#SVGID_2_)" fill="none" stroke="#FFFFFF" stroke-width="0.25" stroke-miterlimit="10" x1="76.545" y1="14.447" x2="76.515" y2="15.138"/>
	
		<line clip-path="url(#SVGID_2_)" fill="none" stroke="#FFFFFF" stroke-width="0.25" stroke-miterlimit="10" x1="77.03" y1="14.663" x2="77" y2="15.354"/>
	
		<line clip-path="url(#SVGID_2_)" fill="none" stroke="#FFFFFF" stroke-width="0.25" stroke-miterlimit="10" x1="77.53" y1="14.773" x2="77.469" y2="15.494"/>
	
		<line clip-path="url(#SVGID_2_)" fill="none" stroke="#FFFFFF" stroke-width="0.25" stroke-miterlimit="10" x1="78.126" y1="14.871" x2="78.068" y2="15.559"/>
	
		<line clip-path="url(#SVGID_2_)" fill="none" stroke="#FFFFFF" stroke-width="0.25" stroke-miterlimit="10" x1="78.757" y1="14.988" x2="78.638" y2="15.701"/>
	
		<line clip-path="url(#SVGID_2_)" fill="none" stroke="#FFFFFF" stroke-width="0.25" stroke-miterlimit="10" x1="79.313" y1="15.087" x2="79.183" y2="15.767"/>
	
		<line clip-path="url(#SVGID_2_)" fill="none" stroke="#FFFFFF" stroke-width="0.25" stroke-miterlimit="10" x1="79.92" y1="15.165" x2="79.781" y2="15.876"/>
	
		<line clip-path="url(#SVGID_2_)" fill="none" stroke="#FFFFFF" stroke-width="0.25" stroke-miterlimit="10" x1="80.502" y1="15.325" x2="80.371" y2="16.004"/>
	
		<line clip-path="url(#SVGID_2_)" fill="none" stroke="#FFFFFF" stroke-width="0.25" stroke-miterlimit="10" x1="81.116" y1="15.509" x2="80.923" y2="16.206"/>
	
		<line clip-path="url(#SVGID_2_)" fill="none" stroke="#FFFFFF" stroke-width="0.25" stroke-miterlimit="10" x1="81.659" y1="15.667" x2="81.457" y2="16.329"/>
	
		<line clip-path="url(#SVGID_2_)" fill="none" stroke="#FFFFFF" stroke-width="0.25" stroke-miterlimit="10" x1="82.304" y1="15.77" x2="82.106" y2="16.466"/>
	
		<line clip-path="url(#SVGID_2_)" fill="none" stroke="#FFFFFF" stroke-width="0.25" stroke-miterlimit="10" x1="82.871" y1="15.977" x2="82.684" y2="16.643"/>
	
		<line clip-path="url(#SVGID_2_)" fill="none" stroke="#FFFFFF" stroke-width="0.25" stroke-miterlimit="10" x1="83.468" y1="16.211" x2="83.217" y2="16.89"/>
	
		<line clip-path="url(#SVGID_2_)" fill="none" stroke="#FFFFFF" stroke-width="0.25" stroke-miterlimit="10" x1="83.995" y1="16.414" x2="83.739" y2="17.057"/>
	
		<line clip-path="url(#SVGID_2_)" fill="none" stroke="#FFFFFF" stroke-width="0.25" stroke-miterlimit="10" x1="84.576" y1="16.605" x2="84.307" y2="17.277"/>
	
		<line clip-path="url(#SVGID_2_)" fill="none" stroke="#FFFFFF" stroke-width="0.25" stroke-miterlimit="10" x1="85.118" y1="16.872" x2="84.861" y2="17.514"/>
	
		<line clip-path="url(#SVGID_2_)" fill="none" stroke="#FFFFFF" stroke-width="0.25" stroke-miterlimit="10" x1="85.688" y1="17.167" x2="85.365" y2="17.816"/>
	
		<line clip-path="url(#SVGID_2_)" fill="none" stroke="#FFFFFF" stroke-width="0.25" stroke-miterlimit="10" x1="86.189" y1="17.425" x2="85.866" y2="18.037"/>
</g>
</svg>
