<?xml version="1.0" encoding="utf-8"?>
<!-- Generator: Adobe Illustrator 16.0.3, SVG Export Plug-In . SVG Version: 6.00 Build 0)  -->
<!DOCTYPE svg PUBLIC "-//W3C//DTD SVG 1.1//EN" "http://www.w3.org/Graphics/SVG/1.1/DTD/svg11.dtd">
<svg version="1.1" id="Layer_1" xmlns="http://www.w3.org/2000/svg" xmlns:xlink="http://www.w3.org/1999/xlink" x="0px" y="0px"
	 width="500px" height="400px" viewBox="0 0 500 400" enable-background="new 0 0 500 400" xml:space="preserve">
<g>
	<defs>
		<rect id="SVGID_1_" x="4.607" y="77.584" width="488.128" height="252.968"/>
	</defs>
	<clipPath id="SVGID_2_">
		<use xlink:href="#SVGID_1_"  overflow="visible"/>
	</clipPath>
	<path clip-path="url(#SVGID_2_)" fill="#414042" stroke="#000000" stroke-miterlimit="10" d="M425.008,252.455l-0.333,9.833l28-1.5
		c0,0,2.667-1.999,2.5-3.333s-2-7-2-7L425.008,252.455z"/>
	<path clip-path="url(#SVGID_2_)" fill="#58595B" stroke="#000000" stroke-miterlimit="10" d="M452.508,251.788
		c0,0-1.5,5.501,0.5,5.667c0,0,0.667-1.333,4.167-0.5s9,2.5,9,2.5l10-6.167l-21.333-2.667L452.508,251.788z"/>
	<path clip-path="url(#SVGID_2_)" fill="#414042" stroke="#000000" stroke-miterlimit="10" d="M29.591,259.205c0,0-0.25,8,2.25,9
		s21.5,2.75,21.5,2.75v-7.25l13,1l4.25-15.75l8-16.75l26.75-7.25l21.75,16.25l7.25,21.75l4.25-2.5l8,0.5l4-0.75l-4.5-27
		c0,0-5-27.25-23-31s-53.5-6.25-62.75,8.5s-10,48.25-10,48.25L29.591,259.205z"/>
	<path clip-path="url(#SVGID_2_)" fill="#414042" stroke="#000000" stroke-miterlimit="10" d="M336.341,258.455
		c0,0,6.5,17.75,19.25,19.5l0.25-27l13.25-18l17-5.75l27.75,12l2.25,8.75l5.75,5.75l13-1l0.25-29l-16.25-22.5c0,0-54.5-9.5-67,2.75
		s-15.25,41.5-15.25,41.5L336.341,258.455z"/>
	<path clip-path="url(#SVGID_2_)" stroke="#000000" stroke-miterlimit="10" d="M140.675,255.456
		c0,21.538-17.135,39.832-39.916,39.832s-41.25-17.461-41.25-38.999c0-21.541,18.469-39.001,41.25-39.001
		S140.675,233.915,140.675,255.456z"/>
	<ellipse clip-path="url(#SVGID_2_)" stroke="#000000" stroke-miterlimit="10" cx="385.425" cy="256.622" rx="40.583" ry="38.999"/>
	<polygon clip-path="url(#SVGID_2_)" stroke="#000000" stroke-miterlimit="10" points="478.925,169.039 482.258,168.622 
		482.675,169.956 480.425,171.456 481.925,171.622 481.675,172.789 479.175,173.539 	"/>
	<path clip-path="url(#SVGID_2_)" stroke="#000000" stroke-miterlimit="10" d="M455.216,120.955c0,0,3.625,3.25,1,3.875
		s-4,1.375-4,1.375l-1.375-5.25H455.216z"/>
	<polygon clip-path="url(#SVGID_2_)" fill="#726658" stroke="#000000" stroke-miterlimit="10" points="210.924,119.206 
		212.591,116.122 215.174,115.289 214.841,119.122 	"/>
	<path clip-path="url(#SVGID_2_)" fill="#C2B59B" stroke="#000000" stroke-miterlimit="10" d="M24.841,189.33l-2.625,5.5
		c0,0-6.25,15.875-7.25,19.125s-0.75,5.375-0.75,5.375s-1.375,1.75-1.75,2.875s0.125,11.875,0.125,11.875s-3.625,2.25,0.125,7
		s6,13,6.25,13.75s0,5.625,14.25,7.25s19.25,1.75,19.25,1.75s0-17.625,1.25-23.875s2.75-24.25,13.375-29.875s35.5-6.125,39.5-5.75
		s25.001,1.375,30.251,12.125s6.249,22.5,6.999,27s1.25,11.875,1.25,11.875l51.125,0.125l35.75-0.5l107.5-2.25
		c0,0,1.625-13.875,2.625-18.625s5.25-22.125,11.375-25.625s10.625-5.5,22.625-6.625s34.875,1.25,34.875,1.25
		s10.875,1.625,14.25,11.875s9.75,4.75,9.75,4.75l31.75,2.5l7.125-11l-1.375-45.375l-30.25-45.125l-6.625-4.375l-15.25-2.125
		l-79-1.5l-43.375,0.25l-25.125,0.875l-10.375,0.5c0,0-37.375,1.75-43.5,2.75s-15.5,2.625-23.125,7.625s-7.625,6.625-7.625,6.625
		l-32,22.5l-16.625,10.625l-10.25,2l-86.25,12.375l-16.75,8.75L24.841,189.33z"/>
	<polygon clip-path="url(#SVGID_2_)" stroke="#000000" stroke-miterlimit="10" points="145.091,254.205 146.091,265.955 
		335.842,265.121 339.675,265.121 339.509,250.621 	"/>
	<path clip-path="url(#SVGID_2_)" fill="#BCBEC0" stroke="#414042" stroke-width="0.5" stroke-miterlimit="10" d="M332.091,261.205
		c0,0.414-0.336,0.75-0.75,0.75h-175.75c-0.414,0-0.75-0.336-0.75-0.75l0,0c0-0.414,0.336-0.75,0.75-0.75h175.75
		C331.755,260.455,332.091,260.791,332.091,261.205L332.091,261.205z"/>
	<path clip-path="url(#SVGID_2_)" fill="#726658" stroke="#000000" stroke-miterlimit="10" d="M24.341,189.58l5,1.209l11-7.5
		l2.5,0.667c0,0,4.334-3.334,23.667-6.167s67-7.833,67-7.833l5.666-1.167l-6.5-0.833l-5.166-2.833c0,0-52.834,4.666-64.167,6.833
		s-29.333,7-32.333,8.5S24.341,189.58,24.341,189.58z"/>
	<g clip-path="url(#SVGID_2_)">
		<g>
			
				<rect x="157.619" y="210.91" transform="matrix(0.9995 -0.0322 0.0322 0.9995 -6.8058 5.283)" fill="#C49A6C" stroke="#000000" stroke-width="0.01" stroke-miterlimit="10" width="5.912" height="5.952"/>
			<polygon fill="#A7A9AC" stroke="#000000" stroke-width="0.01" stroke-miterlimit="10" points="159.118,216.912 158.573,216.928 
				158.378,210.977 158.923,210.962 			"/>
			
				<rect x="157.636" y="214.14" transform="matrix(0.9995 -0.0329 0.0329 0.9995 -6.9565 5.3926)" fill="#BCBEC0" stroke="#000000" stroke-width="0.01" stroke-miterlimit="10" width="5.975" height="0.502"/>
			
				<rect x="159.863" y="211.412" transform="matrix(0.9995 -0.0323 0.0323 0.9995 -6.7778 5.3231)" fill="#FFFFFF" stroke="#000000" stroke-width="0.01" stroke-miterlimit="10" width="2.962" height="2.006"/>
		</g>
		<g>
			<path fill="#C2B59B" stroke="#9B8579" stroke-width="0.1" stroke-miterlimit="10" d="M163.293,215.751
				c-0.173,0.188-0.796,0.776-1.037,0.778c-0.072,0.002-0.125-0.054-0.127-0.126c-0.002-0.146,0.212-0.419,0.311-0.525
				c0.156-0.183,0.306-0.271,0.534-0.335l0.598-0.654l-0.775,0.074c-0.037,0.006-0.253,0.01-0.267-0.064
				c-0.021-0.145-0.004-0.27,0.132-0.36c0.156-0.104,0.5-0.22,0.695-0.26l0.794-0.165c0.167-0.232,0.574-0.956,0.571-1.212
				c-0.003-0.103-0.08-0.096-0.166-0.093c-0.012-0.001-0.038-0.021-0.432,0.048c-0.598,0.109-1.191,0.269-1.739,0.518l0.011,0.01
				l0.271-0.011c0.036,0,0.097-0.005,0.099,0.045c0,0.063-0.112,0.084-0.156,0.092l-0.598,0.197
				c-0.351,0.115-0.398,0.053-0.401-0.04c-0.001-0.15,0.286-0.675,0.387-0.802c0.197-0.259,0.479-0.32,0.78-0.393
				c1.354-0.335,1.745-0.357,2.05-0.363c0.188-0.003,0.536,0.015,0.542,0.269c0.006,0.383-0.558,1.412-0.787,1.759l0.348,0.051
				l-0.202,0.338c-0.038,0.068-0.07,0.136-0.136,0.168c-0.112,0.056-0.305,0.08-0.424,0.105L163.293,215.751z"/>
			<path fill="#C2B59B" stroke="#9B8579" stroke-width="0.1" stroke-miterlimit="10" d="M165.368,214.542
				c-0.178,0.287-0.394,0.427-0.612,0.652l-0.023-0.229c0.132-0.111,0.238-0.243,0.336-0.384c-0.11-0.01-0.142-0.05-0.144-0.161
				c-0.006-0.373,0.519-0.754,0.642-0.757c0.052-0.002,0.095,0.04,0.096,0.088c-0.002,0.052-0.016,0.097-0.034,0.145
				c0.487-0.075,0.771-0.143,0.824-0.082c0.082,0.098,0.119,0.183,0.131,0.273c0.003,0.161-0.096,0.24-0.214,0.341
				c-0.149,0.134-0.398,0.392-0.394,0.6c0.001,0.085,0.086,0.143,0.163,0.143c0.222-0.005,0.545-0.346,0.712-0.478l0.039,0.191
				c-0.192,0.226-0.78,0.812-1.075,0.816c-0.218,0.004-0.356-0.194-0.359-0.393c-0.007-0.355,0.258-0.633,0.462-0.889l-0.008-0.008
				L165.368,214.542z"/>
			<path fill="#C2B59B" stroke="#9B8579" stroke-width="0.1" stroke-miterlimit="10" d="M167.678,215.275
				c-0.096,0.08-0.423,0.357-0.543,0.358c-0.146,0.004-0.454-0.337-0.467-0.605c-0.032-0.648,1.307-1.337,1.91-1.364
				c0.238-0.009,0.342,0.182,0.343,0.243c0.002,0.063-0.134,0.116-0.183,0.134c0.102,0.04,0.155,0.096,0.156,0.211
				c0.002,0.167-0.445,0.538-0.438,0.783c0.001,0.088,0.078,0.123,0.162,0.122c0.221-0.006,0.511-0.274,0.729-0.43l0.046,0.191
				c-0.219,0.261-0.906,0.826-1.161,0.83c-0.169,0.004-0.252-0.12-0.253-0.27c-0.005-0.168,0.116-0.446,0.182-0.587l-0.01-0.01
				L167.678,215.275z M167.047,215.151c0.007,0.027,0.03,0.119,0.105,0.103c0.104-0.022,0.268-0.009,1.276-1.068l-0.008-0.008
				C167.19,214.576,167.044,214.897,167.047,215.151z"/>
			<path fill="#C2B59B" stroke="#9B8579" stroke-width="0.1" stroke-miterlimit="10" d="M169.934,214.613
				c-0.113,0.085-0.206,0.165-0.204,0.311c0.003,0.12,0.131,0.279,0.398,0.274c0.396-0.005,0.843-0.379,1.14-0.615l0.068,0.2
				c-0.313,0.341-0.887,0.867-1.382,0.875c-0.399,0.007-0.599-0.365-0.604-0.746c-0.008-0.438,0.146-0.603,0.48-0.861
				c0.23-0.182,0.726-0.471,1.016-0.477c0.161-0.003,0.235,0.077,0.237,0.233c0.004,0.289-0.397,0.694-0.538,0.699
				c-0.121,0.001-0.175-0.13-0.18-0.228L169.934,214.613z"/>
			<path fill="#C2B59B" stroke="#9B8579" stroke-width="0.1" stroke-miterlimit="10" d="M173.017,213.372
				c-0.238,0.496-0.275,0.688-0.849,0.664c-0.172,0.23-0.462,0.663-0.455,0.976c0.001,0.113,0.037,0.18,0.158,0.179
				c0.165-0.002,0.351-0.163,0.885-0.557l0.029,0.228c-0.302,0.286-0.852,0.853-1.295,0.859c-0.202,0.004-0.329-0.134-0.333-0.343
				c-0.004-0.173,0.061-0.37,0.126-0.522l-0.011-0.01l-0.262,0.219l-0.06-0.197c0.307-0.244,0.588-0.514,0.776-0.845
				c-0.318,0.005-0.222-0.018-0.494,0.027l0.055-0.094c0.274-0.46,0.313-0.546,0.87-0.574c0.153-0.217,0.261-0.464,0.564-0.468
				c0.067,0,0.164,0.014,0.166,0.095c0.003,0.096-0.146,0.27-0.195,0.344L173.017,213.372z"/>
			<path fill="#C2B59B" stroke="#9B8579" stroke-width="0.1" stroke-miterlimit="10" d="M174.226,214.844
				c-0.23,0.291-0.68,0.764-1.072,0.771c-0.31,0.004-0.455-0.347-0.46-0.612c-0.01-0.633,0.629-1.262,0.942-1.266
				c0.086-0.003,0.228,0.025,0.23,0.141c0.004,0.259-0.503,0.73-0.719,0.886c-0.037,0.214,0.041,0.325,0.282,0.32
				c0.273-0.004,0.541-0.283,0.746-0.437L174.226,214.844z M173.701,213.406c-0.004-0.211,0.242-0.403,0.446-0.407
				c0.094-0.001,0.173,0.066,0.173,0.158c0.005,0.207-0.183,0.467-0.407,0.469C173.788,213.63,173.703,213.531,173.701,213.406z"/>
			<path fill="#C2B59B" stroke="#9B8579" stroke-width="0.1" stroke-miterlimit="10" d="M176.328,214.704
				c-0.229,0.3-0.454,0.429-0.834,0.436c-0.215,0.227-0.467,0.397-0.794,0.402c-0.271,0.005-0.523-0.262-0.554-0.733
				c-0.018-0.389,0.17-0.653,0.458-0.883c0.276-0.233,0.649-0.379,0.967-0.4c0.116-0.006,0.284,0.043,0.287,0.183
				c0.001,0.08-0.057,0.109-0.116,0.143c0.155,0.039,0.189,0.148,0.192,0.306c0.002,0.226-0.098,0.411-0.191,0.615
				c0.229,0.037,0.372-0.161,0.529-0.284L176.328,214.704z M174.739,214.487c-0.112,0.115-0.209,0.319-0.206,0.481
				c0.002,0.149,0.104,0.195,0.231,0.191c0.172-0.001,0.282-0.104,0.397-0.213c-0.037-0.083-0.063-0.149-0.065-0.237
				c-0.005-0.271,0.235-0.604,0.213-0.611C175.136,214.204,174.89,214.332,174.739,214.487z"/>
			<path fill="#C2B59B" stroke="#9B8579" stroke-width="0.1" stroke-miterlimit="10" d="M178.7,214.414l0.043,0.229
				c-0.268,0.249-0.794,0.898-1.174,0.905c-0.198,0.002-0.293-0.163-0.295-0.34c-0.007-0.312,0.269-0.658,0.431-0.901l-0.011-0.012
				c-0.3,0.229-0.559,0.507-0.787,0.811c-0.077,0.103-0.264,0.356-0.405,0.358c-0.229,0.005-0.291-0.321-0.298-0.499
				c-0.021-0.357,0.296-0.887,0.594-1.148c0.065-0.057,0.112-0.063,0.199-0.063c0.314,0.003,0.291,0.076,0.291,0.107
				c0.002,0.204-0.645,0.739-0.644,0.864c0.003,0.031,0.028,0.056,0.06,0.056c0.036-0.002,0.083-0.047,0.105-0.074
				c0.403-0.537,1.35-1.193,1.503-1.196c0.02,0,0.053,0.025,0.081,0.099c0.034,0.077,0.067,0.17,0.086,0.28
				c0.001,0.202-0.631,0.606-0.626,0.967c0.001,0.046,0.047,0.092,0.096,0.091c0.125-0.002,0.351-0.188,0.442-0.268L178.7,214.414z"
				/>
			<path fill="#C2B59B" stroke="#9B8579" stroke-width="0.1" stroke-miterlimit="10" d="M179.523,215.078
				c-0.096,0.078-0.425,0.355-0.543,0.358c-0.146,0.001-0.453-0.338-0.467-0.608c-0.034-0.648,1.308-1.336,1.907-1.36
				c0.239-0.013,0.343,0.178,0.345,0.242c0,0.062-0.135,0.116-0.181,0.131c0.1,0.043,0.152,0.099,0.156,0.213
				c0.002,0.165-0.444,0.536-0.44,0.782c0,0.088,0.08,0.123,0.161,0.121c0.221-0.003,0.513-0.273,0.732-0.429l0.046,0.191
				c-0.22,0.259-0.909,0.825-1.16,0.831c-0.173,0.002-0.253-0.121-0.257-0.271c-0.003-0.167,0.116-0.447,0.183-0.587l-0.009-0.01
				L179.523,215.078z M178.893,214.951c0.008,0.028,0.028,0.12,0.104,0.103c0.105-0.022,0.268-0.009,1.278-1.065l-0.011-0.011
				C179.034,214.376,178.887,214.699,178.893,214.951z"/>
			<path fill="#C2B59B" stroke="#9B8579" stroke-width="0.1" stroke-miterlimit="10" d="M182.86,214.604
				c-0.278,0.301-0.759,0.835-1.204,0.842c-0.382,0.006-0.471-0.36-0.477-0.67c-0.009-0.544,0.217-1.135,0.547-1.556
				c0.446-0.572,0.933-1.066,1.1-1.068c0.089-0.003,0.111,0.123,0.107,0.191c-0.028,0.492-0.155,0.95-1.267,2.064
				c-0.044,0.088-0.057,0.233-0.031,0.355c0.052,0.119,0.124,0.225,0.265,0.22c0.288-0.003,0.681-0.341,0.885-0.534L182.86,214.604z
				 M181.774,213.926c0.363-0.348,0.677-0.853,0.766-1.151c-0.255,0.129-0.543,0.602-0.776,1.144L181.774,213.926z"/>
		</g>
	</g>
	<path clip-path="url(#SVGID_2_)" fill="#726658" stroke="#000000" stroke-miterlimit="10" d="M18.341,249.08
		c1.625,3.375,4.75,7.875,4.875,5.5s-4-8.5-4.375-9.375s-2.125-3.375-2.75-2.375S18.341,249.08,18.341,249.08z"/>
	<path clip-path="url(#SVGID_2_)" fill="#726658" stroke="#000000" stroke-miterlimit="10" d="M254.091,189.938
		c0,3.016-2.306,3.934-5.15,3.934h-3.062c-2.845,0-4.872-0.427-4.872-3.441v-3.442c0-3.015,2.027-4.032,4.872-4.032h3.062
		c2.845,0,5.15,1.313,5.15,4.327V189.938z"/>
	<path clip-path="url(#SVGID_2_)" fill="#726658" stroke="#000000" stroke-miterlimit="10" d="M348.591,186.801
		c0,2.993-2.241,3.904-5.008,3.904h-2.978c-2.766,0-5.008-0.585-5.099-3.22l0.091-3.417c0-2.991,2.242-4.197,5.008-4.197h2.978
		c2.767,0,5.008,1.303,5.008,4.295V186.801z"/>
	<path clip-path="url(#SVGID_2_)" fill="#9B8579" stroke="#000000" stroke-miterlimit="10" d="M354.592,187.122l-21.688-0.042
		c-0.651,0-3.346,0.372-3.188-1.313c0.209-2.229,3.092-1.688,3.875-1.688l20.125-0.75c0.783,0,3.209-0.542,3.292,1.375
		C357.114,187.155,355.375,187.122,354.592,187.122z"/>
	<path clip-path="url(#SVGID_2_)" fill="#9B8579" stroke="#000000" stroke-miterlimit="10" d="M259.758,189.955l-19.833,0.083
		c-0.651,0-4.833,0.084-4.917-1.5c-0.111-2.095,4.467-1.833,5.25-1.833l19.667-0.5c0.783,0,2.833-0.338,2.75,1.75
		C262.592,190.038,260.541,189.955,259.758,189.955z"/>
	
		<ellipse clip-path="url(#SVGID_2_)" fill="#9B8579" stroke="#000000" stroke-miterlimit="10" cx="259.789" cy="188.09" rx="1.469" ry="1.094"/>
	
		<line clip-path="url(#SVGID_2_)" fill="#9B8579" stroke="#000000" stroke-miterlimit="10" x1="256.925" y1="186.455" x2="256.758" y2="190.122"/>
	
		<line clip-path="url(#SVGID_2_)" fill="#9B8579" stroke="#000000" stroke-miterlimit="10" x1="351.759" y1="183.122" x2="351.592" y2="186.789"/>
	<path clip-path="url(#SVGID_2_)" fill="#726658" stroke="#000000" stroke-miterlimit="10" d="M265.591,115.58
		c0,0,2.5-4.25,8.25-4.625s39.625-1.875,41.75-1.875s30-0.25,36.125-0.25s39.709,0.666,41.792,0.708s33.333,1.792,35.208,2.042
		s4.25-0.5,6.875,4.75l-0.625,0.875l-35.375-2.125l-39-0.375l-69.125,0.375L265.591,115.58z"/>
	<path clip-path="url(#SVGID_2_)" fill="#58595B" stroke="#000000" stroke-miterlimit="10" d="M179.716,174.08l1.5,3l87.875-2.5
		l72.375-1.875c0,0,14.75-2.875,10.875-14.375s-12.75-27.375-12.75-27.375l-1.75,2.125l10.875,22.875l-2.125,10.25l-8.875,2.875
		l-54.125,1.625l-3.25,1.25L179.716,174.08z"/>
	<path clip-path="url(#SVGID_2_)" fill="none" stroke="#000000" stroke-miterlimit="10" d="M341.091,115.955c0,0,14.5,31.5,19,45.75
		s3.875,25.5,3.875,25.5l0.125,16.75"/>
	<path clip-path="url(#SVGID_2_)" fill="none" stroke="#000000" stroke-miterlimit="10" d="M269.966,252.08
		c0,0-0.125-58.625-0.375-68.75s-0.625-13-0.625-13s-2.375-52.375-3.5-53.5"/>
	<path clip-path="url(#SVGID_2_)" fill="none" stroke="#000000" stroke-miterlimit="10" d="M156.841,161.83c0,0-9,18.25-6.5,47.875
		s8,44.625,8,44.625"/>
	<path clip-path="url(#SVGID_2_)" fill="#FFFFFF" stroke="#000000" stroke-miterlimit="10" d="M364.466,121.83
		c0,0-9.5-1.125-7.375,4.875s23,38.875,23,38.875s0.875,2.25,7.5,2.625s75-0.25,75-0.25l4.75-2l-20.875-39.5l-3-2l-3-0.375
		L364.466,121.83z"/>
	<path clip-path="url(#SVGID_2_)" fill="#726658" stroke="#000000" stroke-miterlimit="10" d="M435.591,116.33
		c0,0,23.375,32.5,27.875,52.375l14.625-0.375c0,0-2-9.25-6.25-16.875s-17-28.5-24.125-31.375c-1.913-0.771-2.699-2.343-4.25-2.875
		C439.239,115.757,435.591,116.33,435.591,116.33z"/>
	<path clip-path="url(#SVGID_2_)" stroke="#000000" stroke-miterlimit="10" d="M264.674,114.956l-0.333,1.666
		c0,0,76.999-1.5,82.833-1.5s85.333,2,88,2.5s3.999-1.499-0.667-1.499s-38.082-1.752-40.332-1.835s-41.25-0.499-46.75-0.416
		s-39.75,0.584-43.75,0.5S264.674,114.956,264.674,114.956z"/>
	<path clip-path="url(#SVGID_2_)" stroke="#000000" stroke-miterlimit="10" d="M297.258,109.955l6.834-0.25
		C304.092,109.705,300.841,106.955,297.258,109.955z"/>
	<path clip-path="url(#SVGID_2_)" stroke="#000000" stroke-miterlimit="10" d="M393.508,109.538l7.917,0.417
		C401.425,109.955,397.091,107.073,393.508,109.538z"/>
	<path clip-path="url(#SVGID_2_)" fill="none" stroke="#000000" stroke-miterlimit="10" d="M294.592,111.955
		c0,0,41.417-1.666,49.917-1.75s57.333,1.5,57.333,1.5l11.25,0.833"/>
	<path clip-path="url(#SVGID_2_)" fill="#FFFFFF" stroke="#000000" stroke-miterlimit="10" d="M463.425,167.956
		c0,0,0.833,19.166,0.75,19.916s-0.417,24.167-0.417,24.167l14.917-0.083l1.417-1c0,0,0.916-18.75,0.916-23s-1.084-17.25-1.75-19
		s-15.416-0.167-15.416-0.167L463.425,167.956z"/>
	<path clip-path="url(#SVGID_2_)" fill="#BE1E2D" stroke="#000000" stroke-width="0.75" stroke-miterlimit="10" d="M465.175,170.039
		c0,0,0.751,23.917,0.667,25.167s-0.5,15.25-0.5,15.25l3.75-0.167c0,0,0.334-28.584,0.25-30.917s-0.334-9.416-0.334-9.416
		L465.175,170.039z"/>
	
		<ellipse clip-path="url(#SVGID_2_)" fill="#BE1E2D" stroke="#ED1C24" stroke-miterlimit="10" cx="474.697" cy="176.705" rx="3.081" ry="4.584"/>
	
		<ellipse clip-path="url(#SVGID_2_)" fill="#BE1E2D" stroke="#ED1C24" stroke-miterlimit="10" cx="475.183" cy="189.289" rx="3.134" ry="4.75"/>
	
		<ellipse clip-path="url(#SVGID_2_)" fill="#BE1E2D" stroke="#ED1C24" stroke-miterlimit="10" cx="474.859" cy="203.539" rx="3.243" ry="4.917"/>
	<path clip-path="url(#SVGID_2_)" fill="#726658" stroke="#000000" stroke-miterlimit="10" d="M158.007,219.455h0.834l0.17,1.667
		l-1.17-0.084l0.25,4.417c0,0-0.25,2.917,3.765,2.917c3.178,0,106.984-1.084,106.984-1.084l0.083-10l-110.832,1.334L158.007,219.455
		z"/>
	<polygon clip-path="url(#SVGID_2_)" fill="#726658" stroke="#000000" stroke-miterlimit="10" points="270.841,217.038 
		270.903,227.205 274.756,227.205 274.757,217.038 	"/>
	<path clip-path="url(#SVGID_2_)" fill="#726658" stroke="#000000" stroke-miterlimit="10" d="M274.757,217.038v10.167l48.584-0.625
		c0,0,1.938,0.375,1.75-4.063c-0.211-4.996,0.313-5.625-1.25-5.625S274.757,217.038,274.757,217.038z"/>
	
		<line clip-path="url(#SVGID_2_)" fill="none" stroke="#000000" stroke-miterlimit="10" x1="37.841" y1="213.956" x2="61.591" y2="214.205"/>
	<path clip-path="url(#SVGID_2_)" fill="#FFFFFF" stroke="#000000" stroke-miterlimit="10" d="M133.759,165.58
		c0,0,22.707-16.25,30.457-21.625s32.5-19.75,32.5-19.75l4.75,2.5c0,0-19.5,13.125-22.125,15.75s-15.5,13.125-18.75,15.875
		s-7.625,9.375-20.375,10.75l-7.5,0.125L133.759,165.58z"/>
	<path clip-path="url(#SVGID_2_)" stroke="#000000" stroke-miterlimit="10" d="M124.841,165.33c0,0,2.5,4.625,9.625,4.375
		s11.5-1.75,11.5-1.75s-11.25,0.125-10.875-3.375L124.841,165.33z"/>
	<path clip-path="url(#SVGID_2_)" fill="none" stroke="#000000" stroke-miterlimit="10" d="M201.466,126.705
		c0,0,6.709-4.332,23.125-6.749s40.916-2.584,40.916-2.584"/>
	<path clip-path="url(#SVGID_2_)" fill="none" stroke="#000000" stroke-miterlimit="10" d="M43.176,236.788
		c0,0-20.667-0.833-23.167-1s-7.418-1.708-7.418-1.708"/>
	<path clip-path="url(#SVGID_2_)" fill="none" stroke="#000000" stroke-miterlimit="10" d="M11.342,237.121
		c0,0,8.5,2.334,14.167,2.167s17,0,17,0"/>
	<path clip-path="url(#SVGID_2_)" fill="none" stroke="#000000" stroke-miterlimit="10" d="M12.466,222.205
		c0,0,9.376,0.916,16.043,0.916s22.167-0.333,22.167-0.333"/>
	<path clip-path="url(#SVGID_2_)" fill="none" stroke="#000000" stroke-miterlimit="10" d="M43.509,188.788c0,0,20.667-4,31-5.5
		s49.333-4.167,49.333-4.167"/>
	<path clip-path="url(#SVGID_2_)" fill="none" stroke="#000000" stroke-miterlimit="10" d="M449.675,251.621c0,0,0.5,8.334,3,9.167"
		/>
	<path clip-path="url(#SVGID_2_)" fill="#E6E7E8" stroke="#939598" stroke-miterlimit="10" d="M99.592,230.956
		c-14.313,0-25.917,11.753-25.917,26.251c0,14.497,11.604,26.249,25.917,26.249s25.917-11.752,25.917-26.249
		C125.509,242.709,113.904,230.956,99.592,230.956z M110.842,236.456c5.834,0.667,8.667,8.166,8.667,8.166l-12,5l-1-1.333
		L110.842,236.456z M104.509,233.789l-4.667,12.667l-2.166,0.166l-6.167-12.333C98.342,230.956,104.509,233.789,104.509,233.789z
		 M86.842,237.456l5.334,12.166l-1.167,1l-12.167-3.666C79.508,241.456,86.842,237.456,86.842,237.456z M76.509,251.956l12,5v2
		l-10.667,5.5C77.842,264.456,73.342,260.123,76.509,251.956z M88.176,278.789c0,0-8.334-3.667-8.167-9l11.333-4.667l1.5,0.834
		L88.176,278.789z M94.009,280.289l5.166-12l1.5-0.166l6,12.166C106.675,280.289,96.509,283.955,94.009,280.289z M112.342,277.789
		l-5.333-12.166l1-1.5l12.333,4.333C120.342,268.456,117.842,276.455,112.342,277.789z M110.342,257.122l0.333-1.666l11.167-5.5
		c2.833,4,0.5,12.833,0.5,12.833L110.342,257.122z"/>
	<path clip-path="url(#SVGID_2_)" fill="#E6E7E8" stroke="#6D6E71" stroke-miterlimit="10" d="M385.842,231.289
		c-14.634,0-26.5,11.865-26.5,26.501c0,14.635,11.866,26.499,26.5,26.499s26.5-11.864,26.5-26.499
		C412.342,243.154,400.476,231.289,385.842,231.289z M397.509,237.29c5.834,0.667,8.833,8.499,8.833,8.499l-12.166,4.667
		l-1.334-1.333L397.509,237.29z M373.675,237.289l4.335,12l-1.167,1l-11.668-3.666C365.841,241.123,373.675,237.289,373.675,237.289
		z M362.509,251.79l12,5v2l-11.5,5.333C363.009,264.123,359.342,259.957,362.509,251.79z M373.676,278.623c0,0-8.334-3.667-8.167-9
		l11.333-4.667l1.5,0.834L373.676,278.623z M391.509,235.289l-5.167,11.5l-1.667-0.166l-5.5-11.667
		C386.008,231.623,391.509,235.289,391.509,235.289z M379.51,280.623l5.166-12l1.5-0.166l6,12.166
		C392.176,280.623,382.01,284.289,379.51,280.623z M397.509,278.456l-4.833-12.499l1-1.5l12.666,5.166
		C406.342,269.623,403.009,277.122,397.509,278.456z M396.675,258.623v-1.667l11.834-5.5c2.833,4-0.167,12.167-0.167,12.167
		L396.675,258.623z"/>
	
		<ellipse clip-path="url(#SVGID_2_)" fill="#BCBEC0" stroke="#000000" stroke-miterlimit="10" cx="99.509" cy="257.79" rx="9.326" ry="9.349"/>
	
		<ellipse clip-path="url(#SVGID_2_)" fill="#E6E7E8" stroke="#000000" stroke-miterlimit="10" cx="99.348" cy="257.956" rx="6.998" ry="7.016"/>
	
		<ellipse clip-path="url(#SVGID_2_)" fill="#BCBEC0" stroke="#000000" stroke-miterlimit="10" cx="385.842" cy="258.123" rx="9.326" ry="9.349"/>
	
		<ellipse clip-path="url(#SVGID_2_)" fill="#E6E7E8" stroke="#000000" stroke-miterlimit="10" cx="385.681" cy="258.289" rx="6.998" ry="7.016"/>
	<path clip-path="url(#SVGID_2_)" fill="#FFFFFF" stroke="#000000" stroke-miterlimit="10" d="M20.841,213.956h17
		c0,0,7-26.833,6-31.333c0,0-7.832-2.5-13.166,4.5S20.841,213.956,20.841,213.956z"/>
	<path clip-path="url(#SVGID_2_)" fill="#F7941E" stroke="#EF4136" stroke-miterlimit="10" d="M30.216,213.705
		c0,0,5.5-26.25,13.5-30.75c0,0,0.256,0.662-0.125,3.875c-0.448,3.775-1.6,10.354-2.5,12.875l-3.375,14H30.216z"/>
	
		<line clip-path="url(#SVGID_2_)" fill="#9B8579" stroke="#000000" stroke-miterlimit="10" x1="38.341" y1="183.955" x2="41.091" y2="184.08"/>
	
		<line clip-path="url(#SVGID_2_)" fill="#9B8579" stroke="#000000" stroke-miterlimit="10" x1="37.341" y1="185.08" x2="40.091" y2="185.205"/>
	
		<line clip-path="url(#SVGID_2_)" fill="#9B8579" stroke="#000000" stroke-miterlimit="10" x1="36.216" y1="186.33" x2="38.966" y2="186.455"/>
	
		<line clip-path="url(#SVGID_2_)" fill="#9B8579" stroke="#000000" stroke-miterlimit="10" x1="35.216" y1="187.955" x2="37.966" y2="188.08"/>
	
		<line clip-path="url(#SVGID_2_)" fill="#9B8579" stroke="#000000" stroke-miterlimit="10" x1="34.216" y1="189.33" x2="36.966" y2="189.455"/>
	
		<line clip-path="url(#SVGID_2_)" fill="#9B8579" stroke="#000000" stroke-miterlimit="10" x1="26.966" y1="212.08" x2="29.716" y2="212.205"/>
	
		<line clip-path="url(#SVGID_2_)" fill="#9B8579" stroke="#000000" stroke-miterlimit="10" x1="26.966" y1="210.33" x2="29.716" y2="210.455"/>
	
		<line clip-path="url(#SVGID_2_)" fill="#9B8579" stroke="#000000" stroke-miterlimit="10" x1="27.341" y1="208.455" x2="30.091" y2="208.58"/>
	
		<line clip-path="url(#SVGID_2_)" fill="#9B8579" stroke="#000000" stroke-miterlimit="10" x1="27.841" y1="206.83" x2="30.591" y2="206.955"/>
	
		<line clip-path="url(#SVGID_2_)" fill="#9B8579" stroke="#000000" stroke-miterlimit="10" x1="28.341" y1="205.58" x2="31.091" y2="205.705"/>
	<path clip-path="url(#SVGID_2_)" fill="#414042" stroke="#000000" stroke-miterlimit="10" d="M277.716,163.955l0.5,5.625
		c0,0,0.375,2.375,4.375,2.375s56.375-1.5,56.375-1.5s15.5-1.5,10.875-15s-9.25-31.875-22.75-32.875s-44.5,0.5-44.5,0.5
		s-7.375,1.5-7.25,6.875S277.716,163.955,277.716,163.955z"/>
	<path clip-path="url(#SVGID_2_)" fill="#FFFFFF" stroke="#000000" stroke-miterlimit="10" d="M279.841,169.08l59.375-1
		c0,0,11.375-1.375,7.625-13.375s-5.875-28.25-21.125-29.625s-30.5-1.125-38.75-0.5s-9.375,2.5-9.375,6.875
		S279.841,169.08,279.841,169.08z"/>
	<path clip-path="url(#SVGID_2_)" fill="#414042" stroke="#000000" stroke-miterlimit="10" d="M171.966,159.33
		c4.441-4.441,16.625-14.375,21-17.875s15.5-13,30-15.375s30-2.25,30-2.25s6.375,0.125,7.25,7.75s1.5,37.75,1.5,37.75
		s0.625,3.125-1.75,3.125s-77.25,2.125-77.25,2.125l-1.5,2.5c0,0-11.375,1.75-13.875-4.625S167.716,163.58,171.966,159.33z"/>
	<path clip-path="url(#SVGID_2_)" fill="#FFFFFF" stroke="#000000" stroke-miterlimit="10" d="M183.341,151.58
		c0,0,12.625-11,20.125-15.375s14.875-8.5,32.75-9.75s21.25-2.125,22.375,6.625s1.5,36.75,1.5,36.75l-81.5,2.625l-2.75-8.875
		L183.341,151.58z"/>
	<path clip-path="url(#SVGID_2_)" stroke="#000000" stroke-miterlimit="10" d="M169.841,162.08c0,0,0.5,10.375,3.75,10.375
		s6.5,0.25,6.625-1.875l6.375-0.5c0,0,6.5-1,5.25-9.625s-2.75-8.75-4.625-8.875s-11.125,0.125-11.125,3.5l-0.875,6.625
		L169.841,162.08z"/>
	<path clip-path="url(#SVGID_2_)" fill="#9B8579" stroke="#000000" stroke-miterlimit="10" d="M175.216,161.705l16.625-1.25
		c0,0-1-8.625-3.5-9s-10.625,0.125-11.875,2.25S175.216,161.705,175.216,161.705z"/>
	<path clip-path="url(#SVGID_2_)" stroke="#414042" stroke-miterlimit="10" d="M441.216,116.58c0,0,15,1.25,16.25,4.5l-5.625,3.25
		L441.216,116.58z"/>
	<path clip-path="url(#SVGID_2_)" fill="#726658" stroke="#000000" stroke-miterlimit="10" d="M423.925,212.206l44.167-0.334
		l9.833-0.166l0.75,0.25c0,0,9.583,1.583,10,3.333s0.583,8.5,0.583,8.5s1.417,0.333,1.417,2s-1.333,9.417-1.5,11.75
		s-1.25,6.001-3.75,6.917s-4.333,1.333-4.333,1.333l-2.417,3.167l-48.333,6.583l-0.083-12.917c0,0-0.16-6.011-0.917-11.5
		c-0.333-2.416-1.678-8.965-2.417-11.333C425.67,215.768,423.925,212.206,423.925,212.206z"/>
	
		<line clip-path="url(#SVGID_2_)" fill="none" stroke="#000000" stroke-miterlimit="10" x1="430.175" y1="235.455" x2="487.675" y2="231.121"/>
	<path clip-path="url(#SVGID_2_)" fill="none" stroke="#000000" stroke-width="0.25" stroke-miterlimit="10" d="M466.966,171.83
		c0,0,0.875,36,0.25,37.125"/>
	<path clip-path="url(#SVGID_2_)" fill="none" stroke="#000000" stroke-width="0.25" stroke-miterlimit="10" d="M468.091,171.83
		c0,0,0.625,35.625,0.125,36.875"/>
	<polygon clip-path="url(#SVGID_2_)" stroke="#000000" stroke-miterlimit="10" points="268.674,219.955 158.591,221.038 
		158.424,219.372 268.757,218.205 	"/>
	<rect x="270.841" y="217.705" clip-path="url(#SVGID_2_)" stroke="#000000" stroke-miterlimit="10" width="3.583" height="2.25"/>
	<polygon clip-path="url(#SVGID_2_)" stroke="#000000" stroke-miterlimit="10" points="324.841,219.518 275.028,219.768 
		275.028,218.143 324.778,217.893 	"/>
	<polygon clip-path="url(#SVGID_2_)" fill="#6D6E71" stroke="#000000" stroke-miterlimit="10" points="103.591,261.955 
		100.071,260.638 96.99,262.79 97.155,259.035 94.156,256.771 97.778,255.768 99.006,252.215 101.079,255.35 104.836,255.42 
		102.495,258.359 	"/>
	<polygon clip-path="url(#SVGID_2_)" fill="#6D6E71" stroke="#000000" stroke-miterlimit="10" points="386.615,263.966 
		384.344,260.972 380.59,261.145 382.735,258.059 381.41,254.542 385.008,255.63 387.943,253.282 388.021,257.04 391.159,259.106 
		387.61,260.341 	"/>
</g>
</svg>
