<?xml version="1.0" encoding="utf-8"?>
<!-- Generator: Adobe Illustrator 16.0.3, SVG Export Plug-In . SVG Version: 6.00 Build 0)  -->
<!DOCTYPE svg PUBLIC "-//W3C//DTD SVG 1.1//EN" "http://www.w3.org/Graphics/SVG/1.1/DTD/svg11.dtd">
<svg version="1.1" id="Layer_1" xmlns="http://www.w3.org/2000/svg" xmlns:xlink="http://www.w3.org/1999/xlink" x="0px" y="0px"
	 width="128px" height="128px" viewBox="0 0 128 128" enable-background="new 0 0 128 128" xml:space="preserve">
<g>
	<defs>
		<rect id="SVGID_1_" x="16" width="99" height="128"/>
	</defs>
	<clipPath id="SVGID_2_">
		<use xlink:href="#SVGID_1_"  overflow="visible"/>
	</clipPath>
	<path clip-path="url(#SVGID_2_)" fill="#C2B59B" stroke="#000000" stroke-width="0.75" stroke-miterlimit="10" d="M43.054,8.554
		c0,0-0.156,0.169-0.478,1.101c-0.193,0.56-0.538,1.347-0.686,2.669c-0.392,3.524-1.763,4.259-1.958,7.343
		c-0.195,3.084-0.93,13.023,0.293,16.352l0.147,5.386L40.08,58.636v9.79l-0.147,24.43c0,0-0.097,8.518,0.245,11.7
		c0.343,3.182,1.028,14.147,0.979,14.883c-0.049,0.733,0.587,1.322,0.587,1.322l3.378-1.029l3.476,0.637l33.093-0.783l3.133-0.393
		l2.497,0.344c0,0,1.225-18.407,1.176-19.68c-0.05-1.274-0.147-10.134-0.147-10.134l-0.147-23.743l-0.048-9.498l-0.245-18.897
		c0,0-0.195-2.839,0.637-4.602c0.831-1.762-0.489-14.246-0.489-14.98c0-0.735-1.371-2.987-1.469-6.022
		c-0.099-3.035-3.036-3.329-3.036-3.329l-2.446,4.357L69.453,7.232L55.647,9.142l-7.098,1.518L43.054,8.554z"/>
	<path clip-path="url(#SVGID_2_)" fill="#726658" stroke="#000000" stroke-width="0.75" stroke-miterlimit="10" d="M43.948,8.652
		c0,0-1.273,11.21-1.42,14.784c-0.146,3.574-0.281,8.983-0.281,8.983l7.723-1.151l14.589-1.518l16.4,1.371l5.14,2.253l-0.146-5.435
		c0,0-0.884-16.792-1.225-18.358l-2.986-1.615L79.098,6.4c0,0-1.224-0.489-3.28-1.811c0,0-13.022-3.036-22.96-0.196
		c0,0-1.567,1.42-2.497,1.713c-0.93,0.294-4.994,1.616-4.994,1.616L43.948,8.652z"/>
	<path clip-path="url(#SVGID_2_)" stroke="#000000" stroke-width="0.5" stroke-miterlimit="10" d="M42.209,31.832l0.147,5.36
		l1.101-0.22l10.942-4.406l10.133-0.073l11.602,0.073l7.124,2.57l2.863,2.571l-0.073-5.729c0,0-5.653-2.717-10.794-3.084
		c-5.141-0.367-11.457-0.44-16.597-0.44S45.954,29.849,42.209,31.832z"/>
	<path clip-path="url(#SVGID_2_)" fill="#C2B59B" stroke="#000000" stroke-width="0.75" stroke-miterlimit="10" d="M33.177,47.768
		l6.365-3.329l0.93,0.245l0.685,0.49v-2.791l-0.294-0.784c0,0-4.994,1.714-6.364,2.84C33.128,45.565,32.344,46.397,33.177,47.768z"
		/>
	<path clip-path="url(#SVGID_2_)" fill="#C2B59B" stroke="#000000" stroke-width="0.75" stroke-miterlimit="10" d="M95.155,47.866
		l-6.364-3.329l-0.93,0.245l-0.687,0.489V42.48l0.295-0.783c0,0,4.994,1.713,6.364,2.839C95.205,45.663,95.987,46.495,95.155,47.866
		z"/>
	<path clip-path="url(#SVGID_2_)" fill="#C2B59B" stroke="#000000" stroke-width="0.25" stroke-miterlimit="10" d="M40.337,59.001
		c0,0-1.432,0.515-1.285,2.608c0,0-0.294,4.883,0.955,4.442l0.514-0.073L40.337,59.001z M40.08,63.519
		c-0.44,0.771-0.697-1.028-0.697-1.028c-0.184-2.276,0.624-1.579,0.624-1.579L40.08,63.519z"/>
	<path clip-path="url(#SVGID_2_)" fill="#C2B59B" stroke="#000000" stroke-width="0.25" stroke-miterlimit="10" d="M40.435,83.235
		c0,0-1.432,0.514-1.285,2.606c0,0-0.293,4.884,0.955,4.442l0.514-0.072L40.435,83.235z M40.178,87.752
		c-0.44,0.771-0.698-1.028-0.698-1.028c-0.184-2.277,0.624-1.579,0.624-1.579L40.178,87.752z"/>
	<path clip-path="url(#SVGID_2_)" fill="#C2B59B" stroke="#000000" stroke-width="0.25" stroke-miterlimit="10" d="M87.979,65.893
		l0.514,0.074c1.248,0.439,0.954-4.443,0.954-4.443c0.146-2.093-1.285-2.607-1.285-2.607L87.979,65.893z M88.492,60.826
		c0,0,0.808-0.697,0.623,1.58c0,0-0.256,1.799-0.697,1.028L88.492,60.826z"/>
	<path clip-path="url(#SVGID_2_)" fill="#C2B59B" stroke="#000000" stroke-width="0.25" stroke-miterlimit="10" d="M87.879,90.125
		l0.515,0.074c1.249,0.439,0.954-4.443,0.954-4.443c0.147-2.092-1.284-2.605-1.284-2.605L87.879,90.125z M88.394,85.059
		c0,0,0.807-0.697,0.625,1.58c0,0-0.258,1.799-0.698,1.028L88.394,85.059z"/>
	<path clip-path="url(#SVGID_2_)" fill="#FFFFFF" stroke="#000000" stroke-width="0.7" stroke-miterlimit="10" d="M40.74,102.328
		c0,0-0.514-5.067,0.808-6.61c1.554-1.813,1.983-2.569,2.056,0c0.073,2.57,0.587,23.06,0.587,23.06l-2.497,0.66L40.74,102.328z"/>
	<path clip-path="url(#SVGID_2_)" fill="#FFFFFF" stroke="#000000" stroke-width="0.7" stroke-miterlimit="10" d="M87.738,103.209
		c0,0,0.635-6.096-0.688-7.637c-1.555-1.813-2.25-2.424-2.323,0.146c-0.073,2.57-0.147,22.324-0.147,22.324l2.645,0.882
		L87.738,103.209z"/>
	<path clip-path="url(#SVGID_2_)" fill="#FFFFFF" stroke="#000000" stroke-width="0.7" stroke-miterlimit="10" d="M40.888,70.605
		c0,0,2.79-1.47,2.717,1.468s-0.073,12.851-0.073,12.851s-0.074,3.084-2.203,5.214l-0.22-9.619L40.888,70.605z"/>
	<path clip-path="url(#SVGID_2_)" fill="#FFFFFF" stroke="#000000" stroke-width="0.7" stroke-miterlimit="10" d="M40.888,44.683
		l0.22,21.296c0,0,2.203,0.882,2.35-2.57c0.147-3.451,0.514-10.208-0.22-13.952c-0.734-3.745-1.249-6.315-1.249-6.315l-0.954-2.276
		L40.888,44.683z"/>
	<path clip-path="url(#SVGID_2_)" fill="#FFFFFF" stroke="#000000" stroke-width="0.7" stroke-miterlimit="10" d="M87.591,70.457
		c0,0-2.644-1.688-2.57,1.249s-0.146,14.026-0.146,14.026s0.44,3.156,2.351,4.111l0.222-9.325L87.591,70.457z"/>
	<path clip-path="url(#SVGID_2_)" fill="#FFFFFF" stroke="#000000" stroke-width="0.7" stroke-miterlimit="10" d="M87.37,44.316
		l0.076,21.663c0,0-2.426,0.514-2.572-2.937c-0.146-3.452-0.292-9.841,0.443-13.585c0.733-3.745,1.248-6.315,1.248-6.315
		l0.955-2.276L87.37,44.316z"/>
	<path clip-path="url(#SVGID_2_)" fill="#FFFFFF" stroke="#000000" stroke-width="0.5" stroke-miterlimit="10" d="M43.054,8.554
		l-0.747,2.08l1.187-1.126c0,0,5.544-2.46,5.875-3.194C49.369,6.314,43.825,7.856,43.054,8.554z"/>
	<polygon clip-path="url(#SVGID_2_)" fill="#F7941E" stroke="#000000" stroke-width="0.25" stroke-miterlimit="10" points="
		43.054,8.554 43.495,9.508 42.209,10.757 	"/>
	<path clip-path="url(#SVGID_2_)" fill="#594A42" stroke="#000000" stroke-width="0.75" stroke-miterlimit="10" d="M47.178,118.312
		l-3.329,3.966l0.195,0.833l0.49,0.929c0,0,1.419-0.39,3.329-0.049c1.909,0.344,22.617,2.645,31.724-0.293
		c0,0,2.056-0.245,3.818-0.294s2.203-1.37,2.203-1.37l-0.344-1.665l-5.041-2.839L47.178,118.312z"/>
	<path clip-path="url(#SVGID_2_)" fill="#FFFFFF" stroke="#000000" stroke-width="0.5" stroke-miterlimit="10" d="M79.318,6.571
		c0,0,2.472,2.02,4.747,2.717l1.028,0.624l0.35,0.184l0.789,0.551l-1.027-1.763c0,0-0.638-0.186-3.782-1.468
		C79.832,6.767,79.318,6.571,79.318,6.571z"/>
	<path clip-path="url(#SVGID_2_)" fill="#FFFFFF" stroke="#000000" stroke-width="0.5" stroke-miterlimit="10" d="M39.835,44.585
		c-0.201-0.395-1.814,0.16-3.623,1.078c-1.808,0.917-3.236,1.71-3.036,2.105c0.201,0.396,1.57-0.159,3.378-1.077
		C38.363,45.773,40.035,44.98,39.835,44.585z"/>
	<path clip-path="url(#SVGID_2_)" fill="#9B8579" stroke="#000000" stroke-width="0.5" stroke-miterlimit="10" d="M87.42,118.948
		l-3.573-1.076l-1.372-0.098l-0.488,0.293l0.392,1.567c0,0-0.393,1.713,0.586,2.938c0.265,0.329,1.521,1.047,1.764,0.929
		c1.614-0.783,2.3-1.272,2.447-2.496C87.321,119.781,87.42,118.948,87.42,118.948z"/>
	<path clip-path="url(#SVGID_2_)" fill="#FFFFFF" stroke="#000000" stroke-width="0.5" stroke-miterlimit="10" d="M88.498,44.683
		c0.2-0.395,1.813,0.16,3.622,1.078c1.808,0.917,3.236,1.71,3.035,2.104c-0.2,0.395-1.569-0.16-3.378-1.077
		C89.97,45.871,88.298,45.079,88.498,44.683z"/>
	<path clip-path="url(#SVGID_2_)" fill="#9B8579" stroke="#000000" stroke-width="0.5" stroke-miterlimit="10" d="M41.157,119.438
		l3.77-1.175l1.371-0.099l0.49,0.294l-0.392,1.566c0,0,0.147,1.419-0.833,2.644c-0.264,0.329-0.982,1.39-1.224,1.273
		c-1.616-0.784-2.888-1.518-3.035-2.742C41.157,119.977,41.157,119.438,41.157,119.438z"/>
	<polygon clip-path="url(#SVGID_2_)" fill="#F7941E" stroke="#000000" stroke-width="0.25" stroke-miterlimit="10" points="
		85.192,9.043 85.094,9.857 86.232,10.646 	"/>
	<polyline clip-path="url(#SVGID_2_)" fill="none" stroke="#000000" stroke-width="0.7" stroke-miterlimit="10" points="
		45.807,90.161 44.192,90.357 39.933,92.855 	"/>
	
		<line clip-path="url(#SVGID_2_)" fill="none" stroke="#000000" stroke-width="0.7" stroke-miterlimit="10" x1="45.22" y1="67.446" x2="40.226" y2="68.182"/>
	<polyline clip-path="url(#SVGID_2_)" fill="none" stroke="#000000" stroke-width="0.7" stroke-miterlimit="10" points="
		83.332,67.301 85.021,67.521 88.179,67.887 	"/>
	<polyline clip-path="url(#SVGID_2_)" fill="none" stroke="#000000" stroke-width="0.7" stroke-miterlimit="10" points="
		83.332,90.064 84.654,90.505 88.104,92.707 	"/>
	
		<line clip-path="url(#SVGID_2_)" fill="none" stroke="#000000" stroke-width="0.7" stroke-miterlimit="10" x1="86.122" y1="37.707" x2="87.909" y2="37.584"/>
	
		<line clip-path="url(#SVGID_2_)" fill="none" stroke="#000000" stroke-width="0.7" stroke-miterlimit="10" x1="40.337" y1="37.339" x2="42.356" y2="37.927"/>
	<path clip-path="url(#SVGID_2_)" fill="#726658" stroke="#000000" stroke-width="0.7" stroke-miterlimit="10" d="M45.171,47.082
		l4.21-0.685l15.177-0.784l13.414,0.588l4.112,0.685l1.468,1.567l0.367,0.783c0,0-0.856,7.588-0.66,12.435
		c0.196,4.846-0.196,33.583-0.196,33.583l-0.44,23.645l-36.325,0.294l-0.49-29.031l-0.489-23.84c0,0-0.196-14.394-0.637-17.037
		S45.171,47.082,45.171,47.082z"/>
	<path clip-path="url(#SVGID_2_)" fill="#9B8579" stroke="#9B8579" stroke-miterlimit="10" d="M50.948,115.858
		c0,0.354-0.197,0.643-0.44,0.643l0,0c-0.243,0-0.44-0.288-0.44-0.643V56.045c0-0.354,0.197-0.641,0.44-0.641l0,0
		c0.243,0,0.44,0.287,0.44,0.641V115.858z"/>
	<path clip-path="url(#SVGID_2_)" fill="#9B8579" stroke="#9B8579" stroke-miterlimit="10" d="M56.823,116.06
		c0,0.243-0.198,0.441-0.441,0.441l0,0c-0.243,0-0.44-0.198-0.44-0.441V74.938c0-0.244,0.197-0.44,0.44-0.44l0,0
		c0.243,0,0.441,0.196,0.441,0.44V116.06z"/>
	<path clip-path="url(#SVGID_2_)" fill="#9B8579" stroke="#9B8579" stroke-miterlimit="10" d="M62.55,116.06
		c0,0.243-0.197,0.441-0.441,0.441l0,0c-0.243,0-0.44-0.198-0.44-0.441V74.938c0-0.244,0.197-0.44,0.44-0.44l0,0
		c0.244,0,0.441,0.196,0.441,0.44V116.06z"/>
	<path clip-path="url(#SVGID_2_)" fill="#9B8579" stroke="#9B8579" stroke-miterlimit="10" d="M78.559,115.858
		c0,0.354-0.198,0.643-0.441,0.643l0,0c-0.242,0-0.44-0.288-0.44-0.643V56.045c0-0.354,0.198-0.641,0.44-0.641l0,0
		c0.243,0,0.441,0.287,0.441,0.641V115.858z"/>
	<path clip-path="url(#SVGID_2_)" fill="#9B8579" stroke="#9B8579" stroke-miterlimit="10" d="M73.271,116.06
		c0,0.243-0.197,0.441-0.44,0.441l0,0c-0.243,0-0.439-0.198-0.439-0.441V74.938c0-0.244,0.196-0.44,0.439-0.44l0,0
		c0.243,0,0.44,0.196,0.44,0.44V116.06z"/>
	<path clip-path="url(#SVGID_2_)" fill="#9B8579" stroke="#9B8579" stroke-miterlimit="10" d="M67.837,116.06
		c0,0.243-0.197,0.441-0.44,0.441l0,0c-0.243,0-0.44-0.198-0.44-0.441V74.938c0-0.244,0.197-0.44,0.44-0.44l0,0
		c0.243,0,0.44,0.196,0.44,0.44V116.06z"/>
	<path clip-path="url(#SVGID_2_)" stroke="#000000" stroke-miterlimit="10" d="M82.23,76.553l-0.098-8.837
		c-0.905-1.664-1.812-0.073-1.812-0.073s0,7.05,0,8.298c0,1.249,0.587,1.199,0.587,1.199v1.763c-1.027,0.44-1.101,1.396-1.101,1.396
		H48.23c0-1.176-0.807-1.982-0.807-1.982V77.14c1.101,1.249,0.587-7.71,0.44-9.325c-0.147-1.616-1.542-0.221-1.542-0.221
		l0.037,8.665l0.073,5.984l0.037,14.65l0.184,13.732l0.11,5.838c0.44,1.432,1.432,0.366,1.432,0.366v-4.919l0.256-0.588h31.65
		l0.258,0.403l-0.074,4.517c0.881,1.615,1.616,0.037,1.616,0.037l0.036-5.545l0.184-16.448V83.676l-0.061-6.658L82.23,76.553z
		 M80.958,108.276c0,0-1.028,0.93-1.028,1.713l-31.087,0.196c0,0-0.342-1.225-1.223-1.566V82.28c0,0,0.538-0.342,0.783-0.587h31.723
		c0,0,0.393,0.538,0.833,0.637V108.276z"/>
	<path clip-path="url(#SVGID_2_)" stroke="#000000" stroke-width="0.25" stroke-miterlimit="10" d="M50.213,52.172
		c0,0,0.294-2.79,1.028-1.761c0.734,1.028,0.293,3.083,0.293,3.083H50.36L50.213,52.172z"/>
	<path clip-path="url(#SVGID_2_)" fill="#FFFFFF" stroke="#000000" stroke-width="0.7" stroke-miterlimit="10" d="M42.43,35.724
		c0,0-0.514,1.028,0.22,3.305c0.734,2.276,2.13,9.987,2.13,9.987s1.395-2.571,18.432-2.497c6.913,0.029,11.748,0.133,14.906,0.66
		c4.628,0.773,5.802,2.057,5.802,2.057l2.203-11.529l-0.073-2.277c0,0-5.653-4.92-21.002-4.553
		c-15.348,0.368-16.229,1.469-18.211,1.983C44.853,33.374,42.43,35.724,42.43,35.724z"/>
</g>
</svg>
