<?xml version="1.0" encoding="utf-8"?>
<!-- Generator: Adobe Illustrator 16.0.3, SVG Export Plug-In . SVG Version: 6.00 Build 0)  -->
<!DOCTYPE svg PUBLIC "-//W3C//DTD SVG 1.1//EN" "http://www.w3.org/Graphics/SVG/1.1/DTD/svg11.dtd">
<svg version="1.1" id="Layer_1" xmlns="http://www.w3.org/2000/svg" xmlns:xlink="http://www.w3.org/1999/xlink" x="0px" y="0px"
	 width="128px" height="128px" viewBox="0 0 128 128" enable-background="new 0 0 128 128" xml:space="preserve">
<polygon fill="#FFFFFF" stroke="#000000" stroke-miterlimit="10" points="111.794,67.946 26.756,67.344 6.667,72.501 
	103.758,73.061 103.956,73.006 103.956,110.165 124.272,101.214 124.564,67.946 "/>
<g>
	<path fill="#1C75BC" stroke="#000000" stroke-miterlimit="10" d="M84.164,18.193c0,0,8.307-4.998,22.913,0"/>
	<path fill="#FFFFFF" stroke="#000000" stroke-miterlimit="10" d="M100.835,72.307c0,6.847-2.241,12.396-5.005,12.396h-0.419
		c-2.764,0-5.003-5.55-5.003-12.396V20.524c0-6.846,2.239-12.396,5.003-12.396h0.419c2.764,0,5.005,5.551,5.005,12.396V72.307z"/>
	<path fill="#1C75BC" stroke="#000000" stroke-miterlimit="10" d="M76.876,30.152c0,0,7.077-3.591,18.024-3.832
		c10.947-0.242,19.467,3.832,19.467,3.832"/>
	<polygon fill="#58B0E3" stroke="#000000" stroke-miterlimit="10" points="104.246,30.311 87.088,30.219 84.164,18.193 
		107.077,18.193 	"/>
	<polygon fill="#58B0E3" stroke="#000000" stroke-miterlimit="10" points="109.734,49.979 81.658,49.829 76.876,30.152 
		114.367,30.152 	"/>
	<rect x="101.779" y="49.931" stroke="#000000" stroke-miterlimit="10" width="1.499" height="23.111"/>
	<polygon stroke="#000000" stroke-miterlimit="10" points="112.835,30.311 107.944,49.979 109.734,49.979 114.367,30.152 	"/>
	<polygon stroke="#000000" stroke-miterlimit="10" points="105.876,18.354 103.278,30.152 104.429,30.152 106.906,18.354 	"/>
	<rect x="90.863" y="64.923" fill="#FFFFFF" width="9.517" height="5.462"/>
	<line fill="none" stroke="#000000" stroke-miterlimit="10" x1="78.776" y1="30.311" x2="84.121" y2="49.853"/>
	<line fill="none" stroke="#000000" stroke-miterlimit="10" x1="81.448" y1="30.295" x2="86.795" y2="49.837"/>
	<line fill="none" stroke="#000000" stroke-miterlimit="10" x1="84.121" y1="30.295" x2="89.468" y2="49.837"/>
	<line fill="none" stroke="#000000" stroke-miterlimit="10" x1="86.795" y1="30.169" x2="92.139" y2="49.711"/>
	<line fill="none" stroke="#000000" stroke-miterlimit="10" x1="89.466" y1="30.153" x2="94.813" y2="49.695"/>
	<line fill="none" stroke="#000000" stroke-miterlimit="10" x1="92.139" y1="30.152" x2="97.485" y2="49.694"/>
	<line fill="none" stroke="#000000" stroke-miterlimit="10" x1="104.222" y1="18.193" x2="101.324" y2="30.152"/>
	<line fill="none" stroke="#000000" stroke-miterlimit="10" x1="102.224" y1="18.193" x2="99.325" y2="30.152"/>
	<line fill="none" stroke="#000000" stroke-miterlimit="10" x1="99.878" y1="18.193" x2="96.98" y2="30.152"/>
	<line fill="none" stroke="#000000" stroke-miterlimit="10" x1="97.07" y1="18.193" x2="94.173" y2="30.152"/>
	<line fill="none" stroke="#000000" stroke-miterlimit="10" x1="94.272" y1="18.193" x2="91.374" y2="30.152"/>
	<path d="M95.411,8.128c0,0,3.293,0.671,3.914,10.065h1.51c0,0-1.902-8.111-2.542-8.459S95.411,8.128,95.411,8.128z"/>
	<rect x="85.697" y="71.193" fill="#FFFFFF" width="21.209" height="1.445"/>
</g>
<polygon fill="#FFFFFF" stroke="#000000" stroke-miterlimit="10" points="103.62,110.165 3.667,110.165 3.667,73.047 103.758,72.79 
	"/>
<line fill="none" stroke="#000000" stroke-miterlimit="10" x1="103.424" y1="73.042" x2="124.563" y2="67.946"/>
<g>
	<g>
		<g>
			<g>
				<defs>
					<rect id="SVGID_1_" x="10.53" y="95.154" width="11.12" height="8.089"/>
				</defs>
				<clipPath id="SVGID_2_">
					<use xlink:href="#SVGID_1_"  overflow="visible"/>
				</clipPath>
				
					<line clip-path="url(#SVGID_2_)" fill="none" stroke="#C7CDE8" stroke-width="43" stroke-miterlimit="10" x1="6.998" y1="99.939" x2="17.886" y2="92.02"/>
				
					<line clip-path="url(#SVGID_2_)" fill="none" stroke="#58B0E3" stroke-width="17" stroke-miterlimit="10" x1="11.951" y1="107.001" x2="27.272" y2="96.499"/>
				
					<line clip-path="url(#SVGID_2_)" fill="none" stroke="#94BDE5" stroke-width="3" stroke-miterlimit="10" x1="8.398" y1="103.525" x2="22.963" y2="92.932"/>
				
					<line clip-path="url(#SVGID_2_)" fill="none" stroke="#94BDE5" stroke-width="12" stroke-miterlimit="10" x1="15.981" y1="109.113" x2="30.542" y2="98.52"/>
			</g>
			
				<rect x="10.53" y="95.089" fill="none" stroke="#000000" stroke-width="0.5" stroke-miterlimit="10" width="11.12" height="8.221"/>
		</g>
	</g>
	<g>
		<g>
			<g>
				<defs>
					<rect id="SVGID_3_" x="29.059" y="95.154" width="11.119" height="8.089"/>
				</defs>
				<clipPath id="SVGID_4_">
					<use xlink:href="#SVGID_3_"  overflow="visible"/>
				</clipPath>
				
					<line clip-path="url(#SVGID_4_)" fill="none" stroke="#C7CDE8" stroke-width="43" stroke-miterlimit="10" x1="25.526" y1="99.939" x2="36.413" y2="92.02"/>
				
					<line clip-path="url(#SVGID_4_)" fill="none" stroke="#58B0E3" stroke-width="17" stroke-miterlimit="10" x1="30.48" y1="107.001" x2="45.799" y2="96.499"/>
				
					<line clip-path="url(#SVGID_4_)" fill="none" stroke="#94BDE5" stroke-width="3" stroke-miterlimit="10" x1="26.926" y1="103.525" x2="41.492" y2="92.932"/>
				
					<line clip-path="url(#SVGID_4_)" fill="none" stroke="#94BDE5" stroke-width="12" stroke-miterlimit="10" x1="34.51" y1="109.113" x2="49.071" y2="98.52"/>
			</g>
			
				<rect x="29.059" y="95.089" fill="none" stroke="#000000" stroke-width="0.5" stroke-miterlimit="10" width="11.119" height="8.221"/>
		</g>
	</g>
	<g>
		<g>
			<g>
				<defs>
					<rect id="SVGID_5_" x="47.589" y="95.154" width="11.121" height="8.089"/>
				</defs>
				<clipPath id="SVGID_6_">
					<use xlink:href="#SVGID_5_"  overflow="visible"/>
				</clipPath>
				
					<line clip-path="url(#SVGID_6_)" fill="none" stroke="#C7CDE8" stroke-width="43" stroke-miterlimit="10" x1="44.057" y1="99.939" x2="54.945" y2="92.02"/>
				
					<line clip-path="url(#SVGID_6_)" fill="none" stroke="#58B0E3" stroke-width="17" stroke-miterlimit="10" x1="49.01" y1="107.001" x2="64.33" y2="96.499"/>
				
					<line clip-path="url(#SVGID_6_)" fill="none" stroke="#94BDE5" stroke-width="3" stroke-miterlimit="10" x1="45.458" y1="103.525" x2="60.022" y2="92.932"/>
				
					<line clip-path="url(#SVGID_6_)" fill="none" stroke="#94BDE5" stroke-width="12" stroke-miterlimit="10" x1="53.041" y1="109.113" x2="67.603" y2="98.52"/>
			</g>
			
				<rect x="47.589" y="95.089" fill="none" stroke="#000000" stroke-width="0.5" stroke-miterlimit="10" width="11.121" height="8.221"/>
		</g>
	</g>
	<g>
		<g>
			<g>
				<defs>
					<rect id="SVGID_7_" x="67.179" y="95.154" width="11.12" height="8.089"/>
				</defs>
				<clipPath id="SVGID_8_">
					<use xlink:href="#SVGID_7_"  overflow="visible"/>
				</clipPath>
				
					<line clip-path="url(#SVGID_8_)" fill="none" stroke="#C7CDE8" stroke-width="43" stroke-miterlimit="10" x1="63.646" y1="99.939" x2="74.534" y2="92.02"/>
				
					<line clip-path="url(#SVGID_8_)" fill="none" stroke="#58B0E3" stroke-width="17" stroke-miterlimit="10" x1="68.601" y1="107.001" x2="83.922" y2="96.499"/>
				
					<line clip-path="url(#SVGID_8_)" fill="none" stroke="#94BDE5" stroke-width="3" stroke-miterlimit="10" x1="65.048" y1="103.525" x2="79.612" y2="92.932"/>
				
					<line clip-path="url(#SVGID_8_)" fill="none" stroke="#94BDE5" stroke-width="12" stroke-miterlimit="10" x1="72.63" y1="109.113" x2="87.192" y2="98.52"/>
			</g>
			
				<rect x="67.179" y="95.089" fill="none" stroke="#000000" stroke-width="0.5" stroke-miterlimit="10" width="11.12" height="8.221"/>
		</g>
	</g>
	<g>
		<g>
			<g>
				<defs>
					<rect id="SVGID_9_" x="86.712" y="95.154" width="11.118" height="8.089"/>
				</defs>
				<clipPath id="SVGID_10_">
					<use xlink:href="#SVGID_9_"  overflow="visible"/>
				</clipPath>
				
					<line clip-path="url(#SVGID_10_)" fill="none" stroke="#C7CDE8" stroke-width="43" stroke-miterlimit="10" x1="83.178" y1="99.939" x2="94.065" y2="92.02"/>
				
					<line clip-path="url(#SVGID_10_)" fill="none" stroke="#58B0E3" stroke-width="17" stroke-miterlimit="10" x1="88.131" y1="107.001" x2="103.451" y2="96.499"/>
				
					<line clip-path="url(#SVGID_10_)" fill="none" stroke="#94BDE5" stroke-width="3" stroke-miterlimit="10" x1="84.578" y1="103.525" x2="99.143" y2="92.932"/>
				
					<line clip-path="url(#SVGID_10_)" fill="none" stroke="#94BDE5" stroke-width="12" stroke-miterlimit="10" x1="92.163" y1="109.113" x2="106.724" y2="98.52"/>
			</g>
			
				<rect x="86.712" y="95.089" fill="none" stroke="#000000" stroke-width="0.5" stroke-miterlimit="10" width="11.118" height="8.221"/>
		</g>
	</g>
</g>
<g>
	<g>
		<g>
			<g>
				<defs>
					<rect id="SVGID_11_" x="10.53" y="79.967" width="11.12" height="8.089"/>
				</defs>
				<clipPath id="SVGID_12_">
					<use xlink:href="#SVGID_11_"  overflow="visible"/>
				</clipPath>
				
					<line clip-path="url(#SVGID_12_)" fill="none" stroke="#C7CDE8" stroke-width="43" stroke-miterlimit="10" x1="6.998" y1="84.752" x2="17.886" y2="76.832"/>
				
					<line clip-path="url(#SVGID_12_)" fill="none" stroke="#58B0E3" stroke-width="17" stroke-miterlimit="10" x1="11.951" y1="91.814" x2="27.272" y2="81.313"/>
				
					<line clip-path="url(#SVGID_12_)" fill="none" stroke="#94BDE5" stroke-width="3" stroke-miterlimit="10" x1="8.398" y1="88.338" x2="22.963" y2="77.745"/>
				
					<line clip-path="url(#SVGID_12_)" fill="none" stroke="#94BDE5" stroke-width="12" stroke-miterlimit="10" x1="15.981" y1="93.926" x2="30.542" y2="83.333"/>
			</g>
			
				<rect x="10.53" y="79.901" fill="none" stroke="#000000" stroke-width="0.5" stroke-miterlimit="10" width="11.12" height="8.221"/>
		</g>
	</g>
	<g>
		<g>
			<g>
				<defs>
					<rect id="SVGID_13_" x="29.059" y="79.967" width="11.119" height="8.089"/>
				</defs>
				<clipPath id="SVGID_14_">
					<use xlink:href="#SVGID_13_"  overflow="visible"/>
				</clipPath>
				
					<line clip-path="url(#SVGID_14_)" fill="none" stroke="#C7CDE8" stroke-width="43" stroke-miterlimit="10" x1="25.526" y1="84.752" x2="36.413" y2="76.832"/>
				
					<line clip-path="url(#SVGID_14_)" fill="none" stroke="#58B0E3" stroke-width="17" stroke-miterlimit="10" x1="30.48" y1="91.814" x2="45.799" y2="81.313"/>
				
					<line clip-path="url(#SVGID_14_)" fill="none" stroke="#94BDE5" stroke-width="3" stroke-miterlimit="10" x1="26.926" y1="88.338" x2="41.492" y2="77.745"/>
				
					<line clip-path="url(#SVGID_14_)" fill="none" stroke="#94BDE5" stroke-width="12" stroke-miterlimit="10" x1="34.51" y1="93.926" x2="49.071" y2="83.333"/>
			</g>
			
				<rect x="29.059" y="79.901" fill="none" stroke="#000000" stroke-width="0.5" stroke-miterlimit="10" width="11.119" height="8.221"/>
		</g>
	</g>
	<g>
		<g>
			<g>
				<defs>
					<rect id="SVGID_15_" x="47.589" y="79.967" width="11.121" height="8.089"/>
				</defs>
				<clipPath id="SVGID_16_">
					<use xlink:href="#SVGID_15_"  overflow="visible"/>
				</clipPath>
				
					<line clip-path="url(#SVGID_16_)" fill="none" stroke="#C7CDE8" stroke-width="43" stroke-miterlimit="10" x1="44.057" y1="84.752" x2="54.945" y2="76.832"/>
				
					<line clip-path="url(#SVGID_16_)" fill="none" stroke="#58B0E3" stroke-width="17" stroke-miterlimit="10" x1="49.01" y1="91.814" x2="64.33" y2="81.313"/>
				
					<line clip-path="url(#SVGID_16_)" fill="none" stroke="#94BDE5" stroke-width="3" stroke-miterlimit="10" x1="45.458" y1="88.338" x2="60.022" y2="77.745"/>
				
					<line clip-path="url(#SVGID_16_)" fill="none" stroke="#94BDE5" stroke-width="12" stroke-miterlimit="10" x1="53.041" y1="93.926" x2="67.603" y2="83.333"/>
			</g>
			
				<rect x="47.589" y="79.901" fill="none" stroke="#000000" stroke-width="0.5" stroke-miterlimit="10" width="11.121" height="8.221"/>
		</g>
	</g>
	<g>
		<g>
			<g>
				<defs>
					<rect id="SVGID_17_" x="67.179" y="79.967" width="11.12" height="8.089"/>
				</defs>
				<clipPath id="SVGID_18_">
					<use xlink:href="#SVGID_17_"  overflow="visible"/>
				</clipPath>
				
					<line clip-path="url(#SVGID_18_)" fill="none" stroke="#C7CDE8" stroke-width="43" stroke-miterlimit="10" x1="63.646" y1="84.752" x2="74.534" y2="76.832"/>
				
					<line clip-path="url(#SVGID_18_)" fill="none" stroke="#58B0E3" stroke-width="17" stroke-miterlimit="10" x1="68.601" y1="91.814" x2="83.922" y2="81.313"/>
				
					<line clip-path="url(#SVGID_18_)" fill="none" stroke="#94BDE5" stroke-width="3" stroke-miterlimit="10" x1="65.048" y1="88.338" x2="79.612" y2="77.745"/>
				
					<line clip-path="url(#SVGID_18_)" fill="none" stroke="#94BDE5" stroke-width="12" stroke-miterlimit="10" x1="72.63" y1="93.926" x2="87.192" y2="83.333"/>
			</g>
			
				<rect x="67.179" y="79.901" fill="none" stroke="#000000" stroke-width="0.5" stroke-miterlimit="10" width="11.12" height="8.221"/>
		</g>
	</g>
	<g>
		<g>
			<g>
				<defs>
					<rect id="SVGID_19_" x="86.712" y="79.967" width="11.118" height="8.089"/>
				</defs>
				<clipPath id="SVGID_20_">
					<use xlink:href="#SVGID_19_"  overflow="visible"/>
				</clipPath>
				
					<line clip-path="url(#SVGID_20_)" fill="none" stroke="#C7CDE8" stroke-width="43" stroke-miterlimit="10" x1="83.178" y1="84.752" x2="94.065" y2="76.832"/>
				
					<line clip-path="url(#SVGID_20_)" fill="none" stroke="#58B0E3" stroke-width="17" stroke-miterlimit="10" x1="88.131" y1="91.814" x2="103.451" y2="81.313"/>
				
					<line clip-path="url(#SVGID_20_)" fill="none" stroke="#94BDE5" stroke-width="3" stroke-miterlimit="10" x1="84.578" y1="88.338" x2="99.143" y2="77.745"/>
				
					<line clip-path="url(#SVGID_20_)" fill="none" stroke="#94BDE5" stroke-width="12" stroke-miterlimit="10" x1="92.163" y1="93.926" x2="106.724" y2="83.333"/>
			</g>
			
				<rect x="86.712" y="79.901" fill="none" stroke="#000000" stroke-width="0.5" stroke-miterlimit="10" width="11.118" height="8.221"/>
		</g>
	</g>
</g>
<g>
	<rect x="32.894" y="50.797" fill="#FFFFFF" stroke="#000000" stroke-miterlimit="10" width="7.564" height="69.098"/>
	<rect x="10.667" y="40.23" fill="#FFFFFF" stroke="#000000" stroke-miterlimit="10" width="51.641" height="50.174"/>
	<path stroke="#000000" stroke-miterlimit="10" d="M27.443,61.566c0,0-7.59-14.031-4.721-15.612
		c2.871-1.581,12.23,10.643,12.23,10.643l17.556-0.82l3.946,2.602l-17.709,5.87l5.328,9.494l7.49,0.76l1.461,2.209l-8.234,2.592
		l-5.235,6.322l-1.608-2.43l1.933-6.678l-7.317-8.177L20.676,82.053l-0.707-4.428L27.443,61.566z"/>
</g>
</svg>
