<?xml version="1.0" encoding="utf-8"?>
<!-- Generator: Adobe Illustrator 16.0.3, SVG Export Plug-In . SVG Version: 6.00 Build 0)  -->
<!DOCTYPE svg PUBLIC "-//W3C//DTD SVG 1.1//EN" "http://www.w3.org/Graphics/SVG/1.1/DTD/svg11.dtd">
<svg version="1.1" id="Layer_1" xmlns="http://www.w3.org/2000/svg" xmlns:xlink="http://www.w3.org/1999/xlink" x="0px" y="0px"
	 width="128px" height="128px" viewBox="0 0 128 128" enable-background="new 0 0 128 128" xml:space="preserve">
<g opacity="0.5">
	<defs>
		<rect id="SVGID_1_" y="17.129" opacity="0.5" width="128" height="92.186"/>
	</defs>
	<clipPath id="SVGID_2_">
		<use xlink:href="#SVGID_1_"  overflow="visible"/>
	</clipPath>
	<g clip-path="url(#SVGID_2_)">
		<defs>
			<rect id="SVGID_3_" x="-0.877" y="34.792" width="129.755" height="67.292"/>
		</defs>
		<clipPath id="SVGID_4_">
			<use xlink:href="#SVGID_3_"  overflow="visible"/>
		</clipPath>
		<polygon clip-path="url(#SVGID_4_)" fill="#B99D55" stroke="#000000" stroke-width="0.75" stroke-miterlimit="10" points="
			56.312,61.104 81.291,61.104 81.822,51.243 92.575,47.052 106.062,49.508 107.989,60.968 122.359,60.968 122.035,94.292 
			96.429,94.255 63.124,92.073 		"/>
		<path clip-path="url(#SVGID_4_)" stroke="#000000" stroke-miterlimit="10" d="M85.661,94.801c0,0-1.225-14.797,5.949-14.797
			s6.674,14.29,6.674,14.29L85.661,94.801z"/>
		<path clip-path="url(#SVGID_4_)" stroke="#000000" stroke-miterlimit="10" d="M111.153,93.452c0,0-0.606-9.8,3.193-9.8
			c3.801,0,3.536,9.8,3.536,9.8H111.153z"/>
		<path clip-path="url(#SVGID_4_)" stroke="#000000" stroke-miterlimit="10" d="M101.046,93.343c0,0-0.368-9.69,3.432-9.69
			c3.802,0,3.536,9.8,3.536,9.8L101.046,93.343z"/>
		<path clip-path="url(#SVGID_4_)" fill="#414042" stroke="#000000" stroke-miterlimit="10" d="M81.823,50.872
			c0,0,3.545-10.096,14.731-10.096c8.419,0,9.551,8.731,9.551,8.731l-5.722-1.1l-8.296-1.101L81.823,50.872z"/>
		<path clip-path="url(#SVGID_4_)" stroke="#000000" stroke-miterlimit="10" d="M100.592,41.41c0,0,10.208,0.355,11.332,9.462
			l-2.651-0.563l-3.142-0.669c0,0-0.446-3.178-0.928-4.066C104.606,44.47,100.592,41.41,100.592,41.41z"/>
		<polygon clip-path="url(#SVGID_4_)" fill="#603913" stroke="#000000" stroke-miterlimit="10" points="111.924,50.872 
			113.473,57.932 107.538,60.968 106.105,49.438 		"/>
		<polygon clip-path="url(#SVGID_4_)" fill="#603913" stroke="#000000" stroke-width="0.5" stroke-miterlimit="10" points="
			113.217,57.933 126.309,57.958 121.825,60.611 108.471,60.613 		"/>
		<g clip-path="url(#SVGID_4_)">
			<g>
				<g>
					<g>
						<defs>
							<rect id="SVGID_5_" x="77.27" y="71.385" width="6.368" height="6.268"/>
						</defs>
						<clipPath id="SVGID_6_">
							<use xlink:href="#SVGID_5_"  overflow="visible"/>
						</clipPath>
						
							<line clip-path="url(#SVGID_6_)" fill="none" stroke="#C7CDE8" stroke-width="43" stroke-miterlimit="10" x1="75.246" y1="75.093" x2="81.481" y2="68.957"/>
						
							<line clip-path="url(#SVGID_6_)" fill="none" stroke="#58B0E3" stroke-width="3" stroke-miterlimit="10" x1="77.104" y1="77.628" x2="85.879" y2="69.491"/>
						
							<line clip-path="url(#SVGID_6_)" fill="none" stroke="#94BDE5" stroke-width="8" stroke-miterlimit="10" x1="80.392" y1="81.22" x2="88.73" y2="73.014"/>
					</g>
					
						<rect x="77.27" y="71.335" fill="none" stroke="#000000" stroke-width="0.5" stroke-miterlimit="10" width="6.368" height="6.367"/>
				</g>
			</g>
			<g>
				<g>
					<g>
						<defs>
							<rect id="SVGID_7_" x="87.686" y="71.385" width="6.368" height="6.268"/>
						</defs>
						<clipPath id="SVGID_8_">
							<use xlink:href="#SVGID_7_"  overflow="visible"/>
						</clipPath>
						
							<line clip-path="url(#SVGID_8_)" fill="none" stroke="#C7CDE8" stroke-width="43" stroke-miterlimit="10" x1="85.662" y1="75.093" x2="91.897" y2="68.957"/>
						
							<line clip-path="url(#SVGID_8_)" fill="none" stroke="#58B0E3" stroke-width="3" stroke-miterlimit="10" x1="87.521" y1="77.628" x2="96.295" y2="69.491"/>
						
							<line clip-path="url(#SVGID_8_)" fill="none" stroke="#94BDE5" stroke-width="8" stroke-miterlimit="10" x1="90.809" y1="81.22" x2="99.146" y2="73.014"/>
					</g>
					
						<rect x="87.686" y="71.335" fill="none" stroke="#000000" stroke-width="0.5" stroke-miterlimit="10" width="6.368" height="6.367"/>
				</g>
			</g>
		</g>
		<g clip-path="url(#SVGID_4_)">
			<g>
				<g>
					<g>
						<defs>
							<rect id="SVGID_9_" x="98.284" y="71.385" width="6.368" height="6.268"/>
						</defs>
						<clipPath id="SVGID_10_">
							<use xlink:href="#SVGID_9_"  overflow="visible"/>
						</clipPath>
						
							<line clip-path="url(#SVGID_10_)" fill="none" stroke="#C7CDE8" stroke-width="43" stroke-miterlimit="10" x1="96.261" y1="75.093" x2="102.496" y2="68.957"/>
						
							<line clip-path="url(#SVGID_10_)" fill="none" stroke="#58B0E3" stroke-width="3" stroke-miterlimit="10" x1="98.118" y1="77.628" x2="106.893" y2="69.491"/>
						
							<line clip-path="url(#SVGID_10_)" fill="none" stroke="#94BDE5" stroke-width="8" stroke-miterlimit="10" x1="101.406" y1="81.22" x2="109.745" y2="73.014"/>
					</g>
					
						<rect x="98.284" y="71.335" fill="none" stroke="#000000" stroke-width="0.5" stroke-miterlimit="10" width="6.368" height="6.367"/>
				</g>
			</g>
			<g>
				<g>
					<g>
						<defs>
							<rect id="SVGID_11_" x="108.7" y="71.385" width="6.368" height="6.268"/>
						</defs>
						<clipPath id="SVGID_12_">
							<use xlink:href="#SVGID_11_"  overflow="visible"/>
						</clipPath>
						
							<line clip-path="url(#SVGID_12_)" fill="none" stroke="#C7CDE8" stroke-width="43" stroke-miterlimit="10" x1="106.677" y1="75.093" x2="112.912" y2="68.957"/>
						
							<line clip-path="url(#SVGID_12_)" fill="none" stroke="#58B0E3" stroke-width="3" stroke-miterlimit="10" x1="108.535" y1="77.628" x2="117.31" y2="69.491"/>
						
							<line clip-path="url(#SVGID_12_)" fill="none" stroke="#94BDE5" stroke-width="8" stroke-miterlimit="10" x1="111.822" y1="81.22" x2="120.161" y2="73.014"/>
					</g>
					
						<rect x="108.7" y="71.335" fill="none" stroke="#000000" stroke-width="0.5" stroke-miterlimit="10" width="6.368" height="6.367"/>
				</g>
			</g>
		</g>
		<g clip-path="url(#SVGID_4_)">
			<polygon fill="#FFFFFF" stroke="#000000" stroke-miterlimit="10" points="3.038,91.799 52.059,45.961 96.078,94.255 
				59.729,96.71 			"/>
			<path fill="#FFFFFF" stroke="#000000" stroke-miterlimit="10" d="M52.059,45.961l7.67,50.749L52.059,45.961z"/>
		</g>
		<g clip-path="url(#SVGID_4_)">
			<g>
				<g>
					<defs>
						<rect id="SVGID_13_" x="85.661" y="53.052" width="6.368" height="6.269"/>
					</defs>
					<clipPath id="SVGID_14_">
						<use xlink:href="#SVGID_13_"  overflow="visible"/>
					</clipPath>
					
						<line clip-path="url(#SVGID_14_)" fill="none" stroke="#C7CDE8" stroke-width="43" stroke-miterlimit="10" x1="83.639" y1="56.761" x2="89.873" y2="50.625"/>
					
						<line clip-path="url(#SVGID_14_)" fill="none" stroke="#58B0E3" stroke-width="3" stroke-miterlimit="10" x1="85.496" y1="59.295" x2="94.271" y2="51.158"/>
					
						<line clip-path="url(#SVGID_14_)" fill="none" stroke="#94BDE5" stroke-width="8" stroke-miterlimit="10" x1="88.784" y1="62.887" x2="97.123" y2="54.681"/>
				</g>
				
					<rect x="85.661" y="53.003" fill="none" stroke="#000000" stroke-width="0.5" stroke-miterlimit="10" width="6.368" height="6.366"/>
			</g>
		</g>
		<g clip-path="url(#SVGID_4_)">
			<g>
				<g>
					<defs>
						<rect id="SVGID_15_" x="96.078" y="53.052" width="6.368" height="6.269"/>
					</defs>
					<clipPath id="SVGID_16_">
						<use xlink:href="#SVGID_15_"  overflow="visible"/>
					</clipPath>
					
						<line clip-path="url(#SVGID_16_)" fill="none" stroke="#C7CDE8" stroke-width="43" stroke-miterlimit="10" x1="94.055" y1="56.761" x2="100.29" y2="50.625"/>
					
						<line clip-path="url(#SVGID_16_)" fill="none" stroke="#58B0E3" stroke-width="3" stroke-miterlimit="10" x1="95.913" y1="59.295" x2="104.688" y2="51.158"/>
					
						<line clip-path="url(#SVGID_16_)" fill="none" stroke="#94BDE5" stroke-width="8" stroke-miterlimit="10" x1="99.2" y1="62.887" x2="107.539" y2="54.681"/>
				</g>
				
					<rect x="96.078" y="53.003" fill="none" stroke="#000000" stroke-width="0.5" stroke-miterlimit="10" width="6.368" height="6.366"/>
			</g>
		</g>
		<g clip-path="url(#SVGID_4_)">
			<g>
				<g>
					<g>
						<defs>
							<rect id="SVGID_17_" x="77.27" y="62.917" width="6.368" height="6.268"/>
						</defs>
						<clipPath id="SVGID_18_">
							<use xlink:href="#SVGID_17_"  overflow="visible"/>
						</clipPath>
						
							<line clip-path="url(#SVGID_18_)" fill="none" stroke="#C7CDE8" stroke-width="43" stroke-miterlimit="10" x1="75.246" y1="66.626" x2="81.481" y2="60.489"/>
						
							<line clip-path="url(#SVGID_18_)" fill="none" stroke="#58B0E3" stroke-width="3" stroke-miterlimit="10" x1="77.104" y1="69.16" x2="85.879" y2="61.022"/>
						
							<line clip-path="url(#SVGID_18_)" fill="none" stroke="#94BDE5" stroke-width="8" stroke-miterlimit="10" x1="80.392" y1="72.752" x2="88.73" y2="64.546"/>
					</g>
					
						<rect x="77.27" y="62.867" fill="none" stroke="#000000" stroke-width="0.5" stroke-miterlimit="10" width="6.368" height="6.367"/>
				</g>
			</g>
			<g>
				<g>
					<g>
						<defs>
							<rect id="SVGID_19_" x="87.686" y="62.917" width="6.368" height="6.268"/>
						</defs>
						<clipPath id="SVGID_20_">
							<use xlink:href="#SVGID_19_"  overflow="visible"/>
						</clipPath>
						
							<line clip-path="url(#SVGID_20_)" fill="none" stroke="#C7CDE8" stroke-width="43" stroke-miterlimit="10" x1="85.662" y1="66.626" x2="91.897" y2="60.489"/>
						
							<line clip-path="url(#SVGID_20_)" fill="none" stroke="#58B0E3" stroke-width="3" stroke-miterlimit="10" x1="87.521" y1="69.16" x2="96.295" y2="61.022"/>
						
							<line clip-path="url(#SVGID_20_)" fill="none" stroke="#94BDE5" stroke-width="8" stroke-miterlimit="10" x1="90.809" y1="72.752" x2="99.146" y2="64.546"/>
					</g>
					
						<rect x="87.686" y="62.867" fill="none" stroke="#000000" stroke-width="0.5" stroke-miterlimit="10" width="6.368" height="6.367"/>
				</g>
			</g>
		</g>
		<g clip-path="url(#SVGID_4_)">
			<g>
				<g>
					<g>
						<defs>
							<rect id="SVGID_21_" x="98.284" y="62.917" width="6.368" height="6.268"/>
						</defs>
						<clipPath id="SVGID_22_">
							<use xlink:href="#SVGID_21_"  overflow="visible"/>
						</clipPath>
						
							<line clip-path="url(#SVGID_22_)" fill="none" stroke="#C7CDE8" stroke-width="43" stroke-miterlimit="10" x1="96.261" y1="66.626" x2="102.496" y2="60.489"/>
						
							<line clip-path="url(#SVGID_22_)" fill="none" stroke="#58B0E3" stroke-width="3" stroke-miterlimit="10" x1="98.118" y1="69.16" x2="106.893" y2="61.022"/>
						
							<line clip-path="url(#SVGID_22_)" fill="none" stroke="#94BDE5" stroke-width="8" stroke-miterlimit="10" x1="101.406" y1="72.752" x2="109.745" y2="64.546"/>
					</g>
					
						<rect x="98.284" y="62.867" fill="none" stroke="#000000" stroke-width="0.5" stroke-miterlimit="10" width="6.368" height="6.367"/>
				</g>
			</g>
			<g>
				<g>
					<g>
						<defs>
							<rect id="SVGID_23_" x="108.7" y="62.917" width="6.368" height="6.268"/>
						</defs>
						<clipPath id="SVGID_24_">
							<use xlink:href="#SVGID_23_"  overflow="visible"/>
						</clipPath>
						
							<line clip-path="url(#SVGID_24_)" fill="none" stroke="#C7CDE8" stroke-width="43" stroke-miterlimit="10" x1="106.677" y1="66.626" x2="112.912" y2="60.489"/>
						
							<line clip-path="url(#SVGID_24_)" fill="none" stroke="#58B0E3" stroke-width="3" stroke-miterlimit="10" x1="108.535" y1="69.16" x2="117.31" y2="61.022"/>
						
							<line clip-path="url(#SVGID_24_)" fill="none" stroke="#94BDE5" stroke-width="8" stroke-miterlimit="10" x1="111.822" y1="72.752" x2="120.161" y2="64.546"/>
					</g>
					
						<rect x="108.7" y="62.867" fill="none" stroke="#000000" stroke-width="0.5" stroke-miterlimit="10" width="6.368" height="6.367"/>
				</g>
			</g>
		</g>
		
			<line clip-path="url(#SVGID_4_)" fill="none" stroke="#000000" stroke-miterlimit="10" x1="7.46" y1="92.182" x2="52.213" y2="49.881"/>
		
			<line clip-path="url(#SVGID_4_)" fill="none" stroke="#000000" stroke-miterlimit="10" x1="11.831" y1="92.561" x2="53.105" y2="52.888"/>
		
			<line clip-path="url(#SVGID_4_)" fill="none" stroke="#000000" stroke-miterlimit="10" x1="53.688" y1="56.738" x2="16.236" y2="92.942"/>
		
			<line clip-path="url(#SVGID_4_)" fill="none" stroke="#000000" stroke-miterlimit="10" x1="54.279" y1="60.653" x2="21.091" y2="93.363"/>
		
			<line clip-path="url(#SVGID_4_)" fill="none" stroke="#000000" stroke-miterlimit="10" x1="54.806" y1="64.135" x2="25.274" y2="93.726"/>
		
			<line clip-path="url(#SVGID_4_)" fill="none" stroke="#000000" stroke-miterlimit="10" x1="55.456" y1="68.438" x2="29.4" y2="94.083"/>
		
			<line clip-path="url(#SVGID_4_)" fill="none" stroke="#000000" stroke-miterlimit="10" x1="56.129" y1="72.888" x2="34.137" y2="94.492"/>
		
			<line clip-path="url(#SVGID_4_)" fill="none" stroke="#000000" stroke-miterlimit="10" x1="56.612" y1="76.084" x2="38.117" y2="94.838"/>
		
			<line clip-path="url(#SVGID_4_)" fill="none" stroke="#000000" stroke-miterlimit="10" x1="57.479" y1="81.833" x2="44.753" y2="95.412"/>
		
			<line clip-path="url(#SVGID_4_)" fill="none" stroke="#000000" stroke-miterlimit="10" x1="56.945" y1="79.513" x2="41.097" y2="95"/>
		
			<line clip-path="url(#SVGID_4_)" fill="none" stroke="#000000" stroke-miterlimit="10" x1="57.843" y1="85.772" x2="48.335" y2="95.723"/>
		
			<line clip-path="url(#SVGID_4_)" fill="none" stroke="#000000" stroke-miterlimit="10" x1="58.439" y1="88.178" x2="50.949" y2="95.949"/>
		
			<line clip-path="url(#SVGID_4_)" fill="none" stroke="#000000" stroke-miterlimit="10" x1="58.802" y1="90.577" x2="53.784" y2="96.194"/>
		
			<line clip-path="url(#SVGID_4_)" fill="none" stroke="#000000" stroke-miterlimit="10" x1="58.802" y1="90.577" x2="65.509" y2="96.319"/>
		
			<line clip-path="url(#SVGID_4_)" fill="none" stroke="#000000" stroke-miterlimit="10" x1="58.439" y1="88.178" x2="69.425" y2="96.056"/>
		
			<line clip-path="url(#SVGID_4_)" fill="none" stroke="#000000" stroke-miterlimit="10" x1="57.843" y1="85.772" x2="73.461" y2="95.783"/>
		
			<line clip-path="url(#SVGID_4_)" fill="none" stroke="#000000" stroke-miterlimit="10" x1="57.843" y1="82.348" x2="78.231" y2="95.46"/>
		
			<line clip-path="url(#SVGID_4_)" fill="none" stroke="#000000" stroke-miterlimit="10" x1="56.945" y1="79.513" x2="82.514" y2="95.171"/>
		
			<line clip-path="url(#SVGID_4_)" fill="none" stroke="#000000" stroke-miterlimit="10" x1="56.612" y1="76.084" x2="87.287" y2="94.849"/>
		
			<line clip-path="url(#SVGID_4_)" fill="none" stroke="#000000" stroke-miterlimit="10" x1="56.129" y1="72.888" x2="92.422" y2="94.501"/>
		
			<line clip-path="url(#SVGID_4_)" fill="none" stroke="#000000" stroke-miterlimit="10" x1="55.456" y1="68.438" x2="95.477" y2="94.296"/>
		
			<line clip-path="url(#SVGID_4_)" fill="none" stroke="#000000" stroke-miterlimit="10" x1="54.806" y1="64.135" x2="90.576" y2="88.218"/>
		
			<line clip-path="url(#SVGID_4_)" fill="none" stroke="#000000" stroke-miterlimit="10" x1="54.279" y1="60.653" x2="83.58" y2="80.543"/>
		
			<line clip-path="url(#SVGID_4_)" fill="none" stroke="#000000" stroke-miterlimit="10" x1="53.688" y1="56.738" x2="77.799" y2="74.2"/>
		
			<line clip-path="url(#SVGID_4_)" fill="none" stroke="#000000" stroke-miterlimit="10" x1="53.105" y1="52.888" x2="69.102" y2="64.657"/>
		
			<line clip-path="url(#SVGID_4_)" fill="none" stroke="#000000" stroke-miterlimit="10" x1="52.213" y1="49.881" x2="62.762" y2="57.702"/>
		
			<line clip-path="url(#SVGID_4_)" fill="none" stroke="#000000" stroke-miterlimit="10" x1="48.335" y1="49.439" x2="53.784" y2="96.194"/>
		
			<line clip-path="url(#SVGID_4_)" fill="none" stroke="#000000" stroke-miterlimit="10" x1="59.274" y1="93.706" x2="56.456" y2="96.427"/>
		
			<line clip-path="url(#SVGID_4_)" fill="none" stroke="#000000" stroke-miterlimit="10" x1="59.274" y1="93.706" x2="62.935" y2="96.493"/>
		
			<line clip-path="url(#SVGID_4_)" fill="none" stroke="#000000" stroke-miterlimit="10" x1="44.753" y1="52.888" x2="50.951" y2="95.437"/>
		
			<line clip-path="url(#SVGID_4_)" fill="none" stroke="#000000" stroke-miterlimit="10" x1="41.407" y1="55.921" x2="48.335" y2="95.723"/>
		
			<line clip-path="url(#SVGID_4_)" fill="none" stroke="#000000" stroke-miterlimit="10" x1="36.026" y1="60.653" x2="44.753" y2="95.412"/>
		
			<line clip-path="url(#SVGID_4_)" fill="none" stroke="#000000" stroke-miterlimit="10" x1="32.724" y1="64.135" x2="41.097" y2="95"/>
		
			<line clip-path="url(#SVGID_4_)" fill="none" stroke="#000000" stroke-miterlimit="10" x1="28.877" y1="67.078" x2="38.117" y2="94.214"/>
		
			<line clip-path="url(#SVGID_4_)" fill="none" stroke="#000000" stroke-miterlimit="10" x1="26.484" y1="69.498" x2="34.613" y2="94.024"/>
		
			<line clip-path="url(#SVGID_4_)" fill="none" stroke="#000000" stroke-miterlimit="10" x1="22.447" y1="72.888" x2="29.4" y2="94.083"/>
		
			<line clip-path="url(#SVGID_4_)" fill="none" stroke="#000000" stroke-miterlimit="10" x1="18.082" y1="77.576" x2="25.274" y2="93.726"/>
		
			<line clip-path="url(#SVGID_4_)" fill="none" stroke="#000000" stroke-miterlimit="10" x1="14.985" y1="80.088" x2="21.091" y2="93.363"/>
		
			<line clip-path="url(#SVGID_4_)" fill="none" stroke="#000000" stroke-miterlimit="10" x1="11.927" y1="82.959" x2="16.236" y2="92.942"/>
		
			<line clip-path="url(#SVGID_4_)" fill="none" stroke="#000000" stroke-miterlimit="10" x1="9.102" y1="86.128" x2="11.831" y2="92.561"/>
		
			<line clip-path="url(#SVGID_4_)" fill="none" stroke="#000000" stroke-miterlimit="10" x1="6.318" y1="88.729" x2="8.014" y2="92.229"/>
		
			<line clip-path="url(#SVGID_4_)" fill="none" stroke="#000000" stroke-miterlimit="10" x1="55.063" y1="49.256" x2="91.557" y2="93.985"/>
		
			<line clip-path="url(#SVGID_4_)" fill="none" stroke="#000000" stroke-miterlimit="10" x1="54.609" y1="48.759" x2="86.632" y2="94.448"/>
		
			<line clip-path="url(#SVGID_4_)" fill="none" stroke="#000000" stroke-miterlimit="10" x1="54.609" y1="48.759" x2="82.514" y2="95.171"/>
		
			<line clip-path="url(#SVGID_4_)" fill="none" stroke="#000000" stroke-miterlimit="10" x1="54.609" y1="48.759" x2="78.231" y2="95.46"/>
		
			<line clip-path="url(#SVGID_4_)" fill="none" stroke="#000000" stroke-miterlimit="10" x1="54.609" y1="48.759" x2="73.461" y2="95.783"/>
		
			<line clip-path="url(#SVGID_4_)" fill="none" stroke="#000000" stroke-miterlimit="10" x1="54.609" y1="48.759" x2="69.425" y2="96.056"/>
		
			<line clip-path="url(#SVGID_4_)" fill="none" stroke="#000000" stroke-miterlimit="10" x1="54.609" y1="48.759" x2="65.509" y2="96.319"/>
		
			<line clip-path="url(#SVGID_4_)" fill="none" stroke="#000000" stroke-miterlimit="10" x1="53.892" y1="47.971" x2="62.935" y2="96.493"/>
		
			<line clip-path="url(#SVGID_4_)" fill="none" stroke="#000000" stroke-miterlimit="10" x1="53.131" y1="47.136" x2="59.518" y2="95.314"/>
		
			<line clip-path="url(#SVGID_4_)" fill="none" stroke="#000000" stroke-miterlimit="10" x1="52.059" y1="45.961" x2="56.456" y2="96.427"/>
		<polygon clip-path="url(#SVGID_4_)" fill="#603913" stroke="#000000" stroke-width="0.5" stroke-miterlimit="10" points="
			126.809,57.958 126.542,90.895 122.216,94.042 122.451,60.611 		"/>
	</g>
	<g clip-path="url(#SVGID_2_)">
		<rect x="28.834" y="35.251" fill="#FFFFFF" stroke="#000000" stroke-miterlimit="10" width="7.564" height="69.098"/>
		<rect x="6.606" y="24.684" fill="#FFFFFF" stroke="#000000" stroke-miterlimit="10" width="51.641" height="50.175"/>
		<path stroke="#000000" stroke-miterlimit="10" d="M42.268,49.284c-9.106-0.201-8.381-2.56-9.609-4.998
			c-1.229-2.438-1.37-5.828-9.035-7.004c-7.665-1.178-17.1,10.533-6.075,22.947c11.022,12.413,22.361,8.61,27.352,7.822
			c4.988-0.791,10.146-6.104,9.291-11.8C53.336,50.558,45.529,49.359,42.268,49.284z M44.034,55.714
			c-5.995,2.982-5.631-2.662-5.631-2.662c0.445-1.564,3.369-0.983,4.192-1.074C43.417,51.89,50.03,52.73,44.034,55.714z"/>
		<path fill="#FFFFFF" stroke="#F3F4F4" stroke-miterlimit="10" d="M24.743,43.124c-0.844,1.606-3.253,0.551-3.502,1.467
			c-0.537,1.943-3.934-0.447-3.127-2.154c0.771-1.643,2.097-3.596,3.781-2.089C23.268,41.576,25.764,41.181,24.743,43.124z"/>
		<path fill="#FFFFFF" stroke="#F3F4F4" stroke-miterlimit="10" d="M22.522,51.846c0.392,1.855-1.734,1.506-2.747,3.121
			c-1.054,1.675-3.828,0.896-3.313-1.487c0.399-1.852,0.022-3.628,1.866-4.102C20.176,48.906,21.223,45.661,22.522,51.846z"/>
		<path fill="#FFFFFF" stroke="#F3F4F4" stroke-miterlimit="10" d="M30.666,60.713c0.44,1.718-1.86,1.298-2.802,2.803
			c-0.899,1.439-1.734-0.501-3.447-0.969c-3.157-0.861,1.792-3.998,2.335-3.373C27.916,60.513,30.227,58.992,30.666,60.713z"/>
		<path fill="#FFFFFF" stroke="#F3F4F4" stroke-miterlimit="10" d="M41.103,64.068c0.368,1.438-1.219,0.504-1.669,2.602
			c-0.396,1.862-2.302-0.003-4.072,0.117c-2.412,0.164,0.281-4.618,2.001-3.421C38.928,64.453,40.733,62.631,41.103,64.068z"/>
		<path fill="#FFFFFF" stroke="#F3F4F4" stroke-miterlimit="10" d="M49.991,60.125c1.498,0.824,0.002,1.659-1.03,2.727
			c-1.052,1.086-4.563,0.576-3.446-1.358c0.74-1.289,0.123-1.705,1.938-3.273C48.575,57.247,48.69,59.41,49.991,60.125z"/>
		<g>
			<polygon stroke="#FFFFFF" stroke-miterlimit="10" points="39.855,42.847 43.844,47.036 11.452,66.297 10.526,63.299 			"/>
			<path stroke="#FFFFFF" stroke-miterlimit="10" d="M51.929,26.614c0,0-3.001,7.031-5.705,8.201
				c-2.702,1.171-9.492,6.615-4.886,10.987c4.604,4.372,9.161-3.56,10.813-9.297C53.803,30.769,51.929,26.614,51.929,26.614z"/>
		</g>
	</g>
</g>
</svg>
