<?xml version="1.0" encoding="utf-8"?>
<!-- Generator: Adobe Illustrator 16.0.3, SVG Export Plug-In . SVG Version: 6.00 Build 0)  -->
<!DOCTYPE svg PUBLIC "-//W3C//DTD SVG 1.1//EN" "http://www.w3.org/Graphics/SVG/1.1/DTD/svg11.dtd">
<svg version="1.1" id="Layer_1" xmlns="http://www.w3.org/2000/svg" xmlns:xlink="http://www.w3.org/1999/xlink" x="0px" y="0px"
	 width="128px" height="128px" viewBox="0 0 128 128" enable-background="new 0 0 128 128" xml:space="preserve">
<g opacity="0.5">
	<defs>
		<rect id="SVGID_1_" y="5.403" opacity="0.5" width="126.701" height="114.925"/>
	</defs>
	<clipPath id="SVGID_2_">
		<use xlink:href="#SVGID_1_"  overflow="visible"/>
	</clipPath>
	
		<rect x="14.539" y="23.93" clip-path="url(#SVGID_2_)" fill="#FFDE17" stroke="#000000" stroke-miterlimit="10" width="81.479" height="82.059"/>
	<polygon clip-path="url(#SVGID_2_)" fill="#FBB040" stroke="#000000" stroke-miterlimit="10" points="103.297,12.075 33.36,12.075 
		14.551,24.02 96.702,23.36 96.865,23.241 96.865,105.251 113.538,85.495 113.779,12.075 	"/>
	
		<line clip-path="url(#SVGID_2_)" fill="none" stroke="#000000" stroke-miterlimit="10" x1="96.428" y1="23.93" x2="113.345" y2="13.075"/>
	
		<rect x="19.396" y="53.589" clip-path="url(#SVGID_2_)" fill="#F1F2F2" stroke="#000000" stroke-miterlimit="10" width="42.291" height="43.349"/>
	<polygon clip-path="url(#SVGID_2_)" fill="#F1F2F2" stroke="#000000" stroke-miterlimit="10" points="109.77,77.446 
		101.722,86.512 101.722,43.892 109.77,40.947 	"/>
	
		<rect x="67.345" y="67.026" clip-path="url(#SVGID_2_)" fill="#EF4136" stroke="#000000" stroke-miterlimit="10" width="21.105" height="38.821"/>
	<g clip-path="url(#SVGID_2_)">
		<path fill="#ED1C24" stroke="#000000" stroke-width="0.5" stroke-miterlimit="10" d="M3.93,55.704c0,0-0.651,4.599,2.605,4.599
			c3.258,0,2.85-4.599,2.85-4.599"/>
		<path fill="#ED1C24" stroke="#000000" stroke-width="0.5" stroke-miterlimit="10" d="M9.902,55.704c0,0-0.65,4.599,2.605,4.599
			c3.258,0,2.851-4.599,2.851-4.599"/>
		<path fill="#ED1C24" stroke="#000000" stroke-width="0.5" stroke-miterlimit="10" d="M15.43,55.704c0,0-0.652,4.599,2.605,4.599
			c3.257,0,2.85-4.599,2.85-4.599"/>
		<path fill="#ED1C24" stroke="#000000" stroke-width="0.5" stroke-miterlimit="10" d="M20.955,55.704c0,0-0.652,4.599,2.605,4.599
			c3.257,0,2.85-4.599,2.85-4.599"/>
		<path fill="#ED1C24" stroke="#000000" stroke-width="0.5" stroke-miterlimit="10" d="M26.929,55.704c0,0-0.651,4.599,2.604,4.599
			c3.258,0,2.85-4.599,2.85-4.599"/>
		<path fill="#ED1C24" stroke="#000000" stroke-width="0.5" stroke-miterlimit="10" d="M32.454,55.704c0,0-0.651,4.599,2.604,4.599
			c3.258,0,2.852-4.599,2.852-4.599"/>
		<path fill="#ED1C24" stroke="#000000" stroke-width="0.5" stroke-miterlimit="10" d="M37.98,55.704c0,0-0.654,4.599,2.604,4.599
			s2.851-4.599,2.851-4.599"/>
		<path fill="#ED1C24" stroke="#000000" stroke-width="0.5" stroke-miterlimit="10" d="M43.953,55.704c0,0-0.652,4.599,2.604,4.599
			c3.26,0,2.854-4.599,2.854-4.599"/>
		<path fill="#ED1C24" stroke="#000000" stroke-width="0.5" stroke-miterlimit="10" d="M49.479,55.704c0,0-0.65,4.599,2.605,4.599
			c3.258,0,2.85-4.599,2.85-4.599"/>
		<path fill="#ED1C24" stroke="#000000" stroke-width="0.5" stroke-miterlimit="10" d="M55.006,55.704c0,0-0.652,4.599,2.604,4.599
			c3.258,0,2.85-4.599,2.85-4.599"/>
		<path fill="#ED1C24" stroke="#000000" stroke-width="0.5" stroke-miterlimit="10" d="M60.977,55.704c0,0-0.65,4.599,2.607,4.599
			s2.85-4.599,2.85-4.599"/>
		<path fill="#ED1C24" stroke="#000000" stroke-width="0.5" stroke-miterlimit="10" d="M66.503,55.704c0,0-0.649,4.599,2.606,4.599
			c3.259,0,2.85-4.599,2.85-4.599"/>
		<path fill="#ED1C24" stroke="#000000" stroke-width="0.5" stroke-miterlimit="10" d="M72.029,55.704c0,0-0.652,4.599,2.605,4.599
			c3.256,0,2.851-4.599,2.851-4.599"/>
		<path fill="#ED1C24" stroke="#000000" stroke-width="0.5" stroke-miterlimit="10" d="M78.004,55.704c0,0-0.654,4.599,2.606,4.599
			c3.253,0,2.849-4.599,2.849-4.599"/>
		<path fill="#ED1C24" stroke="#000000" stroke-width="0.5" stroke-miterlimit="10" d="M83.527,55.704c0,0-0.652,4.599,2.607,4.599
			c3.258,0,2.85-4.599,2.85-4.599"/>
		<path fill="#ED1C24" stroke="#000000" stroke-width="0.5" stroke-miterlimit="10" d="M89.054,55.704c0,0-0.649,4.599,2.605,4.599
			c3.259,0,2.851-4.599,2.851-4.599"/>
		<path fill="#ED1C24" stroke="#000000" stroke-width="0.5" stroke-miterlimit="10" d="M95.025,55.704c0,0-0.649,4.599,2.608,4.599
			s2.85-4.599,2.85-4.599"/>
		<path fill="#ED1C24" stroke="#000000" stroke-width="0.5" stroke-miterlimit="10" d="M100.551,55.704c0,0-0.65,4.599,2.607,4.599
			s2.434-4.599,2.434-4.599"/>
	</g>
	<g clip-path="url(#SVGID_2_)">
		<path fill="#ED1C24" stroke="#000000" stroke-width="0.5" stroke-miterlimit="10" d="M106.007,55.503c0,0,2.33,3.979,4.427,2.352
			c2.101-1.626-0.914-5.077-0.914-5.077"/>
		<path fill="#ED1C24" stroke="#000000" stroke-width="0.5" stroke-miterlimit="10" d="M109.854,52.519c0,0,2.331,3.978,4.43,2.354
			c2.1-1.627-0.916-5.079-0.916-5.079"/>
		<path fill="#ED1C24" stroke="#000000" stroke-width="0.5" stroke-miterlimit="10" d="M113.414,49.759c0,0,2.333,3.979,4.429,2.354
			c2.1-1.628-0.912-5.078-0.912-5.078"/>
		<path fill="#ED1C24" stroke="#000000" stroke-width="0.5" stroke-miterlimit="10" d="M116.976,46.998c0,0,2.331,3.981,4.43,2.355
			c2.098-1.626-0.916-5.078-0.916-5.078"/>
		<path fill="#ED1C24" stroke="#000000" stroke-width="0.5" stroke-miterlimit="10" d="M120.825,44.017c0,0,2.331,3.979,4.428,2.351
			c2.098-1.625-0.913-5.077-0.913-5.077"/>
	</g>
	<polygon clip-path="url(#SVGID_2_)" fill="#ED1C24" stroke="#000000" stroke-miterlimit="10" points="105.241,55.475 2.004,55.475 
		15.413,39.271 95.938,39.271 	"/>
	<polygon clip-path="url(#SVGID_2_)" fill="#ED1C24" stroke="#000000" stroke-miterlimit="10" points="125.664,40.084 
		105.59,55.704 95.938,39.271 113.728,27.832 	"/>
	
		<rect x="14.539" y="23.93" clip-path="url(#SVGID_2_)" fill="#FFDE17" stroke="#000000" stroke-miterlimit="10" width="81.479" height="15.342"/>
	<g clip-path="url(#SVGID_2_)">
		<rect x="29.576" y="45.659" fill="#FFFFFF" stroke="#000000" stroke-miterlimit="10" width="7.564" height="69.098"/>
		<rect x="7.348" y="35.092" fill="#FFFFFF" stroke="#000000" stroke-miterlimit="10" width="51.642" height="50.175"/>
		<path fill="none" stroke="#000000" stroke-miterlimit="10" d="M20.658,60.85c4.294-2.938,0.088-4.072-3.296-3.779
			c-3.382,0.293-8.592-1.734-3.57-5.97"/>
		<path fill="none" stroke="#000000" stroke-miterlimit="10" d="M27.264,54.427c4.782-2.196,1.102-4.346-2.163-4.778
			c-3.264-0.433-7.277-4.339-1.48-7.767"/>
		<path fill="none" stroke="#000000" stroke-miterlimit="10" d="M36.457,52.605c5.068-0.937,2.676-3.951-0.028-5.19
			c-2.704-1.244-4.303-5.999,2.144-7.877"/>
		<path stroke="#000000" stroke-miterlimit="10" d="M52.004,59.822c-1.059-4.385-11.131-3.613-20.403,0.962
			c-9.272,4.577-16.225,6.741-13.174,15.61c1.468,4.266,11.132,3.615,20.404-0.962C48.103,70.855,53.622,66.525,52.004,59.822z"/>
		<path fill="#FFFFFF" d="M20.68,65.568c0,0,3.479,0.485,4.704,4.081c1.492,4.376,1.492-0.874,1.492-0.874s0.226-2.721-0.332-3.397
			c-0.69-0.838-2.167-1.648-2.167-1.648L20.68,65.568z"/>
		<path fill="#FFFFFF" d="M27.367,61.738c0,0,3.479,0.485,4.704,4.081c1.492,4.376,1.492-0.874,1.492-0.874s0.226-2.721-0.332-3.397
			c-0.69-0.838-2.167-1.648-2.167-1.648L27.367,61.738z"/>
		<path fill="#FFFFFF" d="M33.169,58.188c0,0,3.479,0.485,4.704,4.081c1.492,4.376,1.492-0.874,1.492-0.874s0.226-2.721-0.332-3.397
			c-0.69-0.838-2.167-1.648-2.167-1.648L33.169,58.188z"/>
		<path fill="#FFFFFF" d="M37.927,54.92c0,0,3.479,0.485,4.704,4.081c1.492,4.376,1.492-0.874,1.492-0.874s0.226-2.721-0.332-3.397
			c-0.69-0.838-2.167-1.648-2.167-1.648L37.927,54.92z"/>
	</g>
</g>
</svg>
