<?xml version="1.0" encoding="utf-8"?>
<!-- Generator: Adobe Illustrator 16.0.3, SVG Export Plug-In . SVG Version: 6.00 Build 0)  -->
<!DOCTYPE svg PUBLIC "-//W3C//DTD SVG 1.1//EN" "http://www.w3.org/Graphics/SVG/1.1/DTD/svg11.dtd">
<svg version="1.1" id="Layer_1" xmlns="http://www.w3.org/2000/svg" xmlns:xlink="http://www.w3.org/1999/xlink" x="0px" y="0px"
	 width="128px" height="128px" viewBox="0 0 128 128" enable-background="new 0 0 128 128" xml:space="preserve">
<g opacity="0.5">
	<defs>
		<rect id="SVGID_1_" y="8.88" opacity="0.5" width="128" height="110.565"/>
	</defs>
	<clipPath id="SVGID_2_">
		<use xlink:href="#SVGID_1_"  overflow="visible"/>
	</clipPath>
	<g clip-path="url(#SVGID_2_)">
		
			<rect x="7.407" y="51.391" fill="#BE1E2D" stroke="#000000" stroke-width="0.5" stroke-linejoin="round" stroke-miterlimit="10" width="84.188" height="53.714"/>
		<polyline fill="#BE1E2D" stroke="#000000" stroke-width="6" stroke-linejoin="round" stroke-miterlimit="10" points="
			2.092,52.651 49.695,15.056 96.138,51.879 		"/>
		<polyline fill="#BE1E2D" stroke="#000000" stroke-width="0.5" stroke-miterlimit="10" points="120.074,51.831 120.074,94.879 
			91.596,105.104 91.596,51.831 		"/>
		<polygon fill="#FFFFFF" stroke="#000000" stroke-miterlimit="10" points="48.933,12.609 78.217,12.609 126.041,52.119 
			94.938,52.601 		"/>
		<rect x="35.022" y="76.138" stroke="#FFFFFF" stroke-linejoin="round" stroke-miterlimit="10" width="32.327" height="28.967"/>
		<g>
			
				<rect x="15.779" y="76.138" fill="none" stroke="#FFFFFF" stroke-linejoin="round" stroke-miterlimit="10" width="19.243" height="28.967"/>
			
				<line fill="none" stroke="#FFFFFF" stroke-linejoin="round" stroke-miterlimit="10" x1="15.779" y1="105.104" x2="34.541" y2="76.619"/>
			
				<line fill="none" stroke="#FFFFFF" stroke-linejoin="round" stroke-miterlimit="10" x1="15.779" y1="76.138" x2="35.022" y2="105.104"/>
		</g>
		<g>
			
				<rect x="67.35" y="76.138" fill="none" stroke="#FFFFFF" stroke-linejoin="round" stroke-miterlimit="10" width="19.242" height="28.967"/>
			
				<line fill="none" stroke="#FFFFFF" stroke-linejoin="round" stroke-miterlimit="10" x1="67.35" y1="105.104" x2="86.111" y2="76.619"/>
			
				<line fill="none" stroke="#FFFFFF" stroke-linejoin="round" stroke-miterlimit="10" x1="67.35" y1="76.138" x2="86.592" y2="105.104"/>
		</g>
		<g>
			
				<line fill="#FFFFFF" stroke="#FFFFFF" stroke-linejoin="round" stroke-miterlimit="10" x1="39.275" y1="38.087" x2="60.777" y2="59.589"/>
			
				<line fill="#FFFFFF" stroke="#FFFFFF" stroke-linejoin="round" stroke-miterlimit="10" x1="60.777" y1="38.087" x2="39.275" y2="59.589"/>
			
				<rect x="39.275" y="38.087" fill="none" stroke="#FFFFFF" stroke-width="0.5" stroke-linejoin="round" stroke-miterlimit="10" width="21.502" height="21.502"/>
			
				<line fill="none" stroke="#000000" stroke-linejoin="round" stroke-miterlimit="10" x1="50.026" y1="38.087" x2="50.026" y2="59.589"/>
		</g>
		<g>
			
				<rect x="25.16" y="43.04" fill="none" stroke="#000000" stroke-linejoin="round" stroke-miterlimit="10" width="6.302" height="14.24"/>
			<g>
				
					<line fill="none" stroke="#FFFFFF" stroke-linejoin="round" stroke-miterlimit="10" x1="25.16" y1="47.658" x2="31.462" y2="47.658"/>
				
					<line fill="none" stroke="#FFFFFF" stroke-linejoin="round" stroke-miterlimit="10" x1="25.16" y1="52.601" x2="31.462" y2="52.601"/>
				
					<line fill="none" stroke="#FFFFFF" stroke-linejoin="round" stroke-miterlimit="10" x1="28.312" y1="57.28" x2="28.312" y2="43.04"/>
			</g>
		</g>
		<g>
			
				<rect x="67.35" y="43.04" fill="none" stroke="#000000" stroke-linejoin="round" stroke-miterlimit="10" width="6.302" height="14.24"/>
			<g>
				
					<line fill="none" stroke="#FFFFFF" stroke-linejoin="round" stroke-miterlimit="10" x1="67.35" y1="47.658" x2="73.651" y2="47.658"/>
				
					<line fill="none" stroke="#FFFFFF" stroke-linejoin="round" stroke-miterlimit="10" x1="67.35" y1="52.601" x2="73.651" y2="52.601"/>
				
					<line fill="none" stroke="#FFFFFF" stroke-linejoin="round" stroke-miterlimit="10" x1="70.501" y1="57.28" x2="70.501" y2="43.04"/>
			</g>
		</g>
		
			<line fill="none" stroke="#000000" stroke-width="0.5" stroke-linejoin="round" stroke-miterlimit="10" x1="64.946" y1="26.529" x2="95.067" y2="26.529"/>
		
			<line fill="none" stroke="#000000" stroke-width="0.5" stroke-linejoin="round" stroke-miterlimit="10" x1="70.501" y1="31.358" x2="100.787" y2="31.256"/>
		
			<line fill="none" stroke="#000000" stroke-width="0.5" stroke-linejoin="round" stroke-miterlimit="10" x1="76.73" y1="36.241" x2="106.93" y2="36.241"/>
		
			<line fill="none" stroke="#000000" stroke-width="0.5" stroke-linejoin="round" stroke-miterlimit="10" x1="80.542" y1="40.086" x2="111.304" y2="40.086"/>
		
			<line fill="none" stroke="#000000" stroke-width="0.5" stroke-linejoin="round" stroke-miterlimit="10" x1="85.342" y1="43.929" x2="116.233" y2="43.929"/>
		
			<line fill="none" stroke="#000000" stroke-width="0.5" stroke-linejoin="round" stroke-miterlimit="10" x1="91.282" y1="48.838" x2="122.576" y2="48.838"/>
		
			<line fill="none" stroke="#000000" stroke-width="0.5" stroke-linejoin="round" stroke-miterlimit="10" x1="60.777" y1="22.489" x2="90.513" y2="22.489"/>
		
			<line fill="none" stroke="#000000" stroke-width="4" stroke-linejoin="round" stroke-miterlimit="10" x1="49.71" y1="18.043" x2="93.904" y2="53.658"/>
		
			<line fill="none" stroke="#000000" stroke-width="3" stroke-linejoin="round" stroke-miterlimit="10" x1="91.402" y1="54.19" x2="120.074" y2="53.658"/>
	</g>
	<g clip-path="url(#SVGID_2_)">
		<g>
			<rect x="29.539" y="64.344" fill="#FFFFFF" stroke="#000000" stroke-miterlimit="10" width="5.616" height="51.303"/>
			<rect x="13.035" y="56.497" fill="#FFFFFF" stroke="#000000" stroke-miterlimit="10" width="38.342" height="37.254"/>
		</g>
		<g>
			<path d="M24.338,67.464c2.156,1.065,2.564-0.725,2.564-0.725c0.933-2.9-1.981-1.229-1.981-1.229
				c0.757-2.62-2.449,0.114-2.449,0.114c-0.292-2.01-2.45,2.132-2.45,2.132S22.383,66.498,24.338,67.464z"/>
			<path d="M41.36,76.118c3.089-6.418,5.832-1.971,5.832-1.971c0.231-4.321-3.324-4.894-3.324-4.894
				c-6.646-1.715-6.473,7.944-6.473,7.944l-0.845,0.585c-3.674,1.969-7.418-0.545-9.182-2.809c-1.006-1.29-1.645-6.189-4.44-6.857
				c-2.588-0.617-5.063,3.298-5.063,3.298c0.865-0.228,1.564-0.19,2.14,0.033c0.076,0.746-0.39,2.017-0.639,2.524
				c-0.349,0.719,0.715,2.4,1.823,0.049c0.177-0.377,0.305-0.7,0.403-0.984c1.438,2.969,0.47,8.61,0.47,8.61
				c0.059,9.787,9.795,8.453,9.795,8.453s3.903,0.045,7.553-5.854c0.769-0.367,2.294-0.593,2.796,0.43c0,0,0.791-2.941-0.291-3.809
				c-0.317-0.253-1.33,1.252-1.138,0.843c3.966-8.451,6.424-2.797,6.424-2.797C47.213,70.779,41.36,76.118,41.36,76.118z"/>
		</g>
	</g>
</g>
</svg>
