<?xml version="1.0" encoding="utf-8"?>
<!-- Generator: Adobe Illustrator 16.0.3, SVG Export Plug-In . SVG Version: 6.00 Build 0)  -->
<!DOCTYPE svg PUBLIC "-//W3C//DTD SVG 1.1//EN" "http://www.w3.org/Graphics/SVG/1.1/DTD/svg11.dtd">
<svg version="1.1" id="Layer_1" xmlns="http://www.w3.org/2000/svg" xmlns:xlink="http://www.w3.org/1999/xlink" x="0px" y="0px"
	 width="128px" height="128px" viewBox="0 0 128 128" enable-background="new 0 0 128 128" xml:space="preserve">
<g opacity="0.5">
	<defs>
		<rect id="SVGID_1_" y="7.343" opacity="0.5" width="128" height="112.388"/>
	</defs>
	<clipPath id="SVGID_2_">
		<use xlink:href="#SVGID_1_"  overflow="visible"/>
	</clipPath>
	<g clip-path="url(#SVGID_2_)">
		<rect x="13.728" y="25.451" fill="#8B5E3C" stroke="#FFFFFF" stroke-miterlimit="10" width="81.48" height="82.059"/>
		<polygon fill="#754C29" stroke="#FFFFFF" stroke-miterlimit="10" points="102.486,13.597 32.55,13.597 13.74,25.541 
			95.892,24.882 96.055,24.763 96.055,106.772 112.728,87.017 112.969,13.597 		"/>
		<polygon fill="#754C29" stroke="#FFFFFF" stroke-miterlimit="10" points="102.769,14.597 32.832,14.597 14.021,26.541 
			96.174,25.882 96.337,25.763 97.208,53.719 113.251,43.289 113.251,14.597 		"/>
		<line fill="none" stroke="#FFFFFF" stroke-miterlimit="10" x1="95.617" y1="25.451" x2="112.534" y2="14.597"/>
		<rect x="18.586" y="55.11" fill="#F9ED32" stroke="#000000" stroke-miterlimit="10" width="42.291" height="43.349"/>
		<polygon fill="#F9ED32" stroke="#000000" stroke-miterlimit="10" points="108.959,78.968 100.911,88.033 100.911,45.413 
			108.959,42.469 		"/>
		<rect x="66.534" y="68.548" fill="#3C2415" stroke="#FFFFFF" stroke-miterlimit="10" width="21.105" height="38.821"/>
		<g>
			<path stroke="#FFFFFF" stroke-width="0.5" stroke-miterlimit="10" d="M3.119,57.226c0,0-0.651,4.599,2.605,4.599
				c3.259,0,2.851-4.599,2.851-4.599"/>
			<path stroke="#FFFFFF" stroke-width="0.5" stroke-miterlimit="10" d="M9.092,57.226c0,0-0.65,4.599,2.606,4.599
				c3.258,0,2.85-4.599,2.85-4.599"/>
			<path stroke="#FFFFFF" stroke-width="0.5" stroke-miterlimit="10" d="M14.619,57.226c0,0-0.652,4.599,2.605,4.599
				c3.257,0,2.85-4.599,2.85-4.599"/>
			<path stroke="#FFFFFF" stroke-width="0.5" stroke-miterlimit="10" d="M20.145,57.226c0,0-0.653,4.599,2.605,4.599
				c3.257,0,2.85-4.599,2.85-4.599"/>
			<path stroke="#FFFFFF" stroke-width="0.5" stroke-miterlimit="10" d="M26.118,57.226c0,0-0.651,4.599,2.604,4.599
				c3.258,0,2.85-4.599,2.85-4.599"/>
			<path stroke="#FFFFFF" stroke-width="0.5" stroke-miterlimit="10" d="M31.644,57.226c0,0-0.652,4.599,2.605,4.599
				s2.851-4.599,2.851-4.599"/>
			<path stroke="#FFFFFF" stroke-width="0.5" stroke-miterlimit="10" d="M37.169,57.226c0,0-0.653,4.599,2.605,4.599
				s2.851-4.599,2.851-4.599"/>
			<path stroke="#FFFFFF" stroke-width="0.5" stroke-miterlimit="10" d="M43.143,57.226c0,0-0.652,4.599,2.604,4.599
				c3.26,0,2.853-4.599,2.853-4.599"/>
			<path stroke="#FFFFFF" stroke-width="0.5" stroke-miterlimit="10" d="M48.668,57.226c0,0-0.651,4.599,2.605,4.599
				c3.258,0,2.851-4.599,2.851-4.599"/>
			<path stroke="#FFFFFF" stroke-width="0.5" stroke-miterlimit="10" d="M54.195,57.226c0,0-0.652,4.599,2.604,4.599
				c3.258,0,2.851-4.599,2.851-4.599"/>
			<path stroke="#FFFFFF" stroke-width="0.5" stroke-miterlimit="10" d="M60.166,57.226c0,0-0.65,4.599,2.607,4.599
				c3.258,0,2.85-4.599,2.85-4.599"/>
			<path stroke="#FFFFFF" stroke-width="0.5" stroke-miterlimit="10" d="M65.692,57.226c0,0-0.649,4.599,2.606,4.599
				c3.259,0,2.85-4.599,2.85-4.599"/>
			<path stroke="#FFFFFF" stroke-width="0.5" stroke-miterlimit="10" d="M71.219,57.226c0,0-0.652,4.599,2.605,4.599
				c3.256,0,2.851-4.599,2.851-4.599"/>
			<path stroke="#FFFFFF" stroke-width="0.5" stroke-miterlimit="10" d="M77.193,57.226c0,0-0.654,4.599,2.606,4.599
				c3.253,0,2.849-4.599,2.849-4.599"/>
			<path stroke="#FFFFFF" stroke-width="0.5" stroke-miterlimit="10" d="M82.717,57.226c0,0-0.652,4.599,2.607,4.599
				c3.258,0,2.85-4.599,2.85-4.599"/>
			<path stroke="#FFFFFF" stroke-width="0.5" stroke-miterlimit="10" d="M88.243,57.226c0,0-0.649,4.599,2.605,4.599
				c3.259,0,2.851-4.599,2.851-4.599"/>
			<path stroke="#FFFFFF" stroke-width="0.5" stroke-miterlimit="10" d="M94.215,57.226c0,0-0.649,4.599,2.608,4.599
				s2.85-4.599,2.85-4.599"/>
			<path stroke="#FFFFFF" stroke-width="0.5" stroke-miterlimit="10" d="M99.74,57.226c0,0-0.65,4.599,2.607,4.599
				s2.434-4.599,2.434-4.599"/>
		</g>
		<g>
			<path stroke="#FFFFFF" stroke-width="0.5" stroke-miterlimit="10" d="M105.196,58.024c0,0,2.33,3.979,4.427,2.352
				c2.101-1.626-0.914-5.077-0.914-5.077"/>
			<path stroke="#FFFFFF" stroke-width="0.5" stroke-miterlimit="10" d="M109.044,55.04c0,0,2.331,3.978,4.43,2.354
				c2.1-1.627-0.916-5.079-0.916-5.079"/>
			<path stroke="#FFFFFF" stroke-width="0.5" stroke-miterlimit="10" d="M112.604,52.28c0,0,2.333,3.979,4.429,2.354
				c2.1-1.628-0.912-5.078-0.912-5.078"/>
			<path stroke="#FFFFFF" stroke-width="0.5" stroke-miterlimit="10" d="M116.165,49.52c0,0,2.331,3.981,4.43,2.355
				c2.098-1.626-0.916-5.078-0.916-5.078"/>
			<path stroke="#FFFFFF" stroke-width="0.5" stroke-miterlimit="10" d="M120.015,46.538c0,0,2.331,3.979,4.428,2.351
				c2.098-1.625-0.913-5.077-0.913-5.077"/>
		</g>
		<polygon stroke="#FFFFFF" stroke-miterlimit="10" points="104.431,56.996 1.193,56.996 14.603,40.793 95.128,40.793 		"/>
		<polygon stroke="#FFFFFF" stroke-miterlimit="10" points="124.854,41.605 104.779,57.226 95.128,40.793 112.917,29.354 		"/>
		<rect x="13.728" y="25.451" fill="#754C29" stroke="#FFFFFF" stroke-miterlimit="10" width="81.48" height="15.342"/>
		<g>
			<rect x="28.766" y="47.181" fill="#FFFFFF" stroke="#000000" stroke-miterlimit="10" width="7.564" height="69.098"/>
			<rect x="6.538" y="36.613" fill="#FFFFFF" stroke="#000000" stroke-miterlimit="10" width="51.641" height="50.175"/>
			<ellipse fill="none" stroke="#000000" stroke-miterlimit="10" cx="31.525" cy="65.965" rx="12.386" ry="2.365"/>
			<path stroke="#000000" stroke-miterlimit="10" d="M19.139,65.973c0,0-2.6,16.353,5.68,16.353c8.279,0,13.698,0,13.698,0"/>
			<path stroke="#000000" stroke-miterlimit="10" d="M43.911,65.973c0,0,2.6,16.353-5.68,16.353c-8.279,0-13.699,0-13.699,0"/>
			<path stroke="#000000" stroke-miterlimit="10" d="M50.571,70.078c-0.653-2.179-3.448-3.242-6.265-2.407
				c0.162,2.44-0.004,6.247-0.237,8.818c0.582-0.018,1.971-0.583,2.553-0.839C49.406,74.429,51.234,72.275,50.571,70.078z
				 M47.053,73.033c-0.23,0.1-0.777,0.323-1.005,0.33c0.09-1.014,0.155-2.512,0.093-3.472c1.107-0.33,2.21,0.089,2.466,0.945
				C48.87,71.705,48.15,72.553,47.053,73.033z"/>
			<path fill="none" stroke="#000000" stroke-miterlimit="10" d="M24.642,61.595c5.119-1.246,1.744-4.955-1.464-6.456
				c-3.206-1.5-7.133-6.856-0.818-9.297"/>
			<path fill="none" stroke="#000000" stroke-miterlimit="10" d="M30.749,61.702c5.261-0.068,2.781-4.733-0.022-7.06
				c-2.802-2.327-4.87-9.334,1.822-10.356"/>
			<path fill="none" stroke="#000000" stroke-miterlimit="10" d="M36.641,61.093c5.008,1.637,4.056-3.382,2.095-6.393
				c-1.96-3.015-1.476-9.736,5.175-8.498"/>
			<path stroke="#000000" stroke-miterlimit="10" d="M43.694,71.938c0,3.529-2.861,6.391-6.39,6.391H25.877
				c-3.529,0-6.391-2.861-6.391-6.391l0,0c-0.9-5.965,2.6-3.894,6.129-3.894h12.302C42.641,67.006,43.694,68.408,43.694,71.938
				L43.694,71.938z"/>
		</g>
	</g>
</g>
</svg>
