<?xml version="1.0" encoding="utf-8"?>
<!-- Generator: Adobe Illustrator 16.0.3, SVG Export Plug-In . SVG Version: 6.00 Build 0)  -->
<!DOCTYPE svg PUBLIC "-//W3C//DTD SVG 1.1//EN" "http://www.w3.org/Graphics/SVG/1.1/DTD/svg11.dtd">
<svg version="1.1" id="Layer_1" xmlns="http://www.w3.org/2000/svg" xmlns:xlink="http://www.w3.org/1999/xlink" x="0px" y="0px"
	 width="128px" height="128px" viewBox="0 0 128 128" enable-background="new 0 0 128 128" xml:space="preserve">
<g opacity="0.5">
	<defs>
		<rect id="SVGID_1_" x="1.03" y="4.104" opacity="0.5" width="125.97" height="114.617"/>
	</defs>
	<clipPath id="SVGID_2_">
		<use xlink:href="#SVGID_1_"  overflow="visible"/>
	</clipPath>
	
		<rect x="14.543" y="24.514" clip-path="url(#SVGID_2_)" fill="#C49A6C" stroke="#000000" stroke-miterlimit="10" width="81.48" height="82.059"/>
	<polygon clip-path="url(#SVGID_2_)" fill="#A97C50" stroke="#000000" stroke-miterlimit="10" points="103.209,12.151 
		32.657,12.151 13.682,24.161 96.557,23.498 96.721,23.378 96.721,105.835 113.541,85.972 113.783,12.151 	"/>
	
		<line clip-path="url(#SVGID_2_)" fill="none" stroke="#000000" stroke-miterlimit="10" x1="96.432" y1="24.514" x2="113.35" y2="13.659"/>
	
		<rect x="19.401" y="54.173" clip-path="url(#SVGID_2_)" fill="#FFF200" stroke="#000000" stroke-miterlimit="10" width="42.291" height="43.349"/>
	<polygon clip-path="url(#SVGID_2_)" fill="#FFF200" stroke="#000000" stroke-miterlimit="10" points="109.773,78.03 
		101.727,87.096 101.727,44.476 109.773,41.531 	"/>
	
		<rect x="67.35" y="67.61" clip-path="url(#SVGID_2_)" fill="#FFFFFF" stroke="#000000" stroke-miterlimit="10" width="21.105" height="38.821"/>
	<g clip-path="url(#SVGID_2_)">
		<path fill="#ED1C24" stroke="#000000" stroke-width="0.5" stroke-miterlimit="10" d="M3.934,56.288c0,0-0.651,4.599,2.605,4.599
			c3.258,0,2.85-4.599,2.85-4.599"/>
		<path fill="#ED1C24" stroke="#000000" stroke-width="0.5" stroke-miterlimit="10" d="M9.907,56.288c0,0-0.65,4.599,2.605,4.599
			c3.258,0,2.851-4.599,2.851-4.599"/>
		<path fill="#ED1C24" stroke="#000000" stroke-width="0.5" stroke-miterlimit="10" d="M15.434,56.288c0,0-0.652,4.599,2.605,4.599
			c3.257,0,2.85-4.599,2.85-4.599"/>
		<path fill="#ED1C24" stroke="#000000" stroke-width="0.5" stroke-miterlimit="10" d="M20.959,56.288c0,0-0.652,4.599,2.605,4.599
			c3.257,0,2.85-4.599,2.85-4.599"/>
		<path fill="#ED1C24" stroke="#000000" stroke-width="0.5" stroke-miterlimit="10" d="M26.933,56.288c0,0-0.651,4.599,2.604,4.599
			c3.258,0,2.85-4.599,2.85-4.599"/>
		<path fill="#ED1C24" stroke="#000000" stroke-width="0.5" stroke-miterlimit="10" d="M32.458,56.288c0,0-0.651,4.599,2.604,4.599
			c3.258,0,2.852-4.599,2.852-4.599"/>
		<path fill="#ED1C24" stroke="#000000" stroke-width="0.5" stroke-miterlimit="10" d="M37.985,56.288c0,0-0.654,4.599,2.604,4.599
			s2.851-4.599,2.851-4.599"/>
		<path fill="#ED1C24" stroke="#000000" stroke-width="0.5" stroke-miterlimit="10" d="M43.958,56.288c0,0-0.652,4.599,2.604,4.599
			c3.26,0,2.854-4.599,2.854-4.599"/>
		<path fill="#ED1C24" stroke="#000000" stroke-width="0.5" stroke-miterlimit="10" d="M49.483,56.288c0,0-0.65,4.599,2.605,4.599
			c3.258,0,2.85-4.599,2.85-4.599"/>
		<path fill="#ED1C24" stroke="#000000" stroke-width="0.5" stroke-miterlimit="10" d="M55.01,56.288c0,0-0.652,4.599,2.604,4.599
			c3.258,0,2.85-4.599,2.85-4.599"/>
		<path fill="#ED1C24" stroke="#000000" stroke-width="0.5" stroke-miterlimit="10" d="M60.981,56.288c0,0-0.65,4.599,2.607,4.599
			c3.257,0,2.849-4.599,2.849-4.599"/>
		<path fill="#ED1C24" stroke="#000000" stroke-width="0.5" stroke-miterlimit="10" d="M66.508,56.288c0,0-0.65,4.599,2.605,4.599
			c3.26,0,2.85-4.599,2.85-4.599"/>
		<path fill="#ED1C24" stroke="#000000" stroke-width="0.5" stroke-miterlimit="10" d="M72.033,56.288c0,0-0.652,4.599,2.605,4.599
			c3.256,0,2.852-4.599,2.852-4.599"/>
		<path fill="#ED1C24" stroke="#000000" stroke-width="0.5" stroke-miterlimit="10" d="M78.008,56.288c0,0-0.654,4.599,2.607,4.599
			c3.252,0,2.848-4.599,2.848-4.599"/>
		<path fill="#ED1C24" stroke="#000000" stroke-width="0.5" stroke-miterlimit="10" d="M83.531,56.288c0,0-0.652,4.599,2.607,4.599
			c3.258,0,2.85-4.599,2.85-4.599"/>
		<path fill="#ED1C24" stroke="#000000" stroke-width="0.5" stroke-miterlimit="10" d="M89.059,56.288c0,0-0.65,4.599,2.605,4.599
			c3.258,0,2.85-4.599,2.85-4.599"/>
		<path fill="#ED1C24" stroke="#000000" stroke-width="0.5" stroke-miterlimit="10" d="M95.029,56.288c0,0-0.648,4.599,2.609,4.599
			s2.85-4.599,2.85-4.599"/>
		<path fill="#ED1C24" stroke="#000000" stroke-width="0.5" stroke-miterlimit="10" d="M100.555,56.288c0,0-0.65,4.599,2.607,4.599
			s2.434-4.599,2.434-4.599"/>
	</g>
	<g clip-path="url(#SVGID_2_)">
		<path fill="#ED1C24" stroke="#000000" stroke-width="0.5" stroke-miterlimit="10" d="M106.012,56.087c0,0,2.33,3.979,4.426,2.352
			c2.102-1.626-0.914-5.077-0.914-5.077"/>
		<path fill="#ED1C24" stroke="#000000" stroke-width="0.5" stroke-miterlimit="10" d="M109.859,53.103c0,0,2.33,3.978,4.43,2.354
			c2.1-1.627-0.916-5.079-0.916-5.079"/>
		<path fill="#ED1C24" stroke="#000000" stroke-width="0.5" stroke-miterlimit="10" d="M113.418,50.343c0,0,2.334,3.979,4.43,2.354
			c2.1-1.628-0.912-5.078-0.912-5.078"/>
		<path fill="#ED1C24" stroke="#000000" stroke-width="0.5" stroke-miterlimit="10" d="M116.98,47.582c0,0,2.33,3.981,4.43,2.355
			c2.098-1.626-0.916-5.078-0.916-5.078"/>
		<path fill="#ED1C24" stroke="#000000" stroke-width="0.5" stroke-miterlimit="10" d="M120.83,44.601c0,0,2.33,3.979,4.428,2.351
			c2.098-1.625-0.914-5.077-0.914-5.077"/>
	</g>
	<polygon clip-path="url(#SVGID_2_)" fill="#2E3192" stroke="#000000" stroke-miterlimit="10" points="105.246,56.059 2.008,56.059 
		15.417,39.855 95.943,39.855 	"/>
	<polygon clip-path="url(#SVGID_2_)" fill="#2E3192" stroke="#000000" stroke-miterlimit="10" points="125.668,40.668 
		105.594,56.288 95.943,39.855 113.732,28.416 	"/>
	
		<rect x="13.543" y="24.514" clip-path="url(#SVGID_2_)" fill="#C49A6C" stroke="#000000" stroke-miterlimit="10" width="82.888" height="15.342"/>
	<g clip-path="url(#SVGID_2_)">
		<rect x="29.581" y="46.243" fill="#FFFFFF" stroke="#000000" stroke-miterlimit="10" width="7.564" height="69.098"/>
		<rect x="7.352" y="35.676" fill="#FFFFFF" stroke="#000000" stroke-miterlimit="10" width="51.642" height="50.175"/>
		<g>
			
				<rect x="25.393" y="54.887" transform="matrix(0.9498 0.313 -0.313 0.9498 21.6537 -9.1099)" fill="#FFFFFF" stroke="#000000" stroke-width="2" stroke-miterlimit="10" width="27.615" height="16"/>
			<polygon fill="#FFFFFF" stroke="#000000" stroke-miterlimit="10" points="53.99,59.607 38.892,64.532 29.216,51.444 			"/>
		</g>
		<line fill="none" stroke="#000000" stroke-miterlimit="10" x1="11.417" y1="56.096" x2="21.917" y2="63.417"/>
		<line fill="none" stroke="#000000" stroke-miterlimit="10" x1="12.543" y1="50.397" x2="23.043" y2="57.719"/>
		<line fill="none" stroke="#000000" stroke-miterlimit="10" x1="14.151" y1="43.667" x2="24.651" y2="50.988"/>
	</g>
</g>
</svg>
