<?xml version="1.0" encoding="utf-8"?>
<!-- Generator: Adobe Illustrator 16.0.3, SVG Export Plug-In . SVG Version: 6.00 Build 0)  -->
<!DOCTYPE svg PUBLIC "-//W3C//DTD SVG 1.1//EN" "http://www.w3.org/Graphics/SVG/1.1/DTD/svg11.dtd">
<svg version="1.1" id="Layer_1" xmlns="http://www.w3.org/2000/svg" xmlns:xlink="http://www.w3.org/1999/xlink" x="0px" y="0px"
	 width="128px" height="128px" viewBox="0 0 128 128" enable-background="new 0 0 128 128" xml:space="preserve">
<g opacity="0.5">
	<defs>
		<rect id="SVGID_1_" y="5.263" opacity="0.5" width="128" height="114.327"/>
	</defs>
	<clipPath id="SVGID_2_">
		<use xlink:href="#SVGID_1_"  overflow="visible"/>
	</clipPath>
	<polygon clip-path="url(#SVGID_2_)" fill="#F1F2F2" stroke="#D1D3D4" stroke-miterlimit="10" points="121.777,113.699 
		2.069,113.699 10.154,81.297 126.25,81.297 	"/>
	<g clip-path="url(#SVGID_2_)">
		<polyline stroke="#D1D3D4" stroke-width="0.2" stroke-linejoin="round" stroke-miterlimit="10" points="33.334,16.357 
			33.3,10.385 117.475,10.668 117.475,17.032 		"/>
		<linearGradient id="SVGID_3_" gradientUnits="userSpaceOnUse" x1="78.6582" y1="15.8618" x2="78.6582" y2="27.8911">
			<stop  offset="0" style="stop-color:#FFFFFF"/>
			<stop  offset="0.1253" style="stop-color:#FBFBFB"/>
			<stop  offset="0.2497" style="stop-color:#EFEFEF"/>
			<stop  offset="0.3737" style="stop-color:#DBDBDB"/>
			<stop  offset="0.4976" style="stop-color:#BFBFBF"/>
			<stop  offset="0.6214" style="stop-color:#9B9B9B"/>
			<stop  offset="0.7453" style="stop-color:#6F6F6F"/>
			<stop  offset="0.8673" style="stop-color:#3B3B3B"/>
			<stop  offset="0.9892" style="stop-color:#000000"/>
		</linearGradient>
		<polygon fill="url(#SVGID_3_)" points="41.193,25.443 124,26.568 117.188,16.625 33.316,16.334 		"/>
		<polygon stroke="#F1F2F2" stroke-width="0.2" stroke-linecap="round" stroke-miterlimit="10" points="117.578,10.559 
			117.475,17.004 123.938,26.362 123.938,26.362 124,19.199 		"/>
		<line fill="none" stroke="#FFF200" stroke-miterlimit="10" x1="33.316" y1="13.734" x2="117.475" y2="13.734"/>
		
			<line fill="none" stroke="#FFF200" stroke-linecap="round" stroke-miterlimit="10" x1="117.716" y1="14.176" x2="123.759" y2="22.745"/>
	</g>
	<polygon clip-path="url(#SVGID_2_)" fill="#F7941E" stroke="#FBB040" stroke-width="0.2" stroke-miterlimit="10" points="
		81.891,41.609 83.021,41.066 96.479,41.066 96.479,41.609 	"/>
	
		<rect x="81.704" y="41.71" clip-path="url(#SVGID_2_)" fill="#FFF200" stroke="#ED1C24" stroke-width="0.2" stroke-linecap="round" stroke-miterlimit="10" width="14.06" height="4.559"/>
	
		<line clip-path="url(#SVGID_2_)" fill="none" stroke="#000000" stroke-width="2" stroke-miterlimit="10" x1="26.152" y1="99.934" x2="77.21" y2="99.934"/>
	
		<line clip-path="url(#SVGID_2_)" fill="none" stroke="#ED1C24" stroke-width="0.5" stroke-linejoin="round" stroke-miterlimit="10" x1="87.021" y1="41.71" x2="87.021" y2="46.269"/>
	<polyline clip-path="url(#SVGID_2_)" fill="#808285" stroke="#000000" stroke-width="0.5" stroke-miterlimit="10" points="
		87.001,61.938 90.088,60.355 98.863,60.355 98.863,61.711 	"/>
	
		<line clip-path="url(#SVGID_2_)" fill="none" stroke="#000000" stroke-miterlimit="10" x1="109.094" y1="84.375" x2="71.344" y2="84.375"/>
	<rect x="77.799" y="74.043" clip-path="url(#SVGID_2_)" fill="#FFF200" width="12.113" height="11.072"/>
	<polyline clip-path="url(#SVGID_2_)" fill="#FBB040" stroke="#F9ED32" stroke-width="0.5" stroke-miterlimit="10" points="
		77.658,74.388 82.713,72.438 90.088,72.438 90.088,74.388 	"/>
	<g clip-path="url(#SVGID_2_)">
		<rect x="86.753" y="61.711" stroke="#FFF200" stroke-width="0.1" stroke-miterlimit="10" width="12.11" height="23.404"/>
		<line stroke="#FFF200" stroke-miterlimit="10" x1="86.753" y1="66.859" x2="98.863" y2="66.859"/>
		<line stroke="#FFF200" stroke-miterlimit="10" x1="95.843" y1="66.859" x2="95.843" y2="85.18"/>
	</g>
	
		<rect x="95.764" y="22.302" clip-path="url(#SVGID_2_)" fill="#808285" stroke="#F3F4F4" stroke-width="0.05" stroke-miterlimit="10" width="7.988" height="63.489"/>
	
		<rect x="69.899" y="85.18" clip-path="url(#SVGID_2_)" fill="#58595B" stroke="#58595B" stroke-linecap="round" stroke-miterlimit="10" width="38.709" height="1.482"/>
	
		<rect x="50.601" y="42.375" clip-path="url(#SVGID_2_)" fill="#F7941E" stroke="#FBB040" stroke-width="0.2" stroke-miterlimit="10" width="12.066" height="0.689"/>
	
		<line clip-path="url(#SVGID_2_)" fill="none" stroke="#000000" stroke-width="2" stroke-miterlimit="10" x1="77.799" y1="98.667" x2="29.622" y2="98.667"/>
	<rect x="36.57" y="84.273" clip-path="url(#SVGID_2_)" fill="#FFF200" width="15.979" height="15.57"/>
	<polyline clip-path="url(#SVGID_2_)" fill="#FBB040" stroke="#F9ED32" stroke-miterlimit="10" points="36.57,84.273 41.625,82.324 
		49,82.324 49,84.273 	"/>
	<polygon clip-path="url(#SVGID_2_)" fill="#808285" stroke="#000000" stroke-width="0.5" stroke-miterlimit="10" points="
		64.358,66.936 62.39,65.25 50.601,65.25 50.5,68.5 	"/>
	<g clip-path="url(#SVGID_2_)">
		
			<rect x="48.381" y="66.936" stroke="#FFF200" stroke-width="0.1" stroke-linecap="round" stroke-miterlimit="10" width="15.978" height="32.908"/>
		<line stroke="#FFF200" stroke-miterlimit="10" x1="48.381" y1="74.133" x2="64.358" y2="74.133"/>
		<line stroke="#FFF200" stroke-width="1.5" stroke-miterlimit="10" x1="60.401" y1="74.133" x2="60.401" y2="100.352"/>
	</g>
	
		<rect x="62.39" y="22.302" clip-path="url(#SVGID_2_)" fill="#BCBEC0" stroke="#F3F4F4" stroke-width="0.05" stroke-miterlimit="10" width="7.988" height="78.325"/>
	
		<rect x="26.152" y="99.934" clip-path="url(#SVGID_2_)" fill="#6D6E71" stroke="#6D6E71" stroke-linecap="round" stroke-miterlimit="10" width="51.058" height="2.082"/>
	
		<rect x="45.271" y="43.064" clip-path="url(#SVGID_2_)" fill="#FFF200" stroke="#ED1C24" stroke-width="0.2" stroke-linecap="round" stroke-miterlimit="10" width="17.118" height="5.552"/>
	
		<line clip-path="url(#SVGID_2_)" fill="none" stroke="#ED1C24" stroke-width="0.7" stroke-linejoin="round" stroke-miterlimit="10" x1="50.5" y1="43.064" x2="50.5" y2="48.617"/>
	<g clip-path="url(#SVGID_2_)">
		<rect x="26.703" y="48.73" fill="#FFFFFF" stroke="#000000" stroke-miterlimit="10" width="6.146" height="67.188"/>
		<g>
			<rect x="8.643" y="40.27" fill="#FFFFFF" stroke="#000000" stroke-miterlimit="10" width="41.958" height="40.171"/>
			<path d="M43.3,70.084l-1.093-7.023l-0.187-10.216c0,0-1.064-2.34-3.189-4.469c-2.127-2.125-3.406-3.082-3.406-3.082l-1.063,1.273
				l2.873,2.875v3.829c0,0-0.107,1.065,1.169,1.81c1.278,0.747,2.234,0.747,2.234,0.747l-0.424,7.233l1.275,8.512
				c0,0,1.705,4.152-0.427,4.683c-2.124,0.533-2.873-0.317-2.767-3.403c0.107-3.086-0.106-12.236-0.106-12.236
				s0.321-3.086-3.188-3.086c-2.286,0-2.858,0.088-2.98,0.15V46.035c0,0,0.425-2.552-2.342-2.765c-2.766-0.215-9.256,0-9.256,0
				s-2.66-0.106-2.66,2.765v32.134h14.472V59.443c0,0,3.83-0.637,3.83,0.959c0,2.445,0,14.363,0,14.363s0,4.47,5.106,3.403
				C46.28,77.105,43.3,70.084,43.3,70.084z M40.215,54.442l-1.492-1.063l-0.211-2.556l1.703,1.278V54.442z M29.936,51.551
				c0,1.124,0.262,2.04-1.113,2.04h-7.448c-1.373,0-1.382-0.916-1.382-2.04v-4.082c0-1.128-0.257-2.041,1.115-2.041h7.715
				c1.375,0,1.113,0.913,1.113,2.041V51.551z"/>
		</g>
	</g>
	
		<line clip-path="url(#SVGID_2_)" fill="none" stroke="#000000" stroke-width="2" stroke-miterlimit="10" x1="70.378" y1="22.302" x2="70.378" y2="99.417"/>
	
		<line clip-path="url(#SVGID_2_)" fill="none" stroke="#000000" stroke-width="2" stroke-miterlimit="10" x1="103.752" y1="22.302" x2="103.752" y2="84.688"/>
</g>
</svg>
