<?xml version="1.0" encoding="utf-8"?>
<!-- Generator: Adobe Illustrator 16.0.3, SVG Export Plug-In . SVG Version: 6.00 Build 0)  -->
<!DOCTYPE svg PUBLIC "-//W3C//DTD SVG 1.1//EN" "http://www.w3.org/Graphics/SVG/1.1/DTD/svg11.dtd">
<svg version="1.1" id="Layer_1" xmlns="http://www.w3.org/2000/svg" xmlns:xlink="http://www.w3.org/1999/xlink" x="0px" y="0px"
	 width="128px" height="128px" viewBox="0 0 128 128" enable-background="new 0 0 128 128" xml:space="preserve">
<g opacity="0.5">
	<defs>
		<rect id="SVGID_1_" y="11.075" opacity="0.5" width="128" height="111.791"/>
	</defs>
	<clipPath id="SVGID_2_">
		<use xlink:href="#SVGID_1_"  overflow="visible"/>
	</clipPath>
	
		<rect x="14.106" y="25.113" clip-path="url(#SVGID_2_)" fill="#009444" stroke="#FFFFFF" stroke-miterlimit="10" width="81.48" height="82.059"/>
	<polygon clip-path="url(#SVGID_2_)" fill="#006838" stroke="#FFFFFF" stroke-miterlimit="10" points="102.865,13.259 
		32.929,13.259 14.118,25.203 96.271,24.544 96.434,24.425 96.434,106.435 113.106,86.679 113.348,13.259 	"/>
	<polygon clip-path="url(#SVGID_2_)" fill="#009444" stroke="#FFFFFF" stroke-miterlimit="10" points="103.147,14.259 
		33.211,14.259 14.4,26.203 96.553,25.544 96.716,25.425 97.587,53.381 113.63,42.951 113.63,14.259 	"/>
	
		<line clip-path="url(#SVGID_2_)" fill="none" stroke="#FFFFFF" stroke-miterlimit="10" x1="95.996" y1="25.113" x2="112.913" y2="14.259"/>
	
		<rect x="18.966" y="54.772" clip-path="url(#SVGID_2_)" fill="#F9ED32" stroke="#006838" stroke-miterlimit="10" width="42.291" height="43.349"/>
	<polygon clip-path="url(#SVGID_2_)" fill="#F9ED32" stroke="#006838" stroke-miterlimit="10" points="109.338,78.63 101.29,87.695 
		101.29,45.075 109.338,42.131 	"/>
	
		<rect x="66.913" y="68.21" clip-path="url(#SVGID_2_)" fill="#2E3192" stroke="#FFFFFF" stroke-miterlimit="10" width="21.105" height="38.821"/>
	<g clip-path="url(#SVGID_2_)">
		<path fill="#2E3192" stroke="#FFFFFF" stroke-width="0.5" stroke-miterlimit="10" d="M3.497,56.888c0,0-0.65,4.599,2.605,4.599
			c3.26,0,2.852-4.599,2.852-4.599"/>
		<path fill="#2E3192" stroke="#FFFFFF" stroke-width="0.5" stroke-miterlimit="10" d="M9.471,56.888c0,0-0.649,4.599,2.606,4.599
			c3.258,0,2.85-4.599,2.85-4.599"/>
		<path fill="#2E3192" stroke="#FFFFFF" stroke-width="0.5" stroke-miterlimit="10" d="M14.998,56.888c0,0-0.651,4.599,2.604,4.599
			c3.258,0,2.85-4.599,2.85-4.599"/>
		<path fill="#2E3192" stroke="#FFFFFF" stroke-width="0.5" stroke-miterlimit="10" d="M20.523,56.888c0,0-0.653,4.599,2.604,4.599
			s2.85-4.599,2.85-4.599"/>
		<path fill="#2E3192" stroke="#FFFFFF" stroke-width="0.5" stroke-miterlimit="10" d="M26.497,56.888c0,0-0.651,4.599,2.604,4.599
			c3.258,0,2.85-4.599,2.85-4.599"/>
		<path fill="#2E3192" stroke="#FFFFFF" stroke-width="0.5" stroke-miterlimit="10" d="M32.022,56.888c0,0-0.652,4.599,2.605,4.599
			c3.256,0,2.85-4.599,2.85-4.599"/>
		<path fill="#2E3192" stroke="#FFFFFF" stroke-width="0.5" stroke-miterlimit="10" d="M37.548,56.888c0,0-0.652,4.599,2.605,4.599
			s2.851-4.599,2.851-4.599"/>
		<path fill="#2E3192" stroke="#FFFFFF" stroke-width="0.5" stroke-miterlimit="10" d="M43.521,56.888c0,0-0.651,4.599,2.604,4.599
			c3.26,0,2.853-4.599,2.853-4.599"/>
		<path fill="#2E3192" stroke="#FFFFFF" stroke-width="0.5" stroke-miterlimit="10" d="M49.047,56.888c0,0-0.651,4.599,2.604,4.599
			c3.258,0,2.852-4.599,2.852-4.599"/>
		<path fill="#2E3192" stroke="#FFFFFF" stroke-width="0.5" stroke-miterlimit="10" d="M54.573,56.888c0,0-0.652,4.599,2.604,4.599
			c3.259,0,2.852-4.599,2.852-4.599"/>
		<path fill="#2E3192" stroke="#FFFFFF" stroke-width="0.5" stroke-miterlimit="10" d="M60.545,56.888c0,0-0.649,4.599,2.607,4.599
			c3.258,0,2.85-4.599,2.85-4.599"/>
		<path fill="#2E3192" stroke="#FFFFFF" stroke-width="0.5" stroke-miterlimit="10" d="M66.071,56.888c0,0-0.649,4.599,2.606,4.599
			c3.259,0,2.85-4.599,2.85-4.599"/>
		<path fill="#2E3192" stroke="#FFFFFF" stroke-width="0.5" stroke-miterlimit="10" d="M71.598,56.888c0,0-0.652,4.599,2.605,4.599
			c3.256,0,2.851-4.599,2.851-4.599"/>
		<path fill="#2E3192" stroke="#FFFFFF" stroke-width="0.5" stroke-miterlimit="10" d="M77.572,56.888c0,0-0.654,4.599,2.606,4.599
			c3.253,0,2.849-4.599,2.849-4.599"/>
		<path fill="#2E3192" stroke="#FFFFFF" stroke-width="0.5" stroke-miterlimit="10" d="M83.096,56.888c0,0-0.652,4.599,2.607,4.599
			c3.258,0,2.85-4.599,2.85-4.599"/>
		<path fill="#2E3192" stroke="#FFFFFF" stroke-width="0.5" stroke-miterlimit="10" d="M88.622,56.888c0,0-0.649,4.599,2.605,4.599
			c3.259,0,2.851-4.599,2.851-4.599"/>
		<path fill="#2E3192" stroke="#FFFFFF" stroke-width="0.5" stroke-miterlimit="10" d="M94.594,56.888c0,0-0.649,4.599,2.608,4.599
			s2.85-4.599,2.85-4.599"/>
		<path fill="#2E3192" stroke="#FFFFFF" stroke-width="0.5" stroke-miterlimit="10" d="M100.119,56.888c0,0-0.65,4.599,2.607,4.599
			s2.434-4.599,2.434-4.599"/>
	</g>
	<g clip-path="url(#SVGID_2_)">
		<path fill="#262262" stroke="#FFFFFF" stroke-width="0.5" stroke-miterlimit="10" d="M105.575,57.687c0,0,2.33,3.979,4.427,2.352
			c2.101-1.626-0.914-5.077-0.914-5.077"/>
		<path fill="#262262" stroke="#FFFFFF" stroke-width="0.5" stroke-miterlimit="10" d="M109.423,54.702c0,0,2.331,3.978,4.43,2.354
			c2.1-1.627-0.916-5.079-0.916-5.079"/>
		<path fill="#262262" stroke="#FFFFFF" stroke-width="0.5" stroke-miterlimit="10" d="M112.982,51.942c0,0,2.333,3.979,4.429,2.354
			c2.1-1.628-0.912-5.078-0.912-5.078"/>
		<path fill="#262262" stroke="#FFFFFF" stroke-width="0.5" stroke-miterlimit="10" d="M116.544,49.182c0,0,2.331,3.981,4.43,2.355
			c2.098-1.626-0.916-5.078-0.916-5.078"/>
		<path fill="#262262" stroke="#FFFFFF" stroke-width="0.5" stroke-miterlimit="10" d="M120.394,46.2c0,0,2.331,3.979,4.428,2.351
			c2.098-1.625-0.913-5.077-0.913-5.077"/>
	</g>
	<polygon clip-path="url(#SVGID_2_)" fill="#2E3192" stroke="#FFFFFF" stroke-miterlimit="10" points="104.81,56.658 1.571,56.658 
		14.981,40.455 95.507,40.455 	"/>
	<polygon clip-path="url(#SVGID_2_)" fill="#262262" stroke="#FFFFFF" stroke-miterlimit="10" points="125.232,41.268 
		105.158,56.888 95.507,40.455 113.296,29.016 	"/>
	
		<rect x="14.106" y="25.113" clip-path="url(#SVGID_2_)" fill="#009444" stroke="#FFFFFF" stroke-miterlimit="10" width="81.48" height="15.342"/>
	<g clip-path="url(#SVGID_2_)">
		<rect x="29.145" y="46.843" fill="#FFFFFF" stroke="#000000" stroke-miterlimit="10" width="7.564" height="69.098"/>
		<rect x="6.917" y="36.275" fill="#FFFFFF" stroke="#000000" stroke-miterlimit="10" width="51.641" height="50.175"/>
		<path d="M38.553,65.932H36.74V44.1c0,0-0.336-3.278,3.001-3.278c3.336,0,3.484,2.712,3.484,2.712l0.001,36.794
			c0,0,0.047,2.354-1.952,2.354c-1.998,0-2.542-2.354-2.542-2.354L38.553,65.932z"/>
		<path d="M24.046,57.248V78.49c0,0-0.485,4.223,1.687,4.223s2.172-4.223,2.172-4.223V57.248c0,0,2.896,0.405,2.896-3.809v-11.82
			c0,0-0.511-0.883-1.428,0.034l-0.021,8.719h-1.266l0.045-8.753c0,0-0.677-0.997-1.675,0v8.782h-1.447v-8.782
			c0,0-0.655-0.794-1.448,0v8.827h-1.313v-8.827c0,0-0.813-0.726-1.539,0v13.238c0,0,0.363,2.269,2.807,2.391H24.046z"/>
	</g>
</g>
</svg>
